<svg width="16" height="16" viewBox="0 0 16 16" fill="none" xmlns="http://www.w3.org/2000/svg">
<path d="M0.733276 6.01001H8.23461C8.26754 6.01007 8.29974 6.00037 8.32717 5.98215C8.35459 5.96392 8.376 5.93798 8.38869 5.9076C8.40139 5.87722 8.4048 5.84376 8.39849 5.81144C8.39219 5.77912 8.37646 5.74939 8.35328 5.72601L6.12861 3.47934C6.01048 3.35305 5.94605 3.18581 5.94891 3.01291C5.95177 2.84001 6.0217 2.67499 6.14394 2.55268L7.98128 0.716675C8.10629 0.591695 8.27583 0.521484 8.45261 0.521484C8.62939 0.521484 8.79892 0.591695 8.92394 0.716675L15.7333 7.52801C15.8583 7.65303 15.9285 7.82257 15.9285 7.99934C15.9285 8.17612 15.8583 8.34566 15.7333 8.47068L8.92394 15.2833C8.79892 15.4083 8.62939 15.4785 8.45261 15.4785C8.27583 15.4785 8.10629 15.4083 7.98128 15.2833L6.14328 13.4453C6.01969 13.3221 5.94935 13.1554 5.94735 12.9809C5.94536 12.8063 6.01187 12.638 6.13261 12.512L8.32794 10.2807C8.35002 10.2571 8.36479 10.2277 8.37046 10.196C8.37613 10.1642 8.37246 10.1315 8.3599 10.1017C8.34733 10.072 8.32641 10.0466 8.29967 10.0285C8.27294 10.0105 8.24154 10.0006 8.20928 10H0.733276C0.556465 10 0.386895 9.92977 0.261871 9.80475C0.136847 9.67972 0.0666094 9.51015 0.0666094 9.33334V6.67668C0.0666094 6.49987 0.136847 6.3303 0.261871 6.20527C0.386895 6.08025 0.556465 6.01001 0.733276 6.01001Z" fill="#FA9268"/>
</svg>
