<svg width="40" height="40" viewBox="0 0 40 40" fill="none" xmlns="http://www.w3.org/2000/svg">
<path d="M1.42517 21.3774C0.638068 20.5903 0.638068 19.3142 1.42517 18.5271L18.5271 1.42512C19.3142 0.638019 20.5904 0.638019 21.3775 1.42512C22.1646 2.21221 22.1646 3.48835 21.3775 4.27545L4.2755 21.3774C3.4884 22.1645 2.21226 22.1645 1.42517 21.3774Z" fill="#555C7A"/>
<path d="M1.42517 18.5271C2.21226 17.74 3.4884 17.74 4.2755 18.5271L21.3775 35.6291C22.1646 36.4162 22.1646 37.6923 21.3775 38.4794C20.5904 39.2665 19.3143 39.2665 18.5272 38.4794L1.42517 21.3774C0.638068 20.5903 0.638068 19.3142 1.42517 18.5271Z" fill="#555C7A"/>
</svg>
