<svg width="40" height="40" viewBox="0 0 40 40" fill="none" xmlns="http://www.w3.org/2000/svg">
<path d="M38.4796 18.5271C39.2667 19.3142 39.2667 20.5903 38.4796 21.3774L21.3776 38.4794C20.5905 39.2665 19.3144 39.2665 18.5273 38.4794C17.7402 37.6923 17.7402 36.4162 18.5273 35.6291L35.6293 18.5271C36.4164 17.74 37.6925 17.74 38.4796 18.5271Z" fill="#555C7A"/>
<path d="M38.4796 21.3774C37.6925 22.1645 36.4164 22.1645 35.6293 21.3774L18.5273 4.27545C17.7402 3.48835 17.7402 2.21221 18.5273 1.42512C19.3144 0.63802 20.5905 0.638021 21.3776 1.42512L38.4796 18.5271C39.2667 19.3142 39.2667 20.5903 38.4796 21.3774Z" fill="#555C7A"/>
</svg>
