<svg width="24" height="24" viewBox="0 0 24 24" fill="none" xmlns="http://www.w3.org/2000/svg">
<path fill-rule="evenodd" clip-rule="evenodd" d="M15.1776 11.2192C15.1776 10.2035 15.1306 9.23253 15.1956 8.26915C15.2336 7.70298 15.7701 7.36948 16.4539 7.34682C16.9613 7.32991 17.47 7.34239 17.978 7.33648C18.4822 7.3304 18.6888 7.12909 18.6944 6.6217C18.7015 5.95652 18.7025 5.291 18.6929 4.62565C18.6872 4.22007 18.5007 3.97738 18.1351 3.98247C17.0397 3.9984 15.9304 3.94996 14.8525 4.1071C13.0216 4.37393 11.7293 5.74601 11.5289 7.58689C11.4127 8.65585 11.4502 9.74287 11.4453 10.8222C11.4439 11.1264 11.3807 11.2434 11.0555 11.2268C10.5134 11.199 9.9688 11.2156 9.42535 11.2207C8.98952 11.2248 8.75927 11.4383 8.75682 11.8713C8.75225 12.7026 8.75682 13.5346 8.77641 14.3657C8.78703 14.8074 8.98151 14.9745 9.42601 14.9765C9.9933 14.9791 10.5609 14.9931 11.1272 14.9708C11.4238 14.9591 11.4448 15.1001 11.4442 15.3361C11.4373 17.8666 11.4328 20.3973 11.4447 22.9279C11.4461 23.2338 11.3287 23.2747 11.0717 23.2738C8.75584 23.2666 6.44014 23.2735 4.12411 23.2668C3.59454 23.265 3.05828 23.2732 2.53671 23.196C1.12012 22.986 0.00757772 21.6796 0.00578146 20.2348C-0.000913674 14.496 -0.00335885 8.75765 0.0070921 3.01893C0.0100314 1.40843 1.40474 0.00974966 3.00684 0.00712242C8.71371 -0.00256554 14.4206 -0.00207291 20.1276 0.00679404C21.7323 0.00925708 23.1295 1.39299 23.1336 3.01154C23.1478 8.76209 23.1483 14.5126 23.1334 20.263C23.1293 21.8666 21.7539 23.2389 20.1595 23.2628C18.5766 23.2866 16.993 23.2656 15.4097 23.2733C15.1853 23.2745 15.0986 23.2151 15.0994 22.9743C15.1076 20.408 15.1087 17.8415 15.1028 15.2754C15.1022 15.0386 15.1799 14.9698 15.409 14.9729C16.2242 14.9839 17.0395 14.9793 17.8549 14.9763C18.2665 14.9745 18.455 14.797 18.5031 14.387C18.5948 13.6108 18.6885 12.8348 18.7807 12.0586C18.8524 11.4545 18.648 11.2205 18.0425 11.2197C17.0864 11.2181 16.1301 11.2192 15.1776 11.2192Z" fill="#555C7A"/>
</svg>
