<svg width="30" height="31" viewBox="0 0 30 31" fill="none" xmlns="http://www.w3.org/2000/svg">
<path fill-rule="evenodd" clip-rule="evenodd" d="M19.5633 15.1237C19.5633 13.8144 19.5027 12.5629 19.5865 11.3212C19.6355 10.5914 20.327 10.1616 21.2085 10.1323C21.8624 10.1105 22.5181 10.1266 23.1729 10.119C23.8228 10.1112 24.0891 9.8517 24.0963 9.1977C24.1055 8.3403 24.1068 7.48248 24.0944 6.62488C24.087 6.1021 23.8466 5.78928 23.3754 5.79584C21.9635 5.81637 20.5336 5.75393 19.1443 5.95648C16.7843 6.30041 15.1186 8.06897 14.8603 10.4418C14.7105 11.8196 14.7589 13.2208 14.7526 14.6119C14.7507 15.0041 14.6692 15.1548 14.2501 15.1334C13.5513 15.0977 12.8494 15.119 12.1489 15.1256C11.5871 15.1309 11.2903 15.406 11.2872 15.9642C11.2813 17.0358 11.2872 18.1082 11.3124 19.1794C11.3261 19.7487 11.5768 19.9642 12.1497 19.9667C12.8809 19.9701 13.6126 19.9881 14.3425 19.9593C14.7248 19.9443 14.7519 20.1261 14.7511 20.4302C14.7422 23.692 14.7363 26.9539 14.7517 30.2157C14.7536 30.61 14.6023 30.6627 14.271 30.6616C11.2859 30.6523 8.30107 30.6612 5.3158 30.6525C4.63321 30.6502 3.94199 30.6608 3.26972 30.5613C1.44379 30.2906 0.00976737 28.6067 0.00745207 26.7444C-0.00117769 19.3474 -0.00432942 11.9509 0.00914142 4.55387C0.0129301 2.478 1.81065 0.675165 3.87569 0.671778C11.2316 0.659291 18.5875 0.659926 25.9437 0.671355C28.0121 0.67453 29.8129 2.45811 29.8182 4.54435C29.8365 11.9566 29.8372 19.3688 29.818 26.7808C29.8127 28.8478 28.0399 30.6165 25.9847 30.6474C23.9445 30.6781 21.9033 30.651 19.8624 30.661C19.5732 30.6625 19.4614 30.5858 19.4625 30.2756C19.473 26.9677 19.4745 23.6596 19.4669 20.3519C19.4661 20.0467 19.5663 19.958 19.8616 19.962C20.9123 19.9762 21.9632 19.9703 23.0142 19.9665C23.5448 19.9642 23.7877 19.7354 23.8498 19.2069C23.9679 18.2064 24.0887 17.2061 24.2076 16.2057C24.3 15.427 24.0365 15.1254 23.256 15.1243C22.0236 15.1222 20.7911 15.1237 19.5633 15.1237Z" fill="white"/>
</svg>
