<svg width="100" height="100" viewBox="0 0 100 100" fill="none" xmlns="http://www.w3.org/2000/svg">
<path d="M18.27 33.9006C18.8831 34.1599 19.2708 34.5856 19.432 35.1773C19.5929 35.7682 19.5085 36.4546 19.1781 37.2342C18.8489 38.0151 18.4573 38.6024 18.0035 38.9967L16.9382 38.5455C17.2177 38.2926 17.4765 38.0084 17.7122 37.6901C17.946 37.3714 18.1286 37.0612 18.2582 36.7563C18.4479 36.3091 18.5016 35.9431 18.4212 35.6595C18.3408 35.3759 18.159 35.172 17.8724 35.0515C17.6144 34.9426 17.3544 34.9474 17.0923 35.0659C16.8303 35.1843 16.4479 35.4981 15.9433 36.0042C15.4218 36.5254 14.9437 36.8456 14.5064 36.9645C14.0702 37.084 13.6225 37.0462 13.1627 36.8519C12.5878 36.6078 12.2203 36.2117 12.0635 35.6627C11.9062 35.1147 11.9734 34.4951 12.2659 33.8064C12.5458 33.1457 12.969 32.549 13.5354 32.0185L14.3033 32.7668C13.7852 33.2713 13.4242 33.7635 13.2199 34.2444C13.066 34.6093 13.0272 34.9195 13.1063 35.1755C13.1856 35.4322 13.3549 35.6157 13.6167 35.7253C13.7969 35.8024 13.9655 35.8292 14.1245 35.8076C14.2836 35.786 14.457 35.7132 14.6435 35.5879C14.8301 35.4625 15.1109 35.2145 15.4876 34.8434C15.9127 34.427 16.2666 34.1375 16.5487 33.9795C16.8314 33.8204 17.11 33.7344 17.3863 33.7217C17.6627 33.709 17.9573 33.7678 18.27 33.9006Z" fill="#555C7A"/>
<path d="M23.2231 29.8179L21.0745 29.3001L19.5008 31.6939L20.8365 33.4485L20.1269 34.5279L15.3808 28.0538L16.1131 26.9412L23.9385 28.7309L23.2231 29.8179ZM20.0154 28.9902L17.9249 28.4569C17.7828 28.4239 17.5636 28.3651 17.269 28.2801C16.9743 28.1951 16.7599 28.128 16.6264 28.0813C16.9273 28.3892 17.2365 28.7544 17.5567 29.1772L18.8162 30.8146L20.0154 28.9902Z" fill="#555C7A"/>
<path d="M26.245 26.4352L25.3971 27.3192L20.7488 22.8595L19.2239 24.4502L18.4642 23.7225L22.3631 19.6585L23.1218 20.3857L21.5961 21.9766L26.245 26.4352Z" fill="#555C7A"/>
<path d="M28.5338 24.3291L23.8739 18.4642L24.8327 17.703L29.4925 23.5671L28.5338 24.3291Z" fill="#555C7A"/>
<path d="M33.4908 18.4867C33.841 19.0541 33.9087 19.6243 33.6984 20.2007C33.4859 20.7759 33.0201 21.2856 32.2979 21.7291C31.577 22.1739 30.9176 22.426 30.3203 22.4843L29.7132 21.4982C30.0875 21.455 30.4637 21.3734 30.8385 21.2502C31.2145 21.1284 31.5436 20.9789 31.8261 20.8058C32.2391 20.5505 32.4951 20.2854 32.594 20.0064C32.6941 19.7288 32.6626 19.4575 32.4996 19.1925C32.3534 18.9546 32.1387 18.8078 31.8556 18.753C31.5737 18.6987 31.0799 18.7311 30.3763 18.8512C29.649 18.9742 29.0728 18.9576 28.6488 18.802C28.2247 18.6464 27.8813 18.3561 27.6193 17.9317C27.2915 17.3987 27.2225 16.863 27.4131 16.3243C27.6032 15.7867 28.0159 15.3209 28.6537 14.9291C29.265 14.5531 29.9554 14.312 30.7256 14.2082L30.9169 15.2627C30.2023 15.3744 29.6235 15.5672 29.1783 15.8399C28.8404 16.048 28.6295 16.279 28.5453 16.5339C28.4616 16.7879 28.4939 17.0361 28.6426 17.2769C28.7451 17.4433 28.8669 17.5641 29.0095 17.6381C29.1521 17.7121 29.3359 17.7532 29.5603 17.7597C29.7848 17.7662 30.1569 17.7279 30.6794 17.6423C31.2675 17.5496 31.7233 17.5195 32.0455 17.5533C32.3672 17.589 32.6449 17.6795 32.8773 17.8303C33.1083 17.9789 33.3135 18.1983 33.4908 18.4867Z" fill="#555C7A"/>
<path d="M36.7398 19.2726L35.6169 19.7357L32.7683 12.8058L36.6783 11.1986L37.0719 12.1569L34.2849 13.3018L35.1757 15.4676L37.7872 14.3943L38.1816 15.3558L35.5703 16.4299L36.7398 19.2726Z" fill="#555C7A"/>
<path d="M45.0458 16.8413L43.8766 14.9649L41.0768 15.5678L40.7984 17.7557L39.5365 18.0272L40.6927 10.083L41.9954 9.80325L46.3185 16.5678L45.0458 16.8413ZM43.3395 14.0013L42.224 12.1553C42.1445 12.0319 42.0308 11.837 41.88 11.5687C41.7292 11.3004 41.6236 11.1025 41.56 10.9766C41.5586 11.4066 41.5243 11.8841 41.4549 12.4104L41.2049 14.4619L43.3395 14.0013Z" fill="#555C7A"/>
<path d="M50.0474 9.99149C49.3435 10.0056 48.795 10.2657 48.4024 10.7707C48.0086 11.2779 47.8211 11.9691 47.8382 12.8476C47.8555 13.7664 48.0635 14.4578 48.4597 14.9216C48.8558 15.3855 49.4221 15.6108 50.1566 15.5964C50.4731 15.5896 50.7805 15.552 51.076 15.4833C51.3724 15.4144 51.6787 15.3271 51.9993 15.221L52.0186 16.2716C51.4358 16.505 50.7717 16.6285 50.0267 16.6431C48.9301 16.6643 48.0828 16.3494 47.4826 15.6964C46.8831 15.0433 46.5703 14.0985 46.5458 12.8616C46.5309 12.0825 46.6597 11.3982 46.9344 10.8098C47.2076 10.2192 47.6121 9.76535 48.1458 9.44345C48.6787 9.12177 49.3102 8.9552 50.0375 8.94009C50.8026 8.92537 51.5135 9.07162 52.168 9.38031L51.747 10.4077C51.4919 10.2937 51.2231 10.1938 50.94 10.1092C50.6551 10.0242 50.3579 9.98544 50.0474 9.99149Z" fill="#555C7A"/>
<path d="M55.8515 17.0588L54.6426 16.8671L55.6523 10.5064L53.4754 10.161L53.6402 9.12332L59.2021 10.0059L59.0371 11.0428L56.8612 10.6981L55.8515 17.0588Z" fill="#555C7A"/>
<path d="M58.8998 17.7467L61.0187 10.5609L62.1928 10.9075L60.0749 18.0939L58.8998 17.7467Z" fill="#555C7A"/>
<path d="M69.3421 18.0138C68.8128 19.1115 68.1257 19.8331 67.2832 20.1773C66.44 20.5225 65.5153 20.4519 64.5083 19.9667C63.4894 19.4759 62.854 18.7965 62.5985 17.9284C62.3442 17.0609 62.4847 16.07 63.0225 14.9552C63.5598 13.8413 64.2464 13.1181 65.0845 12.7865C65.9215 12.4544 66.8495 12.5337 67.8686 13.0253C68.8708 13.5091 69.501 14.1856 69.7563 15.0564C70.0113 15.9263 69.873 16.9122 69.3421 18.0138ZM64.1902 15.5297C63.7902 16.3604 63.6538 17.0721 63.7821 17.6621C63.9108 18.2537 64.3035 18.708 64.9628 19.025C65.6176 19.3415 66.2147 19.3674 66.7543 19.1036C67.2923 18.8402 67.7642 18.2875 68.1699 17.4484C68.5689 16.6206 68.7058 15.914 68.5815 15.3256C68.4567 14.739 68.0666 14.2876 67.4115 13.9703C66.7501 13.6521 66.1475 13.625 65.6046 13.8897C65.0603 14.1557 64.5895 14.7028 64.1902 15.5297Z" fill="#555C7A"/>
<path d="M73.5195 26.0091L72.3552 25.0609L73.2697 18.1058L73.2382 18.08L73.0468 18.354C72.6837 18.8775 72.3348 19.3428 72.0018 19.7494L69.5427 22.769L68.6805 22.0679L73.4116 16.2595L74.5636 17.1978L73.6606 24.1236L73.6852 24.1433C73.7282 24.0783 73.8988 23.8476 74.1942 23.451C74.4908 23.0558 74.7254 22.7501 74.9003 22.5357L77.3795 19.4923L78.2498 20.2009L73.5195 26.0091Z" fill="#555C7A"/>
<path d="M28.6594 83.2027C28.2657 83.7396 27.7617 84.0185 27.1486 84.0407C26.5354 84.063 25.8881 83.8234 25.2041 83.3227C24.5201 82.822 24.0391 82.3063 23.7583 81.7756L24.4428 80.8416C24.6228 81.173 24.8408 81.4891 25.0961 81.7907C25.3531 82.0919 25.6135 82.3404 25.8816 82.5361C26.2713 82.8219 26.6167 82.9591 26.9115 82.9467C27.2064 82.9344 27.4445 82.8021 27.6292 82.5519C27.7949 82.3259 27.8498 82.0727 27.7932 81.7897C27.738 81.5081 27.5213 81.0628 27.1431 80.4565C26.7557 79.8289 26.5535 79.2903 26.5367 78.838C26.5201 78.3864 26.6606 77.9586 26.9552 77.556C27.3233 77.0514 27.7935 76.7868 28.3638 76.7586C28.9341 76.7303 29.5222 76.9384 30.1249 77.3811C30.7038 77.8038 31.187 78.354 31.5739 79.0255L30.6699 79.6018C30.2989 78.983 29.9015 78.5178 29.4797 78.2099C29.1583 77.9759 28.8653 77.8676 28.5983 77.8857C28.3313 77.9037 28.1138 78.0278 27.946 78.256C27.8322 78.4137 27.7671 78.5732 27.7519 78.7325C27.7367 78.8918 27.7671 79.0774 27.8455 79.2879C27.9238 79.4984 28.1013 79.8271 28.3768 80.2794C28.6862 80.7893 28.8856 81.1997 28.9757 81.5097C29.0646 81.8217 29.0839 82.113 29.034 82.385C28.9841 82.6571 28.8588 82.9292 28.6594 83.2027Z" fill="#555C7A"/>
<path d="M33.5509 88.0937L33.807 85.8977L31.2411 84.6245L29.6598 86.1618L28.5034 85.5869L34.3589 80.0964L35.5525 80.6894L34.7164 88.6732L33.5509 88.0937ZM33.9882 84.81L34.2663 82.6703C34.2812 82.5261 34.3132 82.3018 34.3631 81.9973C34.4118 81.6948 34.4527 81.4743 34.4824 81.3365C34.2125 81.6711 33.8871 82.024 33.5057 82.391L32.0316 83.8374L33.9882 84.81Z" fill="#555C7A"/>
<path d="M38.9671 89.9501L37.791 89.6058L39.5974 83.4236L37.4822 82.8048L37.7777 81.797L43.1836 83.3764L42.888 84.3843L40.7733 83.7671L38.9671 89.9501Z" fill="#555C7A"/>
<path d="M42.8088 90.8151L43.9952 83.4188L45.2045 83.6121L44.0185 91.0101L42.8088 90.8151Z" fill="#555C7A"/>
<path d="M50.9566 89.4587C50.9335 90.1252 50.6732 90.6396 50.1798 91.0007C49.6837 91.3616 49.0125 91.5274 48.167 91.497C47.3193 91.4655 46.6318 91.3085 46.1024 91.0277L46.1427 89.8691C46.4786 90.043 46.8358 90.1814 47.2177 90.2878C47.5996 90.3942 47.9538 90.4527 48.2858 90.4646C48.7702 90.4822 49.1305 90.4031 49.3681 90.2263C49.6053 90.0514 49.7303 89.8075 49.7407 89.496C49.7499 89.2164 49.6549 88.9762 49.4478 88.773C49.2445 88.5705 48.8159 88.3259 48.1628 88.0352C47.491 87.7338 47.0204 87.4013 46.7525 87.0363C46.4846 86.6714 46.3608 86.239 46.3798 85.7402C46.4027 85.1158 46.6414 84.6318 47.0975 84.2886C47.554 83.9471 48.1571 83.789 48.9046 83.8167C49.6225 83.8418 50.3307 84.0238 51.0278 84.3641L50.6033 85.3486C49.9481 85.0436 49.3587 84.8832 48.8363 84.8645C48.4404 84.8495 48.1372 84.9255 47.926 85.09C47.7149 85.2544 47.6043 85.4796 47.5942 85.7629C47.5882 85.9565 47.6229 86.1253 47.6999 86.2651C47.7758 86.4079 47.9057 86.5423 48.0895 86.672C48.2733 86.8016 48.6044 86.9768 49.0864 87.1949C49.6274 87.4437 50.0225 87.6711 50.2717 87.8779C50.5213 88.0864 50.7005 88.3163 50.8114 88.5699C50.9223 88.8234 50.9688 89.1213 50.9566 89.4587Z" fill="#555C7A"/>
<path d="M54.2831 91.2107L53.0764 91.3543L52.1914 83.915L56.3907 83.4167L56.5118 84.4445L53.52 84.7989L53.796 87.1251L56.6014 86.7916L56.724 87.8251L53.9203 88.1581L54.2831 91.2107Z" fill="#555C7A"/>
<path d="M63.8729 89.096L62.5633 87.3142L59.8165 88.1282L59.7063 90.3316L58.469 90.6982L59.0168 82.6891L60.2938 82.3101L65.1196 88.7251L63.8729 89.096ZM61.9544 86.3935L60.7009 84.6379C60.6118 84.5215 60.4832 84.3359 60.3135 84.0788C60.1423 83.823 60.0216 83.6344 59.9497 83.5133C59.9808 83.9434 59.9825 84.4209 59.9542 84.9503L59.8617 87.0139L61.9544 86.3935Z" fill="#555C7A"/>
<path d="M66.6775 80.652C66.0499 80.9737 65.6707 81.4471 65.5397 82.0741C65.4087 82.7011 65.5426 83.4071 65.9412 84.1877C66.3612 85.0056 66.8488 85.5361 67.4095 85.7796C67.9694 86.0233 68.577 85.9772 69.2309 85.6424C69.5122 85.4977 69.7724 85.3298 70.0085 85.1376C70.2432 84.9467 70.4825 84.7335 70.7231 84.4989L71.2015 85.4335C70.7797 85.8982 70.2369 86.3006 69.5738 86.6405C68.5974 87.1398 67.6985 87.228 66.8719 86.905C66.0447 86.5803 65.3508 85.8691 64.7882 84.7676C64.4335 84.0752 64.2498 83.4027 64.2376 82.7518C64.225 82.1028 64.3879 81.5163 64.7276 80.9939C65.0657 80.4718 65.559 80.045 66.2064 79.712C66.8874 79.3637 67.591 79.1849 68.3142 79.1743L68.3869 80.2834C68.1068 80.2919 67.8215 80.3201 67.5291 80.3677C67.2367 80.4154 66.9527 80.5108 66.6775 80.652Z" fill="#555C7A"/>
<path d="M75.4099 82.7353L74.4322 83.4717L70.5562 78.3272L68.7961 79.652L68.1638 78.8139L72.663 75.4257L73.2955 76.2647L71.5358 77.5912L75.4099 82.7353Z" fill="#555C7A"/>
<path d="M78.4105 80.1632L73.189 74.7917L74.067 73.9382L79.2884 79.3098L78.4105 80.1632Z" fill="#555C7A"/>
<path d="M82.2151 69.8317C83.1909 70.5638 83.7663 71.376 83.941 72.2701C84.1173 73.1638 83.8683 74.0574 83.1983 74.9507C82.5191 75.8553 81.7298 76.3492 80.8294 76.4317C79.9296 76.5132 78.9834 76.1827 77.9946 75.441C77.0049 74.6995 76.4282 73.8859 76.2627 72.9998C76.0989 72.1133 76.3556 71.2193 77.0349 70.3148C77.7039 69.4243 78.4898 68.9375 79.3927 68.8543C80.2958 68.7719 81.2379 69.0974 82.2151 69.8317ZM78.7844 74.4059C79.5219 74.959 80.1925 75.23 80.7972 75.2188C81.4019 75.2076 81.9233 74.9083 82.3628 74.3231C82.7999 73.7421 82.9408 73.1616 82.7854 72.5815C82.6318 72.0018 82.1813 71.4332 81.4349 70.873C80.6995 70.3211 80.0323 70.05 79.4325 70.0599C78.8315 70.0684 78.3133 70.3633 77.8766 70.946C77.4359 71.5332 77.2939 72.1193 77.4486 72.7031C77.6039 73.2859 78.0495 73.8557 78.7844 74.4059Z" fill="#555C7A"/>
<path d="M89.1035 64.0522L88.489 65.4209L81.5355 66.3423L81.5183 66.3793L81.8327 66.4924C82.4317 66.7089 82.9729 66.9252 83.4511 67.1391L87.0049 68.7316L86.5511 69.7477L79.7134 66.6832L80.3208 65.3269L87.2448 64.4038L87.2577 64.3767C87.1823 64.3504 86.9157 64.2456 86.4579 64.0622C85.9977 63.8795 85.6428 63.7299 85.39 63.6179L81.808 62.0118L82.2669 60.9883L89.1035 64.0522Z" fill="#555C7A"/>
<path d="M35.6196 63.6585L32.2086 64.5725L29.3773 54.0058L28.945 52.2617L28.491 50.348C28.0967 51.1412 27.8142 51.6676 27.6482 51.9252L26.2447 54.1095L23.977 52.2275L27.9216 46.1511L30.7254 45.3998L35.6196 63.6585Z" fill="#555C7A"/>
<path d="M46.65 50.9174C47.5043 54.1059 47.6761 56.5897 47.1628 58.3688C46.6497 60.1488 45.4332 61.2964 43.5113 61.8114C41.6508 62.3099 40.034 61.8951 38.6652 60.5668C37.2962 59.2377 36.1975 57.0285 35.3701 53.9408C34.5068 50.7188 34.331 48.2202 34.8411 46.4455C35.3522 44.6713 36.5621 43.5281 38.4766 43.0151C40.3379 42.5164 41.9602 42.9384 43.3407 44.2811C44.7212 45.6238 45.8241 47.8354 46.65 50.9174ZM38.7571 53.0323C39.3571 55.2717 39.958 56.8303 40.56 57.709C41.162 58.5877 41.8676 58.9169 42.6759 58.7003C43.472 58.487 43.914 57.8424 44.0025 56.7655C44.0939 55.6896 43.8404 54.0432 43.2472 51.8292C42.647 49.5891 42.0376 48.0283 41.4189 47.1462C40.799 46.2627 40.0968 45.9264 39.3081 46.1377C38.5071 46.3524 38.063 46.9958 37.9801 48.0676C37.898 49.1358 38.1564 50.7905 38.7571 53.0323Z" fill="#555C7A"/>
<path d="M59.5523 47.4599C60.4066 50.6483 60.5777 53.1324 60.0643 54.9115C59.5512 56.6914 58.3347 57.8391 56.4128 58.3541C54.5515 58.8528 52.9355 58.4378 51.5659 57.1097C50.197 55.7806 49.0982 53.5714 48.2708 50.4837C47.4075 47.2617 47.2317 44.7631 47.7426 42.9882C48.2537 41.214 49.4644 40.0706 51.3781 39.5578C53.2403 39.0588 54.8625 39.4809 56.243 40.8236C57.6235 42.1663 58.7265 44.3779 59.5523 47.4599ZM51.6586 49.575C52.2586 51.8144 52.8604 53.3727 53.4624 54.2515C54.0644 55.1302 54.7699 55.4594 55.5791 55.2426C56.3743 55.0295 56.8163 54.3849 56.9057 53.3078C56.9979 52.2316 56.7444 50.5852 56.1512 48.3712C55.5509 46.1311 54.9416 44.5704 54.3229 43.6882C53.7029 42.8047 52.9999 42.4687 52.212 42.6798C51.411 42.8944 50.967 43.5378 50.8841 44.6096C50.7996 45.6785 51.0579 47.3332 51.6586 49.575Z" fill="#555C7A"/>
<path d="M65.6391 41.8807C66.1523 43.796 66.2994 45.2973 66.0822 46.385C65.8641 47.4756 65.2957 48.1426 64.3769 48.3888C63.4949 48.6251 62.6817 48.3134 61.9365 47.4564C61.1912 46.5994 60.5684 45.2369 60.0688 43.3723C59.0493 39.5678 59.4602 37.4163 61.3044 36.9222C62.2076 36.6801 63.0322 36.9888 63.7802 37.846C64.5291 38.7037 65.1478 40.0471 65.6391 41.8807ZM62.0952 42.8548C62.3786 43.9127 62.6497 44.6854 62.9096 45.1743C63.1695 45.6633 63.4335 45.8697 63.7003 45.7982C64.2132 45.6607 64.1885 44.544 63.626 42.4446C63.0685 40.364 62.5335 39.3919 62.0205 39.5294C61.7538 39.6008 61.6285 39.9089 61.6444 40.4527C61.6616 40.9979 61.8121 41.7985 62.0952 42.8548ZM69.6941 34.9565L68.0861 54.9566L66.1625 55.472L67.7698 35.4721L69.6941 34.9565ZM75.8003 46.9747C76.3111 48.8811 76.4573 50.3791 76.2404 51.4676C76.0225 52.559 75.4535 53.2271 74.5347 53.4733C73.6535 53.7094 72.8396 53.3979 72.0947 52.539C71.3492 51.6812 70.7271 50.3247 70.2294 48.4675C69.2098 44.6622 69.6222 42.5128 71.4655 42.0189C72.3688 41.7769 73.1942 42.0854 73.9419 42.9417C74.6904 43.7978 75.309 45.1412 75.8003 46.9747ZM72.2561 47.9507C72.5391 49.007 72.8112 49.7803 73.0707 50.2676C73.3298 50.7568 73.5934 50.965 73.8609 50.8933C74.3747 50.7556 74.3487 49.6375 73.7868 47.5406C73.2289 45.4583 72.694 44.4862 72.181 44.6237C71.9134 44.6954 71.789 45.0032 71.8059 45.5476C71.8237 46.0918 71.9726 46.8928 72.2561 47.9507Z" fill="#555C7A"/>
<path fill-rule="evenodd" clip-rule="evenodd" d="M42.6683 22.6447C27.5603 26.6929 18.5945 42.222 22.6427 57.33C26.6909 72.438 42.22 81.4038 57.328 77.3556C72.436 73.3074 81.4018 57.7783 77.3536 42.6703C73.3054 27.5623 57.7763 18.5965 42.6683 22.6447ZM21.8555 57.541C17.6908 41.9982 26.9145 26.0221 42.4573 21.8575C58.0001 17.6928 73.9762 26.9166 78.1408 42.4593C82.3055 58.0021 73.0817 73.9782 57.5389 78.1428C41.9962 82.3075 26.0201 73.0837 21.8555 57.541Z" fill="#555C7A"/>
<path fill-rule="evenodd" clip-rule="evenodd" d="M42.2332 21.0229C26.2296 25.3111 16.7323 41.7608 21.0205 57.7645C25.3086 73.7681 41.7584 83.2653 57.762 78.9772C73.7656 74.689 83.2629 58.2393 78.9747 42.2357C74.6866 26.232 58.2368 16.7348 42.2332 21.0229ZM19.3841 58.2029C14.8538 41.2956 24.8874 23.9169 41.7948 19.3866C58.7021 14.8563 76.0808 24.8899 80.6111 41.7972C85.1414 58.7046 75.1078 76.0832 58.2005 80.6135C41.2931 85.1438 23.9145 75.1103 19.3841 58.2029Z" fill="#555C7A"/>
<path fill-rule="evenodd" clip-rule="evenodd" d="M38.267 6.21564C14.0856 12.695 -0.264769 37.5506 6.21463 61.732C12.694 85.9134 37.5495 100.264 61.731 93.7844C85.9124 87.305 100.263 62.4495 93.7834 38.268C87.304 14.0866 62.4485 -0.263763 38.267 6.21564ZM2.94195 62.6089C-4.02175 36.62 11.4012 9.90666 37.3901 2.94296C63.379 -4.02075 90.0923 11.4022 97.056 37.3911C104.02 63.38 88.5968 90.0934 62.6079 97.0571C36.619 104.021 9.90565 88.5978 2.94195 62.6089Z" fill="#555C7A"/>
<path fill-rule="evenodd" clip-rule="evenodd" d="M37.2815 2.53386C11.0667 9.5581 -4.49038 36.5037 2.53386 62.7185C9.5581 88.9333 36.5037 104.49 62.7185 97.4661C88.9333 90.4419 104.49 63.4963 97.4661 37.2815C90.4419 11.0667 63.4963 -4.49038 37.2815 2.53386ZM1.71569 62.9377C-5.42962 36.2711 10.3956 8.86101 37.0623 1.71569C63.729 -5.42963 91.139 10.3956 98.2843 37.0623C105.43 63.729 89.6044 91.139 62.9377 98.2843C36.2711 105.43 8.86101 89.6044 1.71569 62.9377Z" fill="#555C7A"/>
<path d="M85.6955 35.5025L88.0064 38.5734L91.7781 37.8372L89.5713 40.9838L91.4378 44.343L87.7626 43.2171L85.1444 46.0293L85.0796 42.1874L81.596 40.5655L85.2304 39.3172L85.6955 35.5025Z" fill="#555C7A"/>
<path d="M80.1345 24.9712L82.3199 26.6604L84.7927 25.433L83.8636 28.033L85.7947 30.0069L83.0349 29.9247L81.7556 32.373L80.9787 29.7224L78.2557 29.2603L80.5369 27.7037L80.1345 24.9712Z" fill="#555C7A"/>
<path d="M88.7244 49.3316L89.0746 52.0719L91.6925 52.9533L89.1958 54.1344L89.1668 56.8966L87.2726 54.8865L84.6362 55.7131L85.9605 53.2887L84.3619 51.0372L87.0765 51.5498L88.7244 49.3316Z" fill="#555C7A"/>
<path d="M13.9169 65.1476L11.6068 62.0765L7.8351 62.8127L10.041 59.6663L8.17542 56.3069L11.8498 57.4331L14.4688 54.6206L14.5336 58.4625L18.0172 60.0844L14.3828 61.3327L13.9169 65.1476Z" fill="#555C7A"/>
<path d="M19.4793 75.6786L17.2939 73.9895L14.8202 75.217L15.7506 72.615L13.8181 70.6424L16.5787 70.7244L17.8593 68.2775L18.6351 70.9275L21.3578 71.3888L19.0767 72.9453L19.4793 75.6786Z" fill="#555C7A"/>
<path d="M10.8894 51.3176L10.5394 48.5781L7.92157 47.6967L10.4182 46.5156L10.4472 43.7535L12.3423 45.7633L14.9781 44.9378L13.6533 47.3605L15.2521 49.6128L12.5375 49.1003L10.8894 51.3176Z" fill="#555C7A"/>
</svg>
