<svg width="15" height="18" viewBox="0 0 15 18" fill="none" xmlns="http://www.w3.org/2000/svg">
<path d="M13.4688 2.17399L13.8199 1.22802L12.8545 1.52164C12.3662 1.67016 11.8947 1.98837 11.4523 2.38683C11.0056 2.78918 10.5611 3.29851 10.1292 3.86731C9.26529 5.0048 8.42074 6.42099 7.67939 7.79904C6.60765 9.79122 5.73533 11.7345 5.31463 12.7061C4.52638 12.0362 3.63295 11.3569 2.89229 10.8146C2.4349 10.4796 2.03262 10.1946 1.74454 9.99322C1.60045 9.8925 1.48482 9.81262 1.40502 9.75779L1.31308 9.69484L1.28897 9.67842L1.28268 9.67415L1.28102 9.67303L1.28056 9.67272L1.28042 9.67262L1 10.0866L1.28035 9.67258L0.5 9.14415V10.0866V10.0871V10.1773L0.531477 10.2617L3.10766 17.1746L3.22892 17.5H3.57618H7.43233H7.78008L7.90108 17.174L13.4688 2.17399Z" fill="#45B649" stroke="white"/>
</svg>
