<svg width="172" height="232" viewBox="0 0 172 232" fill="none" xmlns="http://www.w3.org/2000/svg">
<path d="M67.1273 15.7193C67.1273 15.7193 87.1494 0.764975 91.5387 15.7193C97.4291 35.7888 89.2309 52.1448 89.2309 52.1448L57.9457 60.1947C44.8364 48.9928 42.8763 18.8971 42.8763 18.8971L67.1273 15.7193Z" fill="#262324"/>
<path d="M150.891 171.268C150.891 171.268 132.947 173.816 116.122 171.268C99.2978 168.72 39.6643 170.875 39.6643 170.875C39.6643 170.875 28.7423 170.809 23.3423 170.875C17.9424 170.941 23.3423 178.508 23.3423 178.508L63.4635 196.932L79.8562 200.532L103.037 195.105L135.377 184.252L150.891 171.268Z" fill="#3B3F68"/>
<path d="M113.021 76.0651C113.021 76.0651 119.996 168.643 118.75 175.631L42.7747 174.134C42.7747 174.134 40.0351 132.96 42.7747 82.5529C42.7747 82.5533 37.5436 66.5828 113.021 76.0651Z" fill="#45B649"/>
<path d="M79.289 101.752C79.289 101.752 109.103 85.8976 113.097 76.0353C117.092 66.1729 86.7582 55.8743 75.3362 57.3723C63.9142 58.8704 41.763 74.4144 42.9199 80.471C44.0774 86.5268 79.289 101.752 79.289 101.752Z" fill="#FF824C"/>
<path d="M64.5389 63.5937C65.6617 69.7663 59.8603 73.058 59.8603 73.058C68.8432 80.8389 79.3438 101.752 79.3438 101.752C82.3587 90.9029 93.1719 70.7015 93.1719 70.7015C89.429 69.3922 87.3704 61.3491 87.3704 61.3491L64.5389 63.5937Z" fill="#A46942"/>
<path d="M113.126 76.026C113.126 76.026 126.207 83.3828 128.253 88.9938C130.299 94.6048 135.197 116.28 135.197 116.28L137.367 137.997L117.669 142.649L113.126 76.026Z" fill="#D6752F"/>
<path d="M42.9459 80.4785C42.9459 80.4785 29.1101 83.0307 26.4882 91.4468C23.8664 99.8629 11.3184 154.848 11.3184 154.848C11.3184 154.848 8.13463 170.246 12.6293 175.546C17.124 180.845 24.9897 178.6 27.6115 173.738C30.2334 168.875 41.4937 133.22 41.4978 129.539C41.5016 125.858 46.3394 92.943 46.3394 92.943L42.9459 80.4785Z" fill="#D6752F"/>
<path d="M90.3715 36.429C90.3715 36.429 94.1294 33.4908 96.4083 38.8362C98.6868 44.1816 95.1878 50.9529 91.5091 52.1142" fill="#BB8059"/>
<path d="M51.7427 43.3811C51.7427 43.3811 46.4786 41.8816 46.5031 47.7386C46.5277 53.596 52.3446 59.9709 56.5625 58.7157" fill="#BB8059"/>
<path d="M51.6183 27.8516C51.6183 27.8516 56.2886 30.4845 60.6457 27.3491C60.6449 27.3446 60.6449 27.3446 60.6449 27.3446C61.1092 27.0121 61.5794 26.6874 62.0429 26.3848C63.7045 25.2857 65.3313 24.4117 66.708 24.044C66.708 24.044 67.693 24.8229 69.9183 25.2037C71.5185 24.9929 73.4305 24.5383 75.6734 23.6867C75.6734 23.6867 77.4542 22.0342 78.195 22.7963C78.8406 22.6704 84.7635 23.0561 85.4827 22.8607L89.0339 38.1496C89.1008 38.8341 90.5104 36.4847 90.6596 38.2593C91.1111 43.4652 91.526 49.802 91.5234 53.4816C91.5234 53.6778 91.5223 53.8624 91.5193 54.0261C91.3982 58.8792 84.5082 68.5477 82.0131 70.7683C80.8005 71.8468 79.0937 72.3636 77.4964 72.549C75.9346 72.9485 74.1613 73.0777 72.6429 72.5078C72.2063 72.3438 71.6404 72.1153 70.9821 71.8405C70.9776 71.8367 70.9735 71.833 70.969 71.8333C66.9133 70.1126 58.6716 64.2735 57.0841 60.415C57.0205 60.2573 56.9476 60.0835 56.8774 59.8967C56.6153 59.2159 56.3114 58.3456 55.981 57.348C54.9403 54.2279 54.9235 54.1807 52.5666 45.8057C52.339 45.0773 52.6036 45.1519 53.3726 44.9852C54.0282 44.3771 51.52 30.8942 51.6183 27.8516Z" fill="#BB8059"/>
<path d="M33.8051 168.379C33.8051 172.931 37.4913 176.62 42.0382 176.62H132.103C136.65 176.62 140.336 172.931 140.336 168.379V117.579C140.336 113.027 136.65 109.338 132.103 109.338H42.0379C37.491 109.338 33.8048 113.027 33.8048 117.579V168.379H33.8051Z" fill="#BCBCBC"/>
<path d="M7.49211 106.271C7.49211 106.271 13.5607 102.375 25.0443 105.337C25.0443 105.337 26.0269 138.554 26.9116 144.565C27.4833 148.451 34.7929 164.536 23.9438 177.341C23.9438 177.341 13.8408 182.673 8.61246 169.784C3.38414 156.895 8.70583 112.996 7.49211 106.271Z" fill="#FF824C"/>
<path d="M22.2627 105.697L22.0267 99.1813C22.0267 99.1813 16.0778 98.5752 9.72962 100.98V106.346C9.72962 106.346 15.3989 107.064 22.2627 105.697Z" fill="#A46942"/>
<path d="M113.644 221.267C113.819 221.734 114.069 222.177 114.429 222.587C115.949 224.314 118.601 224.42 120.694 224.854C124.014 225.543 127.174 226.589 129.96 228.599C132.648 230.538 134.359 231.098 137.779 230.345C141.012 229.633 143.113 229.277 146.448 229.921C149.445 230.5 152.563 230.837 155.466 230.666C162.386 230.26 167.904 226.742 170.459 220.22C171.394 217.833 172.723 213.964 171.521 211.477C170.234 208.812 166.553 207.472 163.824 207.071C160.704 206.613 157.31 207.707 154.155 207.73C151.038 207.753 147.765 207.938 144.606 207.76C137.913 207.385 133.111 207.827 126.584 206.224C124.604 205.737 120.84 202.615 118.899 203.257C116.312 204.114 116.183 206.46 115.361 208.987C114.306 212.226 115.964 207.132 115.361 208.987C114.306 212.227 112.957 219.425 113.644 221.267Z" fill="#3B3F68"/>
<path d="M103.813 201.851L118.57 205.756C118.57 205.756 122.12 214.495 115.768 220.816L97.4613 218.399V201.851H103.813Z" fill="#BB8059"/>
<path d="M110.82 199.382C110.667 200.336 107.726 219.672 103.527 222.96C103.527 222.96 15.2543 208.364 5.90344 196.575C5.90344 196.575 -2.75847 186.324 6.21838 174.348C6.21838 174.348 17.5745 166.176 36.9966 174.808C56.4188 183.439 110.82 199.382 110.82 199.382Z" fill="#52558A"/>
<path d="M58.1921 221.654C58.0184 222.118 57.768 222.558 57.4096 222.965C55.8941 224.682 53.2488 224.788 51.1627 225.219C47.8526 225.903 44.7005 226.943 41.923 228.942C39.2418 230.869 37.5362 231.426 34.1259 230.677C30.9025 229.969 28.8077 229.616 25.4812 230.256C22.4928 230.832 19.3842 231.166 16.4889 230.996C9.58799 230.593 4.08634 227.095 1.53826 220.613C0.605431 218.24 -0.720184 214.394 0.478363 211.922C1.76249 209.273 5.43326 207.941 8.15437 207.542C11.2645 207.087 14.6502 208.174 17.7962 208.197C20.9034 208.22 24.1679 208.404 27.3177 208.227C33.9914 207.854 38.7807 208.294 45.2888 206.7C47.2625 206.217 51.0158 203.113 52.9517 203.752C55.5312 204.603 55.6598 206.935 56.4801 209.447C57.5318 212.666 55.878 207.603 56.4801 209.447C57.5329 212.667 58.8776 219.823 58.1921 221.654Z" fill="#3B3F68"/>
<path d="M68.1874 202.181L53.4297 206.12C53.4297 206.12 49.8804 214.934 56.2318 221.311L74.5388 218.873V202.181H68.1874Z" fill="#BB8059"/>
<path d="M61.0162 199.712C61.1695 200.666 64.1106 220.002 68.3099 223.29C68.3099 223.29 156.582 208.694 165.933 196.905C165.933 196.905 174.595 186.654 165.618 174.678C165.618 174.678 154.262 166.506 134.84 175.138C115.418 183.769 61.0162 199.712 61.0162 199.712Z" fill="#6D72B5"/>
<path d="M20.0897 79.0555C20.3292 79.5944 20.5006 81.3479 20.9048 82.6219C21.2978 83.8638 22.7421 87.9419 22.5316 91.5038C22.532 91.5049 22.5309 91.5053 22.5312 91.5064V91.5143C22.5257 91.6025 22.5208 91.6884 22.5141 91.7751C22.2613 95.3786 23.543 100.623 20.7479 102.118C19.0229 103.039 17.0056 103.227 15.7113 103.235L15.7075 103.236C14.904 103.241 14.3815 103.176 14.3815 103.176C14.3815 103.176 10.3452 103.139 10.038 102.631C9.73311 102.121 5.19066 95.5071 5.1743 92.9288C5.1743 92.9288 2.69261 88.9487 2.80863 88.4931C2.92464 88.0372 3.17155 86.9571 4.25808 86.1465C4.25808 86.1465 3.59174 84.1015 4.44066 83.4789C5.29107 82.8555 7.45928 82.1268 7.45928 82.1268C7.45928 82.1268 6.8993 80.6808 7.69616 79.757C8.49339 78.8343 8.76 77.9874 14.5057 79.6983C14.5057 79.6983 13.5497 64.1242 14.0781 63.3218C14.6076 62.5183 15.1479 61.9256 16.2348 62.0183C17.3213 62.1113 17.8296 63.2572 17.8296 63.2572C17.8296 63.2572 19.8506 78.5162 20.0897 79.0555Z" fill="#A46942"/>
<path d="M22.5937 91.5027C22.5941 91.5039 22.5926 91.5042 22.593 91.5054L22.5926 91.5129C22.5844 91.6012 22.5762 91.6876 22.5673 91.7744C22.1985 95.3865 23.309 100.699 20.4679 102.109C18.715 102.978 16.6922 103.1 15.3992 103.066L15.3951 103.066C15.3951 103.066 9.1999 92.4018 14.733 89.7245L13.9571 87.7993C13.9571 87.7993 10.3561 87.8392 8.4452 85.2603C6.53429 82.6814 7.55594 81.3795 9.41554 81.1744C11.2751 80.9703 12.1622 81.6958 16.0342 81.6605C16.0401 81.6583 16.5004 81.5583 17.9514 83.2708C19.0842 84.6076 18.6786 84.1695 18.9585 84.6392C19.3641 85.4218 22.5911 91.1969 22.5937 91.5027Z" fill="#BB8059"/>
<path d="M91.5064 11.4383C91.8203 14.5563 87.7101 22.5387 85.7175 24.5342C84.6122 25.641 82.4159 24.7568 74.1343 26.7792C67.4829 28.4035 59.8526 35.6405 49.8451 30.5214C49.8451 30.5214 44.889 26.4054 42.6714 20.6681C40.4538 14.9309 51.2459 3.04586 63.9209 1.21051C84.5965 -1.78291 91.1926 8.32064 91.5064 11.4383Z" fill="#38302D"/>
</svg>
