<svg width="62" height="61" viewBox="0 0 62 61" fill="none" xmlns="http://www.w3.org/2000/svg">
<path d="M36.8898 29.5642L34.3401 36.365H32.5743L31.3945 33.2308V33.2305C31.3945 33.2305 32.657 34.0769 33.4573 34.7949C33.4573 34.7949 33.4578 34.7944 33.4583 34.7932C33.5014 34.6889 35.4623 29.9941 36.8898 29.5642Z" fill="#FFF"/>
<path d="M38.0997 29.3943C37.6731 29.3943 37.3086 29.7286 37.3086 30.1541C37.3086 30.5798 37.6728 30.9245 38.0997 30.9245C38.5366 30.9245 38.8906 30.5801 38.8906 30.1541C38.8903 29.7286 38.5366 29.3943 38.0997 29.3943Z" fill="#FFF"/>
<path d="M0.84908 20.2451C3.98811 11.1707 11.1759 3.98567 20.2539 0.847768V0C10.7325 3.19869 3.20103 10.7273 0.000976562 20.2451H0.84908Z" fill="#FFF"/>
<path d="M40.7734 0.847664C49.8514 3.98557 57.0393 11.1705 60.1783 20.245H61.0265C57.8265 10.7273 50.2949 3.1988 40.7734 0V0.847664Z" fill="#FFF"/>
<path d="M60.1784 40.7546C57.0393 49.8292 49.8514 57.0141 40.7734 60.1519V61C50.2949 57.8011 57.8262 50.2725 61.0265 40.7545H60.1784V40.7546Z" fill="#FFF"/>
<path d="M20.2531 60.1518C11.1751 57.014 3.98724 49.8291 0.84821 40.7545H0C3.19995 50.2725 10.7317 57.8007 20.2531 61V60.1518Z" fill="#FFF"/>
<path d="M4.7989 42.9928C0.973781 35.1273 0.973888 25.872 4.7989 18.0066L4.25281 17.4607C0.181356 25.6508 0.181356 35.3488 4.25281 43.539L4.7989 42.9928Z" fill="#FFF"/>
<path d="M18.0151 4.79716C25.8837 0.973525 35.1425 0.973525 43.0111 4.79716L43.5572 4.25118C35.3637 0.181518 25.6623 0.181305 17.4688 4.25118L18.0151 4.79716Z" fill="#FFF"/>
<path d="M56.2266 18.0067C60.0517 25.8723 60.0517 35.1275 56.2266 42.9928L56.7728 43.5388C60.8441 35.3485 60.8441 25.6507 56.7728 17.4606L56.2266 18.0067Z" fill="#FFF"/>
<path d="M43.0109 56.2024C35.1421 60.026 25.8833 60.0262 18.015 56.2024L17.4688 56.7484C25.6623 60.8183 35.3637 60.8182 43.5572 56.7486L43.0109 56.2024Z" fill="#FFF"/>
<path d="M33.4522 17.2747C33.4265 19.7546 32.077 21.9839 29.9019 23.172C27.7054 24.3718 24.9784 24.1257 22.9388 22.7336C20.8931 21.3375 19.8348 18.7823 20.165 16.3493C20.4926 13.9351 22.1909 11.8689 24.4608 11.0152C26.5149 10.2428 28.8216 10.5897 30.618 11.8158C32.4054 13.0358 33.43 15.1351 33.4522 17.2747C33.4576 17.7911 34.2591 17.7916 34.2538 17.2747C34.2294 14.9307 33.1408 12.6921 31.2483 11.2882C29.3186 9.8566 26.811 9.44382 24.517 10.1507C22.295 10.8353 20.5546 12.5904 19.7436 14.7451C18.9031 16.9779 19.2911 19.564 20.6252 21.5173C22.4663 24.2126 25.9411 25.3536 29.0397 24.3989C32.1362 23.4447 34.2204 20.4773 34.2538 17.2749C34.2591 16.7578 33.4576 16.7583 33.4522 17.2747Z" fill="#FFF"/>
<path d="M51.5495 45.5547C48.7197 42.8139 45.8898 40.0732 43.0599 37.3323C43.0807 37.4942 43.1018 37.6559 43.1226 37.8178C45.8283 33.3154 44.5376 27.4861 40.2577 24.4927C38.2754 23.1062 35.744 22.5328 33.3547 22.8586C30.6359 23.2294 28.2427 24.7064 26.6223 26.9078C23.8187 30.7169 24.3304 36.1216 27.5281 39.5095C30.8714 43.0516 36.4983 43.5036 40.4429 40.6995C40.281 40.6787 40.1192 40.6576 39.9573 40.6368C41.8026 42.4237 43.6478 44.2105 45.4932 45.9972C46.3924 46.868 47.2915 47.7387 48.1906 48.6093C48.6086 49.014 49.082 49.3528 49.6917 49.3805C51.0134 49.4403 52.0495 48.454 52.1735 47.1641C52.2308 46.5649 51.9502 45.9792 51.5495 45.5547C51.1941 45.1783 50.6284 45.7459 50.9828 46.1212C52.1143 47.3198 50.5353 49.1763 49.1341 48.3768C48.9018 48.2443 48.6962 47.9837 48.5079 47.8013C47.5684 46.8915 46.629 45.9818 45.6894 45.072C43.9676 43.4048 42.2458 41.7374 40.5239 40.0703C40.4031 39.9532 40.185 39.9033 40.0383 40.0076C37.6291 41.7201 34.5899 42.1978 31.7774 41.2854C29.5087 40.5494 27.6394 38.8622 26.5494 36.7604C25.3183 34.3863 25.2724 31.4795 26.3255 29.0357C27.4543 26.4159 29.8127 24.4967 32.5656 23.8138C35.9873 22.9652 39.6009 24.3076 41.8011 27.0072C44.197 29.9468 44.3615 34.2 42.4304 37.4134C42.339 37.5658 42.3653 37.775 42.4932 37.8988C45.3229 40.6397 48.1529 43.3804 50.9828 46.1212C51.3538 46.4807 51.9212 45.9147 51.5495 45.5547Z" fill="#FFF"/>
<path d="M37.7958 37.8348C35.3716 39.2546 32.3323 38.8644 30.3512 36.8842C28.5555 35.0892 28.1515 32.2587 29.2482 29.9948C30.4136 27.5889 33.1234 26.2613 35.7414 26.7124C38.1769 27.1321 40.0744 29.0677 40.5977 31.4524C41.1436 33.9405 39.9276 36.5145 37.7958 37.8348C37.3574 38.1063 37.7596 38.7995 38.2003 38.5267C40.6056 37.0369 41.8397 34.317 41.423 31.5249C41.0823 29.2421 39.4369 27.2339 37.3212 26.3532C34.9629 25.3716 32.2909 25.807 30.31 27.3919C28.4013 28.9192 27.5698 31.4212 27.9247 33.7991C28.2336 35.8683 29.6102 37.6844 31.4226 38.6847C33.5275 39.8464 36.1445 39.7307 38.2002 38.5267C38.6459 38.2656 38.2427 37.5731 37.7958 37.8348Z" fill="#FFF"/>
<path d="M40.7174 32.6621C40.6687 35.9148 38.1214 38.5581 34.8635 38.7002C32.3751 38.8088 30.0314 37.2452 29.0812 34.9646C28.0929 32.5928 28.7854 29.8594 30.6587 28.1448C32.629 26.3413 35.6398 26.1724 37.8837 27.5414C39.6557 28.6227 40.694 30.6098 40.7174 32.6621C40.7233 33.1783 41.5248 33.179 41.5189 32.6621C41.4918 30.2877 40.2867 28.1294 38.2882 26.8498C36.1652 25.4902 33.381 25.5187 31.2161 26.7548C29.1129 27.9556 27.8562 30.267 27.8281 32.6621C27.8004 35.0196 29.0949 37.2157 31.0586 38.4732C33.0547 39.7516 35.613 39.7917 37.7248 38.7869C40.0595 37.6761 41.4809 35.2046 41.519 32.6621C41.5266 32.1452 40.7251 32.1459 40.7174 32.6621Z" fill="#FFF"/>
<path d="M36.2808 41.9419C36.2808 42.8886 36.2808 43.8355 36.2808 44.7823C36.2808 45.9274 36.3348 47.0924 36.2145 48.2329C36.3481 48.0994 36.4817 47.9659 36.6153 47.8323C31.2949 47.8323 25.9746 47.8323 20.6543 47.8323C19.3902 47.8323 18.1259 47.8323 16.8618 47.8323C16.9954 47.9659 17.129 48.0994 17.2625 48.2329C17.1565 47.2307 17.1952 46.2124 17.1952 45.206C17.1952 43.5859 17.1952 41.9659 17.1952 40.3458C17.1952 38.7786 17.1952 37.2115 17.1952 35.6442C17.1952 34.5382 17.1591 33.4344 17.3613 32.3409C17.9308 29.2603 20.0634 26.6816 22.8937 25.3933C22.7589 25.3933 22.6241 25.3933 22.4892 25.3933C24.1744 26.2593 26.0455 26.6101 27.9291 26.3806C27.8347 26.1526 27.7402 25.9247 27.6457 25.6968C24.5341 28.8873 23.9028 33.7938 26.1279 37.6557C28.2619 41.3596 32.6439 43.1791 36.7881 42.3282C37.2942 42.2243 37.0795 41.452 36.575 41.5557C32.7881 42.3331 28.9169 40.659 26.8915 37.3713C24.7196 33.846 25.3464 29.2019 28.2124 26.2633C28.4335 26.0367 28.2952 25.5349 27.929 25.5795C26.3109 25.7766 24.6981 25.5493 23.2158 24.863C22.9661 24.7473 22.766 24.5756 22.4891 24.7015C22.2125 24.8275 21.9422 24.9632 21.676 25.1099C21.1177 25.4177 20.5996 25.7925 20.1067 26.1953C18.1638 27.783 16.8864 30.1221 16.5102 32.5915C16.353 33.6234 16.3936 34.6755 16.3936 35.7162C16.3936 37.2948 16.3936 38.8735 16.3936 40.452C16.3936 42.0367 16.3936 43.6214 16.3936 45.206C16.3936 46.2124 16.3549 47.2307 16.4609 48.2329C16.4839 48.45 16.6258 48.6335 16.8617 48.6335C22.182 48.6335 27.5023 48.6335 32.8226 48.6335C34.0869 48.6335 35.351 48.6335 36.6151 48.6335C36.8509 48.6335 36.993 48.45 37.0159 48.2329C37.1326 47.1267 37.0822 45.9981 37.0822 44.8875C37.0822 43.9057 37.0822 42.9238 37.0822 41.9421C37.0823 41.4253 36.2808 41.4253 36.2808 41.9419Z" fill="#FFF"/>
</svg>
