<svg width="62" height="62" viewBox="0 0 62 62" fill="none" xmlns="http://www.w3.org/2000/svg">
<path d="M36.8898 30.2058L34.3401 37.0066H32.5743L31.3945 33.8724V33.8721C31.3945 33.8721 32.657 34.7185 33.4573 35.4365C33.4573 35.4365 33.4578 35.436 33.4583 35.4348C33.5014 35.3305 35.4623 30.6357 36.8898 30.2058Z" fill="#555C7A"/>
<path d="M38.0997 30.0359C37.6731 30.0359 37.3086 30.3702 37.3086 30.7957C37.3086 31.2214 37.6728 31.5661 38.0997 31.5661C38.5366 31.5661 38.8906 31.2217 38.8906 30.7957C38.8903 30.3702 38.5366 30.0359 38.0997 30.0359Z" fill="#555C7A"/>
<path d="M0.84908 20.8867C3.98811 11.8123 11.1759 4.62728 20.2539 1.48937V0.641602C10.7325 3.84029 3.20103 11.3689 0.000976562 20.8867H0.84908Z" fill="#555C7A"/>
<path d="M40.7734 1.48927C49.8514 4.62717 57.0393 11.8121 60.1783 20.8866H61.0265C57.8265 11.3689 50.2949 3.8404 40.7734 0.641602V1.48927Z" fill="#555C7A"/>
<path d="M60.1784 41.3962C57.0393 50.4708 49.8514 57.6557 40.7734 60.7935V61.6416C50.2949 58.4427 57.8262 50.9141 61.0265 41.3961H60.1784V41.3962Z" fill="#555C7A"/>
<path d="M20.2531 60.7934C11.1751 57.6556 3.98724 50.4707 0.84821 41.3961H0C3.19995 50.9141 10.7317 58.4423 20.2531 61.6416V60.7934Z" fill="#555C7A"/>
<path d="M4.7989 43.6344C0.973781 35.7689 0.973888 26.5136 4.7989 18.6482L4.25281 18.1023C0.181356 26.2924 0.181356 35.9904 4.25281 44.1806L4.7989 43.6344Z" fill="#555C7A"/>
<path d="M18.0151 5.43876C25.8837 1.61513 35.1425 1.61513 43.0111 5.43876L43.5572 4.89278C35.3637 0.82312 25.6623 0.822906 17.4688 4.89278L18.0151 5.43876Z" fill="#555C7A"/>
<path d="M56.2266 18.6483C60.0517 26.5139 60.0517 35.7691 56.2266 43.6344L56.7728 44.1804C60.8441 35.9901 60.8441 26.2923 56.7728 18.1022L56.2266 18.6483Z" fill="#555C7A"/>
<path d="M43.0109 56.844C35.1421 60.6676 25.8833 60.6678 18.015 56.844L17.4688 57.39C25.6623 61.4599 35.3637 61.4598 43.5572 57.3902L43.0109 56.844Z" fill="#555C7A"/>
<path d="M33.4525 17.9163C33.4267 20.3962 32.0772 22.6255 29.9021 23.8136C27.7057 25.0134 24.9786 24.7673 22.939 23.3752C20.8934 21.9791 19.8351 19.4239 20.1653 16.9909C20.4928 14.5767 22.1912 12.5105 24.4611 11.6568C26.5152 10.8844 28.8218 11.2313 30.6183 12.4574C32.4056 13.6774 33.4303 15.7767 33.4525 17.9163C33.4578 18.4327 34.2593 18.4332 34.254 17.9163C34.2296 15.5723 33.1411 13.3337 31.2486 11.9298C29.3188 10.4982 26.8113 10.0854 24.5173 10.7923C22.2953 11.4769 20.5548 13.232 19.7438 15.3867C18.9034 17.6195 19.2913 20.2056 20.6255 22.1589C22.4666 24.8542 25.9414 25.9952 29.0399 25.0405C32.1364 24.0863 34.2207 21.1189 34.254 17.9165C34.2593 17.3994 33.4578 17.3999 33.4525 17.9163Z" fill="#555C7A"/>
<path d="M51.5497 46.1963C48.72 43.4555 45.89 40.7148 43.0601 37.9739C43.081 38.1358 43.102 38.2975 43.1229 38.4594C45.8286 33.957 44.5378 28.1277 40.258 25.1343C38.2757 23.7478 35.7443 23.1744 33.3549 23.5002C30.6361 23.871 28.2429 25.348 26.6226 27.5494C23.8189 31.3585 24.3307 36.7632 27.5284 40.1511C30.8716 43.6932 36.4986 44.1452 40.4432 41.3411C40.2813 41.3203 40.1195 41.2992 39.9576 41.2784C41.8028 43.0653 43.648 44.8521 45.4934 46.6388C46.3926 47.5096 47.2918 48.3803 48.1909 49.2509C48.6088 49.6556 49.0823 49.9944 49.6919 50.0221C51.0137 50.0819 52.0498 49.0956 52.1737 47.8057C52.231 47.2065 51.9505 46.6208 51.5497 46.1963C51.1944 45.8199 50.6286 46.3875 50.983 46.7628C52.1145 47.9614 50.5356 49.8179 49.1343 49.0184C48.9021 48.8859 48.6965 48.6253 48.5082 48.4429C47.5687 47.5331 46.6292 46.6234 45.6896 45.7136C43.9679 44.0464 42.246 42.379 40.5242 40.7119C40.4033 40.5948 40.1853 40.5449 40.0386 40.6492C37.6293 42.3617 34.5901 42.8394 31.7777 41.927C29.509 41.191 27.6396 39.5038 26.5497 37.402C25.3186 35.0279 25.2726 32.1211 26.3257 29.6773C27.4545 27.0575 29.8129 25.1383 32.5658 24.4554C35.9875 23.6068 39.6011 24.9492 41.8013 27.6488C44.1972 30.5884 44.3618 34.8416 42.4307 38.055C42.3392 38.2074 42.3655 38.4166 42.4934 38.5404C45.3232 41.2813 48.1531 44.022 50.983 46.7628C51.3541 47.1223 51.9214 46.5564 51.5497 46.1963Z" fill="#555C7A"/>
<path d="M37.796 38.4764C35.3718 39.8962 32.3325 39.506 30.3514 37.5258C28.5557 35.7308 28.1517 32.9003 29.2484 30.6364C30.4138 28.2305 33.1237 26.9029 35.7416 27.354C38.1771 27.7737 40.0747 29.7093 40.5979 32.094C41.1439 34.5821 39.9278 37.1561 37.796 38.4764C37.3577 38.7479 37.7598 39.4411 38.2005 39.1683C40.6058 37.6785 41.8399 34.9586 41.4232 32.1665C41.0825 29.8837 39.4371 27.8755 37.3214 26.9948C34.9632 26.0132 32.2912 26.4486 30.3103 28.0335C28.4015 29.5608 27.5701 32.0628 27.925 34.4407C28.2338 36.5099 29.6105 38.326 31.4229 39.3263C33.5277 40.488 36.1447 40.3723 38.2004 39.1683C38.6462 38.9072 38.243 38.2147 37.796 38.4764Z" fill="#555C7A"/>
<path d="M40.7172 33.3037C40.6684 36.5564 38.1211 39.1997 34.8633 39.3418C32.3748 39.4504 30.0311 37.8868 29.081 35.6062C28.0926 33.2344 28.7852 30.501 30.6584 28.7864C32.6288 26.9829 35.6395 26.814 37.8835 28.1831C39.6554 29.2643 40.6938 31.2514 40.7172 33.3037C40.723 33.8199 41.5246 33.8206 41.5187 33.3037C41.4915 30.9293 40.2865 28.771 38.288 27.4914C36.1649 26.1318 33.3808 26.1603 31.2159 27.3964C29.1127 28.5972 27.8559 30.9086 27.8278 33.3037C27.8001 35.6612 29.0946 37.8573 31.0583 39.1148C33.0544 40.3932 35.6127 40.4333 37.7245 39.4285C40.0593 38.3177 41.4806 35.8462 41.5188 33.3037C41.5264 32.7868 40.7249 32.7875 40.7172 33.3037Z" fill="#555C7A"/>
<path d="M36.2808 42.5835C36.2808 43.5302 36.2808 44.4771 36.2808 45.4239C36.2808 46.569 36.3348 47.734 36.2145 48.8745C36.3481 48.741 36.4817 48.6075 36.6153 48.4739C31.2949 48.4739 25.9746 48.4739 20.6543 48.4739C19.3902 48.4739 18.1259 48.4739 16.8618 48.4739C16.9954 48.6075 17.129 48.741 17.2625 48.8745C17.1565 47.8723 17.1952 46.854 17.1952 45.8476C17.1952 44.2275 17.1952 42.6075 17.1952 40.9874C17.1952 39.4202 17.1952 37.8531 17.1952 36.2858C17.1952 35.1798 17.1591 34.076 17.3613 32.9825C17.9308 29.9019 20.0634 27.3232 22.8937 26.0349C22.7589 26.0349 22.6241 26.0349 22.4892 26.0349C24.1744 26.9009 26.0455 27.2517 27.9291 27.0222C27.8347 26.7942 27.7402 26.5663 27.6457 26.3384C24.5341 29.5289 23.9028 34.4354 26.1279 38.2973C28.2619 42.0012 32.6439 43.8207 36.7881 42.9698C37.2942 42.8659 37.0795 42.0936 36.575 42.1973C32.7881 42.9748 28.9169 41.3006 26.8915 38.0129C24.7196 34.4876 25.3464 29.8435 28.2124 26.9049C28.4335 26.6783 28.2952 26.1765 27.929 26.2211C26.3109 26.4182 24.6981 26.1909 23.2158 25.5046C22.9661 25.3889 22.766 25.2172 22.4891 25.3431C22.2125 25.4691 21.9422 25.6048 21.676 25.7515C21.1177 26.0593 20.5996 26.4341 20.1067 26.8369C18.1638 28.4246 16.8864 30.7637 16.5102 33.2331C16.353 34.265 16.3936 35.3171 16.3936 36.3578C16.3936 37.9364 16.3936 39.5151 16.3936 41.0936C16.3936 42.6783 16.3936 44.263 16.3936 45.8476C16.3936 46.854 16.3549 47.8723 16.4609 48.8745C16.4839 49.0916 16.6258 49.2751 16.8617 49.2751C22.182 49.2751 27.5023 49.2751 32.8226 49.2751C34.0869 49.2751 35.351 49.2751 36.6151 49.2751C36.8509 49.2751 36.993 49.0916 37.0159 48.8745C37.1326 47.7684 37.0822 46.6397 37.0822 45.5291C37.0822 44.5473 37.0822 43.5654 37.0822 42.5837C37.0823 42.0669 36.2808 42.0669 36.2808 42.5835Z" fill="#555C7A"/>
</svg>
