<svg width="62" height="61" viewBox="0 0 62 61" fill="none" xmlns="http://www.w3.org/2000/svg">
<path d="M0.84821 20.2461C3.98723 11.1715 11.1752 3.98665 20.253 0.848746V0.000976562C10.7318 3.19977 3.20015 10.7283 0 20.2461H0.84821Z" fill="white"/>
<path d="M40.7735 0.84777C49.8515 3.98567 57.0392 11.1706 60.1783 20.2451H61.0266C57.8264 10.7273 50.2949 3.1989 40.7734 0V0.84777H40.7735Z" fill="white"/>
<path d="M60.1785 40.7545C57.0393 49.829 49.8514 57.0139 40.7734 60.1517V60.9998C50.2949 57.8009 57.8262 50.2724 61.0266 40.7544H60.1785V40.7545Z" fill="white"/>
<path d="M20.253 60.1518C11.1752 57.014 3.98723 49.8291 0.84821 40.7546H0C3.19994 50.2725 10.7318 57.8008 20.253 61V60.1518Z" fill="white"/>
<path d="M4.79852 42.9929C0.973383 35.1275 0.973383 25.8722 4.79852 18.0068L4.25241 17.4608C0.180836 25.651 0.180836 35.349 4.25241 43.5391L4.79852 42.9929Z" fill="white"/>
<path d="M18.0114 4.79737C25.88 0.973753 35.1387 0.973753 43.0073 4.79737L43.5535 4.25138C35.36 0.18164 25.6586 0.181533 17.4651 4.25138L18.0114 4.79737Z" fill="white"/>
<path d="M56.2261 18.0068C60.0512 25.8724 60.0512 35.1276 56.2261 42.993L56.7723 43.539C60.8437 35.3486 60.8437 25.6509 56.7723 17.4606L56.2261 18.0068Z" fill="white"/>
<path d="M43.0072 56.2025C35.1387 60.0261 25.8797 60.0263 18.0113 56.2025L17.4651 56.7484C25.6587 60.8183 35.36 60.8183 43.5535 56.7487L43.0072 56.2025Z" fill="white"/>
<path d="M30.6613 39.5232C30.6613 40.8432 30.6613 42.1632 30.6613 43.4831C30.6613 43.8191 30.7623 44.3139 30.5703 44.6098C30.1547 45.2503 28.9828 45.4919 28.312 45.6701C25.3772 46.45 22.1625 46.4639 19.1593 46.1723C17.8711 46.0472 16.572 45.8275 15.3456 45.4044C14.9677 45.274 13.8747 44.9173 13.8747 44.3832C13.8747 42.7631 13.8747 41.1431 13.8747 39.5231C13.6076 39.5231 13.3404 39.5231 13.0732 39.5231C13.1239 40.7035 14.6986 41.1937 15.6161 41.4712C17.7454 42.1155 20.057 42.2553 22.2679 42.2619C24.4458 42.2685 26.6855 42.0928 28.7911 41.5085C29.7351 41.2464 31.4105 40.7367 31.4626 39.523C31.4849 39.0064 30.6834 39.0086 30.6613 39.5232C30.6478 39.8372 30.2263 40.0588 29.9899 40.1928C29.4313 40.5093 28.7928 40.6859 28.1748 40.8434C26.2562 41.3319 24.2408 41.4551 22.2681 41.4609C20.3378 41.4668 18.3844 41.3174 16.5016 40.8776C15.8613 40.728 15.2196 40.5369 14.6317 40.2385C14.3747 40.1081 13.8894 39.8604 13.875 39.5233C13.8529 39.0094 13.0734 39.0047 13.0734 39.5233C13.0734 40.8433 13.0734 42.1633 13.0734 43.4833C13.0734 43.8781 12.9982 44.3822 13.1453 44.7616C13.4102 45.445 14.173 45.7913 14.8035 46.0527C15.8992 46.5073 17.1087 46.7157 18.2782 46.87C19.8702 47.0799 21.4749 47.1481 23.0798 47.1139C24.5627 47.0824 26.0481 46.943 27.5066 46.6705C28.5224 46.4806 29.5705 46.2135 30.4764 45.7004C30.9721 45.4198 31.437 44.9884 31.4629 44.3864C31.4809 43.9677 31.4629 43.5445 31.4629 43.1255C31.4629 41.9248 31.4629 40.724 31.4629 39.5232C31.4628 39.0065 30.6613 39.0065 30.6613 39.5232Z" fill="white"/>
<path d="M30.6613 39.5232C30.6613 40.8432 30.6613 42.1632 30.6613 43.4831C30.6613 43.8191 30.7623 44.3139 30.5703 44.6098C30.1547 45.2503 28.9828 45.4919 28.312 45.6701C25.3772 46.45 22.1625 46.4639 19.1593 46.1723C17.8711 46.0472 16.572 45.8275 15.3456 45.4044C14.9677 45.274 13.8747 44.9173 13.8747 44.3832C13.8747 42.7631 13.8747 41.1431 13.8747 39.5231C13.6076 39.5231 13.3404 39.5231 13.0732 39.5231C13.1239 40.7035 14.6986 41.1937 15.6161 41.4712C17.7454 42.1155 20.057 42.2553 22.2679 42.2619C24.4458 42.2685 26.6855 42.0928 28.7911 41.5085C29.7351 41.2464 31.4105 40.7367 31.4626 39.523C31.4849 39.0064 30.6834 39.0086 30.6613 39.5232C30.6478 39.8372 30.2263 40.0588 29.9899 40.1928C29.4313 40.5093 28.7928 40.6859 28.1748 40.8434C26.2562 41.3319 24.2408 41.4551 22.2681 41.4609C20.3378 41.4668 18.3844 41.3174 16.5016 40.8776C15.8613 40.728 15.2196 40.5369 14.6317 40.2385C14.3747 40.1081 13.8894 39.8604 13.875 39.5233C13.8529 39.0094 13.0734 39.0047 13.0734 39.5233C13.0734 40.8433 13.0734 42.1633 13.0734 43.4833C13.0734 43.8781 12.9982 44.3822 13.1453 44.7616C13.4102 45.445 14.173 45.7913 14.8035 46.0527C15.8992 46.5073 17.1087 46.7157 18.2782 46.87C19.8702 47.0799 21.4749 47.1481 23.0798 47.1139C24.5627 47.0824 26.0481 46.943 27.5066 46.6705C28.5224 46.4806 29.5705 46.2135 30.4764 45.7004C30.9721 45.4198 31.437 44.9884 31.4629 44.3864C31.4809 43.9677 31.4629 43.5445 31.4629 43.1255C31.4629 41.9248 31.4629 40.724 31.4629 39.5232C31.4628 39.0065 30.6613 39.0065 30.6613 39.5232Z" fill="white"/>
<path d="M30.6619 34.5675C30.6619 35.8919 30.6619 37.2163 30.6619 38.5406C30.6619 38.8637 30.7702 39.4001 30.6047 39.6952C30.2418 40.3421 29.0886 40.5944 28.4473 40.7725C25.5363 41.5804 22.3297 41.5985 19.3422 41.3282C18.0324 41.2099 16.7141 40.9959 15.4625 40.5826C15.0487 40.4459 13.9001 40.0944 13.8755 39.5232C13.805 37.8776 13.8755 36.2149 13.8755 34.5675C13.6084 34.5675 13.3412 34.5675 13.074 34.5675C13.1247 35.7475 14.6998 36.2372 15.6169 36.5145C17.6821 37.1391 19.9193 37.285 22.0641 37.3045C24.0338 37.3225 26.0179 37.165 27.9475 36.7614C29.043 36.5322 31.4035 36.0255 31.4634 34.5676C31.4847 34.0507 30.683 34.0528 30.6619 34.5675C30.6424 35.0407 29.7287 35.381 29.3341 35.5332C28.696 35.7794 28.0225 35.9313 27.3498 36.0679C25.6191 36.4196 23.8258 36.5086 22.0641 36.5032C20.154 36.4974 18.2211 36.3397 16.3621 35.8864C15.738 35.7343 15.1148 35.5403 14.547 35.2362C14.3097 35.1092 13.8889 34.8768 13.8756 34.5675C13.8536 34.0536 13.0741 34.0489 13.0741 34.5675C13.0741 35.8919 13.0741 37.2163 13.0741 38.5406C13.0741 38.9514 13.0046 39.4438 13.1253 39.8455C13.328 40.5192 14.1061 40.9008 14.7011 41.1478C17.2162 42.1916 20.1966 42.2971 22.8791 42.2564C24.3768 42.2337 25.8764 42.101 27.3511 41.8378C28.3923 41.6519 29.4572 41.387 30.3951 40.8844C30.9202 40.603 31.382 40.1913 31.4612 39.5776C31.5155 39.1551 31.4634 38.6943 31.4634 38.2697C31.4634 37.0356 31.4634 35.8016 31.4634 34.5675C31.4634 34.0508 30.6619 34.0508 30.6619 34.5675Z" fill="white"/>
<path d="M30.6613 24.8416C30.6613 26.1615 30.6613 27.4814 30.6613 28.8015C30.6613 29.193 30.7751 29.7096 30.5023 30.0049C29.7653 30.8021 28.2777 31.0242 27.2693 31.2217C24.4018 31.7837 21.3409 31.7717 18.4504 31.4109C17.26 31.2622 16.0156 31.0348 14.9096 30.5531C14.5396 30.3919 13.875 30.1111 13.875 29.6317C13.875 28.035 13.875 26.4383 13.875 24.8417C13.6078 24.8417 13.3406 24.8417 13.0734 24.8417C13.119 25.9018 14.4107 26.3842 15.2488 26.6736C17.031 27.2888 18.9905 27.465 20.8614 27.5508C23.0931 27.653 25.3575 27.5337 27.5544 27.118C28.7786 26.8864 31.3309 26.4188 31.4628 24.8417C31.506 24.3265 30.7041 24.3305 30.6613 24.8416C30.6128 25.4221 29.5407 25.7402 29.0775 25.9004C28.3524 26.1512 27.5942 26.3065 26.8395 26.4357C24.938 26.7615 22.9832 26.8217 21.0585 26.7573C19.3889 26.7013 17.7069 26.5208 16.0897 26.0909C15.5278 25.9415 14.9717 25.7521 14.4645 25.4647C14.247 25.3414 13.8871 25.1239 13.875 24.8416C13.8529 24.3276 13.0734 24.3228 13.0734 24.8416C13.0734 26.1615 13.0734 27.4814 13.0734 28.8015C13.0734 29.1963 12.9982 29.7004 13.1453 30.0799C13.4102 30.7633 14.173 31.1098 14.8035 31.3715C15.8991 31.8263 17.1086 32.0349 18.2782 32.1894C19.7755 32.3871 21.2834 32.4582 22.793 32.4393C24.1947 32.4218 25.5959 32.3027 26.9802 32.0827C28.1758 31.8928 29.4196 31.611 30.4843 31.0142C30.9772 30.7379 31.4629 30.2804 31.4629 29.6779C31.4629 29.2026 31.4629 28.7273 31.4629 28.2521C31.4629 27.1152 31.4629 25.9784 31.4629 24.8417C31.4628 24.3248 30.6613 24.3248 30.6613 24.8416Z" fill="white"/>
<path d="M30.6587 24.8417C30.6153 25.3601 29.7314 25.6569 29.3172 25.8146C28.7302 26.0382 28.1142 26.1855 27.5005 26.3133C25.9212 26.6421 24.2957 26.7511 22.6856 26.7766C21.0808 26.8021 19.4655 26.7108 17.8787 26.4658C16.7801 26.2962 15.6278 26.0638 14.6291 25.5569C14.2497 25.3644 13.6162 24.995 14.0272 24.5457C14.61 23.9088 15.702 23.6829 16.4991 23.4886C19.5203 22.7519 22.8045 22.7554 25.8771 23.1115C27.0064 23.2424 28.1408 23.4589 29.2161 23.8333C29.6061 23.9691 30.6345 24.309 30.6587 24.8417C30.6822 25.3561 31.4839 25.3584 31.4602 24.8417C31.4269 24.1131 30.7795 23.6705 30.1841 23.3738C29.1115 22.8393 27.8869 22.605 26.7128 22.423C23.6332 21.9456 20.4133 21.9771 17.3417 22.5002C16.2757 22.6817 15.194 22.9439 14.2247 23.4355C13.6691 23.7173 13.0998 24.172 13.0709 24.8417C13.0424 25.5055 13.713 25.9746 14.2247 26.2487C15.1787 26.7597 16.2864 26.9961 17.3417 27.1845C20.1372 27.6836 23.0541 27.7006 25.8696 27.3755C27.0672 27.2371 28.2694 27.0254 29.4112 26.6305C30.2581 26.3374 31.3755 25.8573 31.4605 24.8417C31.5034 24.3266 30.7016 24.3306 30.6587 24.8417Z" fill="white"/>
<path d="M30.6612 29.7046C30.6612 31.0246 30.6612 32.3445 30.6612 33.6644C30.6612 34.1271 30.7729 34.5796 30.4496 34.9198C30.0904 35.2976 29.4666 35.4927 28.992 35.6525C28.4993 35.8185 27.9773 35.9385 27.4631 36.0447C24.6454 36.6277 21.6495 36.6305 18.8007 36.3151C17.5569 36.1775 16.2967 35.947 15.1227 35.5035C14.7574 35.3654 13.8747 35.0369 13.8747 34.5406C13.8747 32.9286 13.8747 31.3165 13.8747 29.7045C13.6076 29.7045 13.3404 29.7045 13.0732 29.7045C13.1222 30.8439 14.5995 31.3323 15.4906 31.614C17.5234 32.2568 19.7415 32.4087 21.8598 32.4409C23.9043 32.472 25.966 32.3161 27.9683 31.8949C29.0665 31.6639 31.4028 31.1625 31.4626 29.7045C31.484 29.1878 30.6824 29.1898 30.6612 29.7046C30.6451 30.0983 30.0014 30.3566 29.695 30.5215C28.9744 30.9093 28.0626 31.0663 27.2692 31.2218C25.4948 31.5695 23.6647 31.6562 21.8599 31.6398C20.0169 31.623 18.155 31.4619 16.3614 31.0241C15.7373 30.8718 15.1141 30.6776 14.5463 30.3735C14.309 30.2464 13.8882 30.0138 13.875 29.7046C13.8529 29.1907 13.0734 29.1859 13.0734 29.7046C13.0734 31.0246 13.0734 32.3445 13.0734 33.6644C13.0734 34.0593 12.9982 34.5634 13.1453 34.9428C13.4102 35.6262 14.173 35.9725 14.8035 36.234C15.8992 36.6886 17.1087 36.897 18.2782 37.0513C19.8481 37.2583 21.4318 37.3299 23.0145 37.2963C24.2955 37.2691 25.5825 37.1713 26.8482 36.9653C27.9516 36.7856 29.0932 36.5607 30.1054 36.0736C30.7064 35.7843 31.4629 35.3179 31.4629 34.5645C31.4629 34.1135 31.4629 33.6627 31.4629 33.2117C31.4629 32.0427 31.4629 30.8735 31.4629 29.7045C31.4627 29.1879 30.6612 29.1879 30.6612 29.7046Z" fill="white"/>
<path d="M29.6959 30.5215C29.643 30.5461 29.5898 30.57 29.5361 30.5931C29.643 30.547 29.5581 30.5836 29.5364 30.5924C29.5037 30.6057 29.4709 30.6184 29.4379 30.631C29.509 30.8886 29.5799 31.146 29.651 31.4036C29.8023 31.3439 29.9522 31.2805 30.1004 31.2132C30.2993 31.1228 30.346 30.8388 30.2442 30.6651C30.1918 30.5755 30.1049 30.5085 30.0047 30.4809C29.8925 30.4503 29.7979 30.4751 29.6959 30.5215C29.6429 30.5456 29.5897 30.5692 29.5361 30.5922C29.6431 30.5462 29.558 30.5827 29.5364 30.5917C29.5036 30.6052 29.4709 30.6182 29.4379 30.6311C29.3365 30.6712 29.2555 30.7179 29.1984 30.8153C29.1442 30.9078 29.1296 31.0206 29.158 31.124C29.2116 31.3189 29.4469 31.4823 29.651 31.4038C29.8029 31.3455 29.9529 31.282 30.1004 31.2135C30.2984 31.1213 30.3468 30.8404 30.2442 30.6653C30.1263 30.464 29.8939 30.4292 29.6959 30.5215Z" fill="white"/>
<path d="M41.5008 28.6876C41.5008 29.1135 41.5008 29.5395 41.5008 29.9654C41.6344 29.8318 41.768 29.6983 41.9016 29.5648C41.2549 29.6162 40.6275 29.7298 40.0073 29.9214C40.1716 30.0146 40.3359 30.1079 40.5002 30.2011C40.4965 30.19 40.4929 30.1788 40.4891 30.1677C40.4228 29.9689 40.2117 29.8168 39.9961 29.8879C38.9193 30.2431 37.7926 30.5371 36.7538 30.9952C34.6812 31.9092 33.1566 33.6545 32.4082 35.7781C32.5371 35.68 32.6659 35.5821 32.7946 35.484C32.2164 35.4781 31.6391 35.4581 31.0618 35.4224C31.1954 35.5559 31.3289 35.6894 31.4625 35.823C31.4625 34.2024 31.4625 32.5819 31.4625 30.9613C31.3289 31.0948 31.1954 31.2284 31.0618 31.3619C33.5878 31.5243 36.1668 31.4207 38.6505 30.9121C39.7631 30.6843 42.2376 30.1971 42.3023 28.6876C42.3245 28.1708 41.523 28.173 41.5008 28.6876C41.4838 29.0843 40.8575 29.3506 40.5624 29.4927C39.7596 29.8793 38.8467 30.067 37.977 30.2297C35.7133 30.653 33.356 30.7081 31.0619 30.5607C30.8437 30.5467 30.6611 30.7536 30.6611 30.9613C30.6611 32.5819 30.6611 34.2024 30.6611 35.823C30.6611 36.0516 30.844 36.21 31.0619 36.2235C31.6391 36.2593 32.2165 36.2793 32.7947 36.2852C32.9822 36.2871 33.1219 36.1596 33.1812 35.9911C33.8837 33.9974 35.3823 32.3793 37.3609 31.6072C38.2901 31.2444 39.2622 30.9728 40.2092 30.6605C40.0449 30.5672 39.8806 30.474 39.7163 30.3807C39.72 30.3918 39.7237 30.403 39.7274 30.4141C39.7947 30.616 40.0034 30.7609 40.2204 30.6939C40.772 30.5235 41.3255 30.4117 41.9015 30.366C42.1192 30.3487 42.3022 30.1969 42.3022 29.9654C42.3022 29.5395 42.3022 29.1135 42.3022 28.6876C42.3024 28.171 41.5008 28.171 41.5008 28.6876Z" fill="white"/>
<path d="M41.5039 23.7322C41.5039 24.6289 41.5039 25.5255 41.5039 26.4222C41.5039 26.9823 41.5039 27.5425 41.5039 28.1026C41.5039 28.302 41.5644 28.6208 41.4761 28.8074C41.2744 29.2326 40.659 29.4652 40.2559 29.6248C39.4262 29.9533 38.5375 30.1363 37.6607 30.2856C35.492 30.655 33.2568 30.6924 31.0648 30.561C31.1984 30.6945 31.332 30.8281 31.4656 30.9616C31.4656 29.3093 31.4656 27.657 31.4656 26.0047C31.332 26.1382 31.1984 26.2717 31.0648 26.4053C33.6883 26.5648 36.3752 26.4663 38.9474 25.8912C40.0131 25.653 42.2443 25.1554 42.3054 23.7323C42.3276 23.2153 41.526 23.2175 41.5039 23.7322C41.4881 24.1005 40.9333 24.3521 40.658 24.4917C39.9256 24.8632 39.0885 25.0502 38.2895 25.2137C35.9299 25.6967 33.4618 25.7497 31.0648 25.604C30.8466 25.5907 30.6641 25.7963 30.6641 26.0046C30.6641 27.6568 30.6641 29.3092 30.6641 30.9615C30.6641 31.1898 30.8468 31.3491 31.0648 31.3621C33.3373 31.4984 35.6248 31.423 37.8738 31.0581C38.7917 30.9091 39.7093 30.6981 40.5753 30.3552C41.1233 30.1382 41.7085 29.8544 42.067 29.3677C42.2716 29.0897 42.3053 28.7937 42.3053 28.463C42.3053 27.9222 42.3053 27.3814 42.3053 26.8407C42.3053 25.8045 42.3053 24.7683 42.3053 23.732C42.3054 23.2155 41.5039 23.2155 41.5039 23.7322Z" fill="white"/>
<path d="M41.4984 18.869C41.4984 19.7323 41.4984 20.5957 41.4984 21.459C41.4984 22.0201 41.4984 22.5813 41.4984 23.1424C41.4984 23.3621 41.539 23.6313 41.4757 23.8411C41.3578 24.2329 40.6849 24.4897 40.3568 24.6258C39.597 24.9409 38.7803 25.1221 37.9744 25.2727C35.7084 25.6964 33.3549 25.7432 31.0593 25.6038C31.1929 25.7373 31.3265 25.8709 31.4601 26.0044C31.4601 25.5464 31.4976 25.0741 31.4353 24.6196C31.3625 24.09 30.7948 23.7068 30.3722 23.4702C28.6003 22.4783 26.2921 22.3002 24.3114 22.1686C24.445 22.3021 24.5786 22.4357 24.7122 22.5692C24.7122 21.3358 24.7122 20.1024 24.7122 18.869C24.445 18.869 24.1778 18.869 23.9106 18.869C23.9613 20.0489 25.5364 20.5389 26.4536 20.8165C28.5827 21.461 30.8943 21.601 33.1052 21.6078C35.2831 21.6144 37.5229 21.4383 39.6284 20.8538C40.572 20.5919 42.2479 20.0822 42.2999 18.869C42.3221 18.3521 41.5205 18.3543 41.4984 18.869C41.4849 19.1825 41.0632 19.4041 40.827 19.5378C40.2685 19.8543 39.63 20.031 39.012 20.1885C37.0934 20.6773 35.0779 20.8006 33.1053 20.8066C31.175 20.8125 29.2218 20.6627 27.3389 20.2227C26.6985 20.073 26.0569 19.8819 25.469 19.5835C25.2123 19.4532 24.7268 19.2055 24.7123 18.869C24.6902 18.355 23.9107 18.3502 23.9107 18.869C23.9107 20.1024 23.9107 21.3358 23.9107 22.5692C23.9107 22.7986 24.0936 22.9553 24.3115 22.9698C26.1264 23.0904 28.111 23.2787 29.7796 24.0655C30.0635 24.1995 30.6416 24.466 30.6588 24.8416C30.6764 25.2276 30.6588 25.618 30.6588 26.0044C30.6588 26.2328 30.8417 26.3918 31.0596 26.405C33.4883 26.5526 35.9487 26.464 38.3438 26.0162C39.5669 25.7874 41.3937 25.4482 42.1334 24.308C42.303 24.0468 42.3001 23.7517 42.3001 23.4552C42.3001 22.8946 42.3001 22.3341 42.3001 21.7736C42.3001 20.8054 42.3001 19.8372 42.3001 18.8691C42.2999 18.3523 41.4984 18.3523 41.4984 18.869Z" fill="white"/>
<path d="M41.5009 14.0061C41.5009 15.326 41.5009 16.6459 41.5009 17.966C41.5009 18.3019 41.6019 18.7969 41.41 19.0927C40.9944 19.7333 39.8226 19.9752 39.1518 20.1536C36.217 20.9341 33.0022 20.9481 29.999 20.6563C28.7107 20.5311 27.4116 20.3111 26.1852 19.8878C25.8073 19.7572 24.7145 19.4003 24.7145 18.8661C24.7145 17.2461 24.7145 15.6261 24.7145 14.0061C24.4473 14.0061 24.1801 14.0061 23.913 14.0061C23.9636 15.1864 25.5383 15.6765 26.4559 15.9541C28.5851 16.5984 30.8967 16.7381 33.1076 16.7449C35.2854 16.7515 37.5252 16.5757 39.6307 15.9914C40.5747 15.7295 42.2502 15.2197 42.3022 14.0061C42.3246 13.4892 41.5231 13.4914 41.5009 14.0061C41.4875 14.32 41.066 14.5416 40.8296 14.6755C40.271 14.9921 39.6326 15.1687 39.0146 15.3261C37.096 15.8147 35.0804 15.9377 33.1079 15.9437C31.1775 15.9495 29.2243 15.8001 27.3414 15.3603C26.701 15.2107 26.0594 15.0197 25.4715 14.7214C25.2145 14.5909 24.7293 14.3431 24.7148 14.0062C24.6928 13.4922 23.9133 13.4874 23.9133 14.0062C23.9133 15.3261 23.9133 16.646 23.9133 17.9661C23.9133 18.3609 23.8381 18.865 23.9851 19.2445C24.25 19.9279 25.0128 20.2744 25.6434 20.536C26.739 20.9908 27.9484 21.1994 29.118 21.3539C30.71 21.564 32.3147 21.6324 33.9195 21.5982C35.4025 21.5665 36.888 21.427 38.3464 21.1542C39.3623 20.9642 40.4103 20.6968 41.3162 20.1836C41.8118 19.9028 42.2768 19.4713 42.3027 18.8692C42.3206 18.4507 42.3027 18.0273 42.3027 17.6084C42.3027 16.4077 42.3027 15.207 42.3027 14.0062C42.3025 13.4893 41.5009 13.4893 41.5009 14.0061Z" fill="white"/>
<path d="M41.4987 14.0061C41.4741 14.5813 40.3254 14.9227 39.9117 15.0655C38.6678 15.495 37.3363 15.6846 36.032 15.8112C33.0361 16.102 29.8493 16.0323 26.927 15.2553C26.2462 15.0744 25.1844 14.818 24.7695 14.178C24.4666 13.7106 25.4575 13.2904 25.747 13.1579C26.8398 12.6581 28.1066 12.4567 29.2877 12.301C30.8861 12.0901 32.5064 12.041 34.1168 12.0851C35.852 12.1326 37.6033 12.3113 39.2842 12.758C39.846 12.9073 40.402 13.0965 40.9092 13.3838C41.1265 13.5069 41.4866 13.7242 41.4987 14.0061C41.5208 14.5207 42.3224 14.5229 42.3002 14.0061C42.271 13.3265 41.6992 12.8959 41.1465 12.6C40.1925 12.0892 39.0849 11.8529 38.0295 11.6645C35.0171 11.1268 31.8641 11.1392 28.8391 11.5605C27.6879 11.7207 26.5124 11.9568 25.4422 12.4229C24.838 12.6859 24.1495 13.062 23.9461 13.7373C23.454 15.3716 26.5871 16.0217 27.5628 16.2306C30.7497 16.9126 34.1555 16.901 37.3721 16.4531C38.5976 16.2825 39.835 16.0201 40.9648 15.503C41.5808 15.2211 42.2684 14.7482 42.3002 14.0061C42.3223 13.4893 41.5208 13.4914 41.4987 14.0061Z" fill="white"/>
<path d="M44.934 44.9873C42.2029 45.8489 39.3288 45.0356 37.366 42.9807C35.2589 40.7745 34.7138 37.3627 35.9354 34.5867C37.1419 31.8449 39.9563 30.1839 42.9284 30.3687C45.4733 30.5271 47.7228 32.1621 48.9209 34.3629C51.0667 38.3046 49.2323 43.5224 44.934 44.9873C44.4476 45.1531 44.6565 45.9272 45.1471 45.7599C47.4021 44.9914 49.1214 43.3206 50.0342 41.1316C50.9776 38.8698 50.7611 36.2644 49.6839 34.0949C48.6051 31.9221 46.5291 30.319 44.181 29.7544C41.5372 29.1187 38.7269 29.9814 36.8165 31.8882C34.0386 34.661 33.8028 39.175 35.8966 42.4034C37.8663 45.4403 41.6915 46.85 45.1472 45.76C45.6381 45.6051 45.4284 44.8314 44.934 44.9873Z" fill="white"/>
<path d="M44.1289 45.2034C43.4206 45.4372 42.714 45.7069 41.9954 45.9051C40.8218 46.2289 39.5776 46.2017 38.4031 45.9036C35.9853 45.2899 34.0559 43.3945 33.2185 41.0732C32.1794 38.1929 32.9933 34.9184 35.2621 32.8747C36.6023 31.6675 38.4191 31.251 40.0891 30.7002C40.1292 30.687 40.1694 30.6737 40.2096 30.6605C40.0452 30.5672 39.8809 30.474 39.7166 30.3807C39.7203 30.3918 39.7241 30.403 39.7277 30.4142C39.821 30.2499 39.9143 30.0856 40.0076 29.9214C35.6341 31.3506 33.5003 36.2296 34.9565 40.5005C36.2793 44.3807 40.318 46.7626 44.3419 45.976C44.849 45.8769 44.6337 45.1047 44.1289 45.2034C40.5617 45.9008 37.0701 43.7866 35.7836 40.4373C34.3062 36.5909 36.2363 31.996 40.2208 30.694C40.4196 30.6291 40.5722 30.4156 40.5007 30.2012C40.4969 30.1901 40.4933 30.1789 40.4896 30.1678C40.4232 29.969 40.2121 29.8169 39.9966 29.888C38.5783 30.3558 37.0586 30.7277 35.7726 31.5058C33.4666 32.9012 32.1232 35.4637 31.9742 38.1134C31.6803 43.3418 36.493 47.6925 41.6384 46.8054C42.5582 46.6469 43.4565 46.2686 44.3422 45.9762C44.8304 45.8148 44.6212 45.041 44.1289 45.2034Z" fill="white"/>
</svg>
