<svg width="62" height="62" viewBox="0 0 62 62" fill="none" xmlns="http://www.w3.org/2000/svg">
<path d="M0.84821 20.8877C3.98723 11.8131 11.1752 4.62825 20.253 1.49035V0.642578C10.7318 3.84137 3.20015 11.3699 0 20.8877H0.84821Z" fill="#555C7A"/>
<path d="M40.7735 1.48937C49.8515 4.62727 57.0392 11.8122 60.1783 20.8867H61.0266C57.8264 11.3689 50.2949 3.8405 40.7734 0.641602V1.48937H40.7735Z" fill="#555C7A"/>
<path d="M60.1785 41.3961C57.0393 50.4706 49.8514 57.6555 40.7734 60.7933V61.6414C50.2949 58.4425 57.8262 50.914 61.0266 41.396H60.1785V41.3961Z" fill="#555C7A"/>
<path d="M20.253 60.7935C11.1752 57.6557 3.98723 50.4708 0.84821 41.3962H0C3.19994 50.9142 10.7318 58.4424 20.253 61.6417V60.7935Z" fill="#555C7A"/>
<path d="M4.79852 43.6345C0.973383 35.7691 0.973383 26.5138 4.79852 18.6484L4.25241 18.1024C0.180836 26.2926 0.180836 35.9906 4.25241 44.1807L4.79852 43.6345Z" fill="#555C7A"/>
<path d="M18.0114 5.43903C25.88 1.61542 35.1387 1.61542 43.0073 5.43903L43.5535 4.89305C35.36 0.823303 25.6586 0.823196 17.4651 4.89305L18.0114 5.43903Z" fill="#555C7A"/>
<path d="M56.2261 18.6485C60.0512 26.5141 60.0512 35.7693 56.2261 43.6346L56.7723 44.1806C60.8437 35.9903 60.8437 26.2925 56.7723 18.1023L56.2261 18.6485Z" fill="#555C7A"/>
<path d="M43.0072 56.8441C35.1387 60.6677 25.8797 60.6679 18.0113 56.8441L17.4651 57.3901C25.6587 61.46 35.36 61.46 43.5535 57.3903L43.0072 56.8441Z" fill="#555C7A"/>
<path d="M30.6613 40.1648C30.6613 41.4847 30.6613 42.8047 30.6613 44.1247C30.6613 44.4607 30.7623 44.9555 30.5703 45.2514C30.1547 45.8918 28.9828 46.1334 28.312 46.3116C25.3772 47.0916 22.1625 47.1054 19.1593 46.8138C17.8711 46.6887 16.572 46.4691 15.3456 46.046C14.9677 45.9155 13.8747 45.5588 13.8747 45.0247C13.8747 43.4047 13.8747 41.7847 13.8747 40.1647C13.6076 40.1647 13.3404 40.1647 13.0732 40.1647C13.1239 41.3451 14.6986 41.8352 15.6161 42.1127C17.7454 42.757 20.057 42.8968 22.2679 42.9035C24.4458 42.9101 26.6855 42.7343 28.7911 42.15C29.7351 41.888 31.4105 41.3782 31.4626 40.1645C31.4849 39.6479 30.6834 39.6502 30.6613 40.1648C30.6478 40.4787 30.2263 40.7004 29.9899 40.8343C29.4313 41.1509 28.7928 41.3275 28.1748 41.4849C26.2562 41.9734 24.2408 42.0966 22.2681 42.1025C20.3378 42.1083 18.3844 41.9589 16.5016 41.5191C15.8613 41.3695 15.2196 41.1784 14.6317 40.8801C14.3747 40.7496 13.8894 40.5019 13.875 40.1649C13.8529 39.6509 13.0734 39.6462 13.0734 40.1649C13.0734 41.4848 13.0734 42.8049 13.0734 44.1248C13.0734 44.5196 12.9982 45.0237 13.1453 45.4032C13.4102 46.0865 14.173 46.4329 14.8035 46.6943C15.8992 47.1488 17.1087 47.3572 18.2782 47.5115C19.8702 47.7214 21.4749 47.7897 23.0798 47.7555C24.5627 47.724 26.0481 47.5846 27.5066 47.312C28.5224 47.1221 29.5705 46.8551 30.4764 46.342C30.9721 46.0613 31.437 45.63 31.4629 45.0279C31.4809 44.6093 31.4629 44.186 31.4629 43.767C31.4629 42.5663 31.4629 41.3656 31.4629 40.1648C31.4628 39.648 30.6613 39.648 30.6613 40.1648Z" fill="#555C7A"/>
<path d="M30.6613 40.1648C30.6613 41.4847 30.6613 42.8047 30.6613 44.1247C30.6613 44.4607 30.7623 44.9555 30.5703 45.2514C30.1547 45.8918 28.9828 46.1334 28.312 46.3116C25.3772 47.0916 22.1625 47.1054 19.1593 46.8138C17.8711 46.6887 16.572 46.4691 15.3456 46.046C14.9677 45.9155 13.8747 45.5588 13.8747 45.0247C13.8747 43.4047 13.8747 41.7847 13.8747 40.1647C13.6076 40.1647 13.3404 40.1647 13.0732 40.1647C13.1239 41.3451 14.6986 41.8352 15.6161 42.1127C17.7454 42.757 20.057 42.8968 22.2679 42.9035C24.4458 42.9101 26.6855 42.7343 28.7911 42.15C29.7351 41.888 31.4105 41.3782 31.4626 40.1645C31.4849 39.6479 30.6834 39.6502 30.6613 40.1648C30.6478 40.4787 30.2263 40.7004 29.9899 40.8343C29.4313 41.1509 28.7928 41.3275 28.1748 41.4849C26.2562 41.9734 24.2408 42.0966 22.2681 42.1025C20.3378 42.1083 18.3844 41.9589 16.5016 41.5191C15.8613 41.3695 15.2196 41.1784 14.6317 40.8801C14.3747 40.7496 13.8894 40.5019 13.875 40.1649C13.8529 39.6509 13.0734 39.6462 13.0734 40.1649C13.0734 41.4848 13.0734 42.8049 13.0734 44.1248C13.0734 44.5196 12.9982 45.0237 13.1453 45.4032C13.4102 46.0865 14.173 46.4329 14.8035 46.6943C15.8992 47.1488 17.1087 47.3572 18.2782 47.5115C19.8702 47.7214 21.4749 47.7897 23.0798 47.7555C24.5627 47.724 26.0481 47.5846 27.5066 47.312C28.5224 47.1221 29.5705 46.8551 30.4764 46.342C30.9721 46.0613 31.437 45.63 31.4629 45.0279C31.4809 44.6093 31.4629 44.186 31.4629 43.767C31.4629 42.5663 31.4629 41.3656 31.4629 40.1648C31.4628 39.648 30.6613 39.648 30.6613 40.1648Z" fill="#555C7A"/>
<path d="M30.6619 35.2092C30.6619 36.5335 30.6619 37.8579 30.6619 39.1823C30.6619 39.5054 30.7702 40.0418 30.6047 40.3368C30.2418 40.9838 29.0886 41.2361 28.4473 41.4142C25.5363 42.2221 22.3297 42.2402 19.3422 41.9699C18.0324 41.8515 16.7141 41.6375 15.4625 41.2242C15.0487 41.0876 13.9001 40.736 13.8755 40.1648C13.805 38.5193 13.8755 36.8566 13.8755 35.2092C13.6084 35.2092 13.3412 35.2092 13.074 35.2092C13.1247 36.3892 14.6998 36.8789 15.6169 37.1562C17.6821 37.7808 19.9193 37.9266 22.0641 37.9462C24.0338 37.9641 26.0179 37.8067 27.9475 37.4031C29.043 37.1738 31.4035 36.6672 31.4634 35.2093C31.4847 34.6924 30.683 34.6945 30.6619 35.2092C30.6424 35.6823 29.7287 36.0227 29.3341 36.1749C28.696 36.421 28.0225 36.5729 27.3498 36.7096C25.6191 37.0612 23.8258 37.1502 22.0641 37.1449C20.154 37.1391 18.2211 36.9813 16.3621 36.5281C15.738 36.3759 15.1148 36.1819 14.547 35.8778C14.3097 35.7509 13.8889 35.5185 13.8756 35.2092C13.8536 34.6953 13.0741 34.6906 13.0741 35.2092C13.0741 36.5335 13.0741 37.8579 13.0741 39.1823C13.0741 39.5931 13.0046 40.0855 13.1253 40.4871C13.328 41.1609 14.1061 41.5425 14.7011 41.7895C17.2162 42.8332 20.1966 42.9388 22.8791 42.8981C24.3768 42.8753 25.8764 42.7427 27.3511 42.4794C28.3923 42.2936 29.4572 42.0286 30.3951 41.526C30.9202 41.2446 31.382 40.8329 31.4612 40.2192C31.5155 39.7967 31.4634 39.336 31.4634 38.9113C31.4634 37.6773 31.4634 36.4432 31.4634 35.2092C31.4634 34.6925 30.6619 34.6925 30.6619 35.2092Z" fill="#555C7A"/>
<path d="M30.6613 25.4832C30.6613 26.8032 30.6613 28.1231 30.6613 29.4431C30.6613 29.8347 30.7751 30.3513 30.5023 30.6465C29.7653 31.4438 28.2777 31.6659 27.2693 31.8634C24.4018 32.4254 21.3409 32.4133 18.4504 32.0526C17.26 31.9039 16.0156 31.6764 14.9096 31.1948C14.5396 31.0336 13.875 30.7527 13.875 30.2734C13.875 28.6767 13.875 27.08 13.875 25.4833C13.6078 25.4833 13.3406 25.4833 13.0734 25.4833C13.119 26.5435 14.4107 27.0259 15.2488 27.3153C17.031 27.9305 18.9905 28.1067 20.8614 28.1924C23.0931 28.2947 25.3575 28.1753 27.5544 27.7597C28.7786 27.5281 31.3309 27.0605 31.4628 25.4833C31.506 24.9681 30.7041 24.9722 30.6613 25.4832C30.6128 26.0637 29.5407 26.3818 29.0775 26.5421C28.3524 26.7929 27.5942 26.9481 26.8395 27.0774C24.938 27.4032 22.9832 27.4633 21.0585 27.3989C19.3889 27.343 17.7069 27.1624 16.0897 26.7326C15.5278 26.5832 14.9717 26.3938 14.4645 26.1063C14.247 25.9831 13.8871 25.7656 13.875 25.4832C13.8529 24.9693 13.0734 24.9645 13.0734 25.4832C13.0734 26.8032 13.0734 28.1231 13.0734 29.4431C13.0734 29.838 12.9982 30.3421 13.1453 30.7215C13.4102 31.405 14.173 31.7514 14.8035 32.0132C15.8991 32.4679 17.1086 32.6765 18.2782 32.831C19.7755 33.0288 21.2834 33.0999 22.793 33.081C24.1947 33.0635 25.5959 32.9444 26.9802 32.7244C28.1758 32.5345 29.4196 32.2527 30.4843 31.6558C30.9772 31.3796 31.4629 30.922 31.4629 30.3195C31.4629 29.8443 31.4629 29.369 31.4629 28.8937C31.4629 27.7569 31.4629 26.6201 31.4629 25.4833C31.4628 24.9665 30.6613 24.9665 30.6613 25.4832Z" fill="#555C7A"/>
<path d="M30.6587 25.4833C30.6153 26.0017 29.7314 26.2985 29.3172 26.4562C28.7302 26.6798 28.1142 26.8271 27.5005 26.9549C25.9212 27.2837 24.2957 27.3927 22.6856 27.4182C21.0808 27.4437 19.4655 27.3524 17.8787 27.1075C16.7801 26.9378 15.6278 26.7054 14.6291 26.1985C14.2497 26.006 13.6162 25.6366 14.0272 25.1873C14.61 24.5504 15.702 24.3245 16.4991 24.1302C19.5203 23.3935 22.8045 23.397 25.8771 23.7531C27.0064 23.884 28.1408 24.1005 29.2161 24.4749C29.6061 24.6107 30.6345 24.9506 30.6587 25.4833C30.6822 25.9977 31.4839 26 31.4602 25.4833C31.4269 24.7547 30.7795 24.3121 30.1841 24.0154C29.1115 23.4809 27.8869 23.2466 26.7128 23.0646C23.6332 22.5872 20.4133 22.6187 17.3417 23.1418C16.2757 23.3233 15.194 23.5855 14.2247 24.0771C13.6691 24.3589 13.0998 24.8136 13.0709 25.4833C13.0424 26.1471 13.713 26.6162 14.2247 26.8903C15.1787 27.4013 16.2864 27.6377 17.3417 27.8261C20.1372 28.3252 23.0541 28.3422 25.8696 28.0171C27.0672 27.8787 28.2694 27.667 29.4112 27.2721C30.2581 26.979 31.3755 26.4989 31.4605 25.4833C31.5034 24.9682 30.7016 24.9722 30.6587 25.4833Z" fill="#555C7A"/>
<path d="M30.6612 30.3462C30.6612 31.6661 30.6612 32.986 30.6612 34.306C30.6612 34.7687 30.7729 35.2212 30.4496 35.5613C30.0904 35.9391 29.4666 36.1342 28.992 36.294C28.4993 36.46 27.9773 36.58 27.4631 36.6863C24.6454 37.2692 21.6495 37.272 18.8007 36.9567C17.5569 36.8191 16.2967 36.5885 15.1227 36.145C14.7574 36.007 13.8747 35.6785 13.8747 35.1822C13.8747 33.5702 13.8747 31.9581 13.8747 30.3461C13.6076 30.3461 13.3404 30.3461 13.0732 30.3461C13.1222 31.4855 14.5995 31.9739 15.4906 32.2556C17.5234 32.8983 19.7415 33.0502 21.8598 33.0824C23.9043 33.1135 25.966 32.9576 27.9683 32.5364C29.0665 32.3055 31.4028 31.804 31.4626 30.3461C31.484 29.8293 30.6824 29.8314 30.6612 30.3462C30.6451 30.7398 30.0014 30.9981 29.695 31.1631C28.9744 31.5508 28.0626 31.7079 27.2692 31.8633C25.4948 32.211 23.6647 32.2978 21.8599 32.2813C20.0169 32.2645 18.155 32.1035 16.3614 31.6657C15.7373 31.5133 15.1141 31.3191 14.5463 31.015C14.309 30.888 13.8882 30.6553 13.875 30.3462C13.8529 29.8322 13.0734 29.8274 13.0734 30.3462C13.0734 31.6661 13.0734 32.986 13.0734 34.306C13.0734 34.7008 12.9982 35.2049 13.1453 35.5844C13.4102 36.2677 14.173 36.6141 14.8035 36.8756C15.8992 37.3301 17.1087 37.5385 18.2782 37.6928C19.8481 37.8998 21.4318 37.9714 23.0145 37.9379C24.2955 37.9106 25.5825 37.8129 26.8482 37.6068C27.9516 37.4271 29.0932 37.2023 30.1054 36.7151C30.7064 36.4258 31.4629 35.9594 31.4629 35.206C31.4629 34.7551 31.4629 34.3043 31.4629 33.8533C31.4629 32.6843 31.4629 31.5151 31.4629 30.3461C31.4627 29.8295 30.6612 29.8295 30.6612 30.3462Z" fill="#555C7A"/>
<path d="M29.6959 31.1631C29.643 31.1877 29.5898 31.2116 29.5361 31.2347C29.643 31.1886 29.5581 31.2252 29.5364 31.234C29.5037 31.2473 29.4709 31.26 29.4379 31.2726C29.509 31.5302 29.5799 31.7876 29.651 32.0452C29.8023 31.9855 29.9522 31.9221 30.1004 31.8548C30.2993 31.7644 30.346 31.4804 30.2442 31.3067C30.1918 31.2171 30.1049 31.1501 30.0047 31.1225C29.8925 31.0919 29.7979 31.1167 29.6959 31.1631C29.6429 31.1872 29.5897 31.2108 29.5361 31.2338C29.6431 31.1878 29.558 31.2244 29.5364 31.2333C29.5036 31.2468 29.4709 31.2598 29.4379 31.2727C29.3365 31.3128 29.2555 31.3595 29.1984 31.4569C29.1442 31.5494 29.1296 31.6622 29.158 31.7656C29.2116 31.9605 29.4469 32.1239 29.651 32.0454C29.8029 31.9871 29.9529 31.9236 30.1004 31.8551C30.2984 31.7629 30.3468 31.482 30.2442 31.3069C30.1263 31.1056 29.8939 31.0708 29.6959 31.1631Z" fill="#555C7A"/>
<path d="M41.5008 29.3292C41.5008 29.7551 41.5008 30.1811 41.5008 30.607C41.6344 30.4734 41.768 30.3399 41.9016 30.2064C41.2549 30.2578 40.6275 30.3714 40.0073 30.563C40.1716 30.6562 40.3359 30.7495 40.5002 30.8427C40.4965 30.8316 40.4929 30.8204 40.4891 30.8093C40.4228 30.6105 40.2117 30.4584 39.9961 30.5295C38.9193 30.8847 37.7926 31.1787 36.7538 31.6368C34.6812 32.5508 33.1566 34.2961 32.4082 36.4197C32.5371 36.3216 32.6659 36.2237 32.7946 36.1256C32.2164 36.1197 31.6391 36.0997 31.0618 36.064C31.1954 36.1975 31.3289 36.331 31.4625 36.4646C31.4625 34.844 31.4625 33.2235 31.4625 31.6029C31.3289 31.7364 31.1954 31.87 31.0618 32.0035C33.5878 32.1659 36.1668 32.0623 38.6505 31.5537C39.7631 31.3259 42.2376 30.8387 42.3023 29.3292C42.3245 28.8124 41.523 28.8146 41.5008 29.3292C41.4838 29.7259 40.8575 29.9922 40.5624 30.1343C39.7596 30.5209 38.8467 30.7086 37.977 30.8713C35.7133 31.2946 33.356 31.3497 31.0619 31.2023C30.8437 31.1883 30.6611 31.3952 30.6611 31.6029C30.6611 33.2235 30.6611 34.844 30.6611 36.4646C30.6611 36.6932 30.844 36.8516 31.0619 36.8652C31.6391 36.9009 32.2165 36.9209 32.7947 36.9268C32.9822 36.9287 33.1219 36.8012 33.1812 36.6327C33.8837 34.639 35.3823 33.0209 37.3609 32.2488C38.2901 31.886 39.2622 31.6144 40.2092 31.3021C40.0449 31.2088 39.8806 31.1156 39.7163 31.0223C39.72 31.0334 39.7237 31.0446 39.7274 31.0558C39.7947 31.2577 40.0034 31.4025 40.2204 31.3355C40.772 31.1651 41.3255 31.0533 41.9015 31.0076C42.1192 30.9903 42.3022 30.8385 42.3022 30.607C42.3022 30.1811 42.3022 29.7551 42.3022 29.3292C42.3024 28.8126 41.5008 28.8126 41.5008 29.3292Z" fill="#555C7A"/>
<path d="M41.5039 24.3738C41.5039 25.2705 41.5039 26.1671 41.5039 27.0638C41.5039 27.6239 41.5039 28.1841 41.5039 28.7442C41.5039 28.9436 41.5644 29.2624 41.4761 29.449C41.2744 29.8742 40.659 30.1068 40.2559 30.2664C39.4262 30.5949 38.5375 30.7779 37.6607 30.9272C35.492 31.2966 33.2568 31.334 31.0648 31.2026C31.1984 31.3361 31.332 31.4697 31.4656 31.6032C31.4656 29.9509 31.4656 28.2986 31.4656 26.6463C31.332 26.7798 31.1984 26.9133 31.0648 27.0469C33.6883 27.2064 36.3752 27.1079 38.9474 26.5328C40.0131 26.2946 42.2443 25.797 42.3054 24.3739C42.3276 23.8569 41.526 23.8591 41.5039 24.3738C41.4881 24.7421 40.9333 24.9937 40.658 25.1333C39.9256 25.5048 39.0885 25.6918 38.2895 25.8553C35.9299 26.3383 33.4618 26.3913 31.0648 26.2456C30.8466 26.2323 30.6641 26.4379 30.6641 26.6462C30.6641 28.2984 30.6641 29.9508 30.6641 31.6031C30.6641 31.8314 30.8468 31.9907 31.0648 32.0037C33.3373 32.14 35.6248 32.0646 37.8738 31.6997C38.7917 31.5507 39.7093 31.3397 40.5753 30.9968C41.1233 30.7798 41.7085 30.496 42.067 30.0093C42.2716 29.7313 42.3053 29.4353 42.3053 29.1046C42.3053 28.5638 42.3053 28.023 42.3053 27.4823C42.3053 26.4461 42.3053 25.4099 42.3053 24.3736C42.3054 23.8571 41.5039 23.8571 41.5039 24.3738Z" fill="#555C7A"/>
<path d="M41.4984 19.5106C41.4984 20.3739 41.4984 21.2373 41.4984 22.1006C41.4984 22.6617 41.4984 23.2229 41.4984 23.784C41.4984 24.0037 41.539 24.2729 41.4757 24.4827C41.3578 24.8745 40.6849 25.1313 40.3568 25.2674C39.597 25.5826 38.7803 25.7637 37.9744 25.9144C35.7084 26.338 33.3549 26.3848 31.0593 26.2454C31.1929 26.3789 31.3265 26.5125 31.4601 26.646C31.4601 26.188 31.4976 25.7157 31.4353 25.2612C31.3625 24.7316 30.7948 24.3484 30.3722 24.1118C28.6003 23.1199 26.2921 22.9418 24.3114 22.8102C24.445 22.9437 24.5786 23.0773 24.7122 23.2108C24.7122 21.9774 24.7122 20.744 24.7122 19.5106C24.445 19.5106 24.1778 19.5106 23.9106 19.5106C23.9613 20.6905 25.5364 21.1805 26.4536 21.4581C28.5827 22.1026 30.8943 22.2426 33.1052 22.2494C35.2831 22.256 37.5229 22.0799 39.6284 21.4954C40.572 21.2335 42.2479 20.7238 42.2999 19.5106C42.3221 18.9937 41.5205 18.9959 41.4984 19.5106C41.4849 19.8241 41.0632 20.0457 40.827 20.1794C40.2685 20.4959 39.63 20.6726 39.012 20.8301C37.0934 21.3189 35.0779 21.4422 33.1053 21.4482C31.175 21.4541 29.2218 21.3043 27.3389 20.8643C26.6985 20.7146 26.0569 20.5235 25.469 20.2251C25.2123 20.0948 24.7268 19.8471 24.7123 19.5106C24.6902 18.9966 23.9107 18.9918 23.9107 19.5106C23.9107 20.744 23.9107 21.9774 23.9107 23.2108C23.9107 23.4402 24.0936 23.5969 24.3115 23.6114C26.1264 23.732 28.111 23.9203 29.7796 24.7071C30.0635 24.8411 30.6416 25.1076 30.6588 25.4832C30.6764 25.8692 30.6588 26.2596 30.6588 26.646C30.6588 26.8744 30.8417 27.0334 31.0596 27.0466C33.4883 27.1942 35.9487 27.1056 38.3438 26.6578C39.5669 26.429 41.3937 26.0898 42.1334 24.9496C42.303 24.6884 42.3001 24.3933 42.3001 24.0968C42.3001 23.5362 42.3001 22.9757 42.3001 22.4152C42.3001 21.447 42.3001 20.4788 42.3001 19.5107C42.2999 18.9939 41.4984 18.9939 41.4984 19.5106Z" fill="#555C7A"/>
<path d="M41.5009 14.6477C41.5009 15.9676 41.5009 17.2875 41.5009 18.6076C41.5009 18.9436 41.6019 19.4385 41.41 19.7343C40.9944 20.3749 39.8226 20.6168 39.1518 20.7952C36.217 21.5757 33.0022 21.5897 29.999 21.2979C28.7107 21.1727 27.4116 20.9527 26.1852 20.5294C25.8073 20.3988 24.7145 20.0419 24.7145 19.5077C24.7145 17.8877 24.7145 16.2677 24.7145 14.6477C24.4473 14.6477 24.1801 14.6477 23.913 14.6477C23.9636 15.828 25.5383 16.3181 26.4559 16.5957C28.5851 17.24 30.8967 17.3797 33.1076 17.3865C35.2854 17.3931 37.5252 17.2174 39.6307 16.633C40.5747 16.3711 42.2502 15.8613 42.3022 14.6477C42.3246 14.1308 41.5231 14.133 41.5009 14.6477C41.4875 14.9616 41.066 15.1832 40.8296 15.3171C40.271 15.6337 39.6326 15.8103 39.0146 15.9677C37.096 16.4563 35.0804 16.5793 33.1079 16.5853C31.1775 16.5911 29.2243 16.4417 27.3414 16.0019C26.701 15.8523 26.0594 15.6613 25.4715 15.363C25.2145 15.2325 24.7293 14.9847 24.7148 14.6478C24.6928 14.1338 23.9133 14.129 23.9133 14.6478C23.9133 15.9677 23.9133 17.2876 23.9133 18.6077C23.9133 19.0025 23.8381 19.5066 23.9851 19.8861C24.25 20.5695 25.0128 20.916 25.6434 21.1776C26.739 21.6324 27.9484 21.841 29.118 21.9955C30.71 22.2056 32.3147 22.274 33.9195 22.2398C35.4025 22.2081 36.888 22.0686 38.3464 21.7958C39.3623 21.6058 40.4103 21.3384 41.3162 20.8252C41.8118 20.5444 42.2768 20.1129 42.3027 19.5108C42.3206 19.0923 42.3027 18.6689 42.3027 18.25C42.3027 17.0493 42.3027 15.8486 42.3027 14.6478C42.3025 14.1309 41.5009 14.1309 41.5009 14.6477Z" fill="#555C7A"/>
<path d="M41.4987 14.6477C41.4741 15.2229 40.3254 15.5643 39.9117 15.7071C38.6678 16.1366 37.3363 16.3262 36.032 16.4528C33.0361 16.7436 29.8493 16.6739 26.927 15.8969C26.2462 15.716 25.1844 15.4596 24.7695 14.8196C24.4666 14.3522 25.4575 13.932 25.747 13.7995C26.8398 13.2997 28.1066 13.0983 29.2877 12.9426C30.8861 12.7317 32.5064 12.6826 34.1168 12.7267C35.852 12.7742 37.6033 12.9529 39.2842 13.3996C39.846 13.5489 40.402 13.7381 40.9092 14.0254C41.1265 14.1485 41.4866 14.3658 41.4987 14.6477C41.5208 15.1623 42.3224 15.1645 42.3002 14.6477C42.271 13.9681 41.6992 13.5375 41.1465 13.2416C40.1925 12.7308 39.0849 12.4945 38.0295 12.3061C35.0171 11.7684 31.8641 11.7808 28.8391 12.2021C27.6879 12.3623 26.5124 12.5984 25.4422 13.0645C24.838 13.3275 24.1495 13.7036 23.9461 14.379C23.454 16.0132 26.5871 16.6633 27.5628 16.8722C30.7497 17.5542 34.1555 17.5426 37.3721 17.0947C38.5976 16.9241 39.835 16.6617 40.9648 16.1446C41.5808 15.8627 42.2684 15.3898 42.3002 14.6477C42.3223 14.1309 41.5208 14.133 41.4987 14.6477Z" fill="#555C7A"/>
<path d="M44.934 45.629C42.2029 46.4905 39.3288 45.6773 37.366 43.6224C35.2589 41.4162 34.7138 38.0044 35.9354 35.2283C37.1419 32.4865 39.9563 30.8256 42.9284 31.0104C45.4733 31.1687 47.7228 32.8038 48.9209 35.0045C51.0667 38.9463 49.2323 44.1641 44.934 45.629C44.4476 45.7948 44.6565 46.5688 45.1471 46.4016C47.4021 45.633 49.1214 43.9623 50.0342 41.7732C50.9776 39.5115 50.7611 36.906 49.6839 34.7366C48.6051 32.5638 46.5291 30.9606 44.181 30.396C41.5372 29.7603 38.7269 30.6231 36.8165 32.5299C34.0386 35.3027 33.8028 39.8167 35.8966 43.0451C37.8663 46.0819 41.6915 47.4917 45.1472 46.4017C45.6381 46.2468 45.4284 45.473 44.934 45.629Z" fill="#555C7A"/>
<path d="M44.1289 45.845C43.4206 46.0788 42.714 46.3485 41.9954 46.5467C40.8218 46.8705 39.5776 46.8433 38.4031 46.5452C35.9853 45.9315 34.0559 44.0361 33.2185 41.7148C32.1794 38.8345 32.9933 35.56 35.2621 33.5163C36.6023 32.3091 38.4191 31.8926 40.0891 31.3418C40.1292 31.3286 40.1694 31.3153 40.2096 31.3021C40.0452 31.2088 39.8809 31.1156 39.7166 31.0223C39.7203 31.0334 39.7241 31.0446 39.7277 31.0558C39.821 30.8915 39.9143 30.7272 40.0076 30.563C35.6341 31.9922 33.5003 36.8712 34.9565 41.1421C36.2793 45.0223 40.318 47.4042 44.3419 46.6176C44.849 46.5185 44.6337 45.7463 44.1289 45.845C40.5617 46.5424 37.0701 44.4282 35.7836 41.0789C34.3062 37.2325 36.2363 32.6376 40.2208 31.3356C40.4196 31.2707 40.5722 31.0572 40.5007 30.8429C40.4969 30.8317 40.4933 30.8205 40.4896 30.8094C40.4232 30.6106 40.2121 30.4585 39.9966 30.5296C38.5783 30.9974 37.0586 31.3693 35.7726 32.1474C33.4666 33.5428 32.1232 36.1053 31.9742 38.755C31.6803 43.9834 36.493 48.3341 41.6384 47.447C42.5582 47.2885 43.4565 46.9102 44.3422 46.6178C44.8304 46.4564 44.6212 45.6826 44.1289 45.845Z" fill="#555C7A"/>
</svg>
