<svg width="16" height="15" viewBox="0 0 16 15" fill="none" xmlns="http://www.w3.org/2000/svg">
<g opacity="0.8">
<path d="M4.34817 6.41314C6.11911 6.41314 7.55474 4.97751 7.55474 3.20657C7.55474 1.43563 6.11911 0 4.34817 0C2.57723 0 1.1416 1.43563 1.1416 3.20657C1.1416 4.97751 2.57723 6.41314 4.34817 6.41314Z" fill="#555C7A"/>
<path d="M11.0767 8.0562C12.8476 8.0562 14.2833 6.62057 14.2833 4.84963C14.2833 3.0787 12.8476 1.64307 11.0767 1.64307C9.30575 1.64307 7.87012 3.0787 7.87012 4.84963C7.87012 6.62057 9.30575 8.0562 11.0767 8.0562Z" fill="#555C7A"/>
<path d="M13.5771 7.69615C13.4809 7.78135 13.3807 7.86241 13.2763 7.93822C12.4718 8.52201 11.4675 8.73271 10.4914 8.5934C9.7723 8.49075 9.11329 8.16418 8.58201 7.69373C7.46991 8.61402 6.73047 10.2446 6.73047 12.1029V15.0001H15.4258V12.1029C15.4257 10.2462 14.6876 8.61687 13.5771 7.69615Z" fill="#555C7A"/>
<path d="M6.1418 12.1955C6.1418 10.4772 6.68865 8.65286 7.96924 7.45341C7.66872 6.89521 7.28715 6.41818 6.84666 6.05296C6.75042 6.13817 6.65024 6.21922 6.54579 6.29504C5.74141 6.87882 4.73705 7.08952 3.76097 6.95021C3.04183 6.84756 2.38282 6.52099 1.85154 6.05054C0.739442 6.97083 0 8.60138 0 10.4597V13.3569H6.1418C6.1418 12.9698 6.1418 12.5826 6.1418 12.1955Z" fill="#555C7A"/>
</g>
</svg>
