<svg width="62" height="62" viewBox="0 0 62 62" fill="none" xmlns="http://www.w3.org/2000/svg">
<path d="M49.7056 10.5931C49.2544 10.407 48.791 10.7917 48.3946 10.9645C47.8199 11.2151 47.2252 11.4237 46.6358 11.6367C44.9021 12.2631 43.1535 12.848 41.4091 13.4434C39.9623 13.9374 38.5028 14.4121 37.0832 14.9808C36.2537 15.3129 35.639 15.8913 34.9484 16.4509C33.5034 17.6218 32.0652 18.802 30.6477 20.0066C29.7317 20.7852 28.673 21.5577 27.9484 22.5293C27.8472 22.6651 27.6442 22.9194 27.4651 23.1445C27.1464 23.5447 26.8256 23.9432 26.5044 24.3415C25.5641 25.5081 24.6195 26.6715 23.6745 27.8343C20.4498 31.8024 17.1532 35.7188 13.9786 39.7272C12.4746 41.6261 10.9707 43.5252 9.4667 45.4243C9.17057 45.7979 9.69626 46.3308 9.9957 45.9529C12.5986 42.666 15.2105 39.3923 17.8618 36.1448C20.0855 33.4212 22.308 30.6965 24.5248 27.9673C25.8955 26.2799 27.3377 24.6245 28.6221 22.869C28.8181 22.6011 29.3191 22.1634 29.6438 21.8702C30.288 21.2881 30.9499 20.7255 31.6133 20.1656C32.9981 18.9966 34.4014 17.8494 35.8105 16.71C36.0231 16.5381 36.236 16.3664 36.4494 16.1951C36.5221 16.1366 36.5948 16.0783 36.6676 16.02C36.7109 15.9852 36.7659 15.9448 36.7773 15.9356C37.0863 15.73 37.4867 15.6189 37.8289 15.4903C39.4017 14.8988 40.9994 14.3719 42.5896 13.8298C44.2595 13.2605 45.9333 12.6992 47.5864 12.082C48.0874 11.8951 48.5933 11.7072 49.0739 11.472C49.2121 11.4043 49.3478 11.2689 49.507 11.3143C49.7995 11.3978 49.9132 11.9771 49.9432 12.2178C50.1724 14.0528 48.2645 14.6735 46.932 15.2902C45.1432 16.1181 43.328 16.8921 41.5084 17.6496C41.0452 17.8424 40.5813 18.0334 40.1158 18.2202C39.8386 18.3313 39.5998 18.4077 39.3941 18.6288C38.172 19.9427 37.0438 21.3506 36.0062 22.8138C35.9984 22.8249 35.9938 22.8359 35.9872 22.8469C35.0923 22.776 34.1591 22.7428 33.2879 22.5235C32.3794 22.2947 31.5019 22.0511 30.5678 21.9269C30.0907 21.8635 30.0969 22.6121 30.5678 22.6747C30.4061 22.6532 30.7773 22.706 30.8279 22.7138C31.0618 22.7497 31.2952 22.7909 31.528 22.8344C32.0454 22.931 32.5385 23.0729 33.0391 23.2306C33.7882 23.4665 34.6511 23.4756 35.4271 23.5454C37.2887 23.7129 39.4489 23.7866 41.1554 24.1199C41.8354 24.2527 42.3726 24.6629 42.6731 25.2879C42.9374 25.8373 42.887 26.5567 42.9168 27.1603C43.0011 28.8646 43.1553 30.6166 43.0209 32.3209C43.0207 32.3231 43.0208 32.3241 43.0206 32.3261C43.0025 32.3641 42.9843 32.4023 42.9663 32.4403C42.8707 32.6411 42.7757 32.8421 42.6805 33.043C42.3714 33.6957 42.064 34.3494 41.7587 35.0039C41.6629 35.2098 41.5676 35.4156 41.4721 35.6217C41.3548 35.6957 41.3163 35.8088 41.3338 35.9207C41.2049 36.2015 41.0772 36.4827 40.9519 36.765C40.8842 36.918 40.8178 37.0717 40.7552 37.2269C40.5808 37.3261 40.3709 37.3986 40.1886 37.3221C40.9422 35.9439 41.6514 34.5336 42.268 33.0885C43.0108 31.3476 43.7424 28.9904 41.6613 27.8888C40.9607 27.518 40.1277 27.3597 39.3668 27.1643C38.2893 26.8875 37.2077 26.6262 36.1294 26.3516C35.1846 26.1111 34.2353 25.8709 33.3109 25.5592C32.167 25.1736 31.0293 25.0098 29.8215 25.0303C29.5423 25.035 29.2613 25.0486 28.9836 25.0795C28.5095 25.1322 28.5045 25.8806 28.9836 25.8272C29.7789 25.7387 30.5933 25.7606 31.387 25.8477C32.4283 25.9622 33.4161 26.3949 34.4211 26.6742C36.3952 27.2228 38.403 27.6452 40.3728 28.208C41.1655 28.4344 41.9844 28.7504 42.2451 29.611C42.5453 30.6022 42.0085 31.7782 41.6332 32.6838C41.2311 33.6542 40.7733 34.6062 40.2893 35.543C40.2979 35.4603 40.3072 35.3776 40.315 35.2948C40.4105 34.2892 40.1135 33.2383 39.4769 32.454C39.369 32.321 39.2431 32.2266 39.1072 32.1492C39.4923 31.9802 39.8521 31.7492 40.1174 31.444C40.4321 31.0819 39.9055 30.5507 39.5885 30.9153C39.221 31.3381 38.6437 31.5674 38.1069 31.6912C38.0936 31.6942 38.0827 31.6996 38.0705 31.7035C36.4187 31.0181 34.7703 30.3136 33.1687 29.5185C32.8081 29.3396 32.4506 29.1532 32.1055 28.9458C31.7895 28.7561 31.5281 28.4947 31.1797 28.3599C30.3162 28.0256 29.2714 28.1252 28.3979 28.3894C27.9374 28.5287 28.1339 29.2505 28.5968 29.1104C29.2383 28.9164 29.957 28.8314 30.6166 28.9647C31.198 29.0822 31.7559 29.6222 32.2827 29.9034C33.7434 30.6829 35.2814 31.3277 36.8037 31.9749C37.3592 32.2112 37.9163 32.444 38.4746 32.6741C38.5879 32.7207 38.7012 32.767 38.8144 32.8138C38.6945 32.7643 38.852 32.8757 38.9018 32.9293C39.0171 33.0531 39.1041 33.2006 39.1878 33.3466C39.8085 34.4274 39.51 35.6552 39.3673 36.8162C39.2774 37.5468 39.2055 38.2828 39.17 39.0186C38.6983 39.5809 38.187 40.0785 37.6244 40.5526C37.2658 40.8546 36.9036 41.1537 36.5264 41.4325C36.2779 41.6162 36.1979 41.7181 35.9783 41.6579C35.0983 41.4173 35.1579 40.4894 35.4968 39.827C35.6823 39.4644 35.9643 39.1433 36.2429 38.8299C36.556 39.311 36.9912 39.7033 37.5586 39.9196C38.0102 40.0918 38.2035 39.3688 37.7575 39.1985C37.8564 39.2364 37.6854 39.1607 37.6276 39.1287C37.4462 39.028 37.2888 38.8994 37.14 38.7556C36.6673 38.2992 36.4538 37.6738 36.3929 37.0353C36.8308 37.0752 37.3455 37.0351 37.6938 36.7916C38.0858 36.5173 37.7126 35.8686 37.3164 36.1459C37.1089 36.2909 36.656 36.3128 36.3298 36.2805C35.2901 36.1778 34.4277 35.3174 33.7958 34.5669C33.4849 34.1974 32.9585 34.7293 33.2669 35.0956C33.2798 35.1108 33.2931 35.1257 33.306 35.1411C32.8663 35.3201 32.375 35.4027 31.91 35.4366C31.7341 35.4493 31.6067 35.5432 31.5494 35.7109C30.801 37.8962 29.8528 40.1462 28.4791 42.0138C28.1003 42.5289 27.6154 42.9825 27.0823 43.3736C26.9843 43.386 26.89 43.4386 26.8241 43.5482C26.8217 43.552 26.8193 43.5561 26.8168 43.56C26.3763 43.8581 25.9108 44.1161 25.4488 44.3321C23.7574 45.1222 21.8235 44.8314 20.0901 44.3546C19.6243 44.2265 19.4267 44.948 19.8913 45.0757C21.7017 45.5737 23.6374 45.8333 25.4334 45.1446C25.625 45.0711 25.8176 44.9874 26.0095 44.8965C24.7461 46.988 23.4825 49.0792 22.2191 51.1706C21.9691 51.5846 22.6162 51.9602 22.8652 51.5481C24.3642 49.0665 25.8636 46.5846 27.3627 44.1031C27.6166 43.9229 27.8605 43.7303 28.0899 43.5267C28.1063 43.5271 28.122 43.5288 28.1397 43.5271C30.4878 43.3185 32.7128 42.1187 34.4962 40.4971C34.4305 40.9792 34.5513 41.4622 34.9901 41.9156C35.3664 42.3042 36.0235 42.5874 36.5348 42.3231C37.3224 41.9163 38.0177 41.2016 38.6856 40.628C39.1513 40.228 39.8839 39.6265 39.9195 38.9747C39.9369 38.6554 39.9642 38.3374 39.9968 38.0203C40.5407 38.1855 41.2367 38.0561 41.4438 37.5045C41.6124 37.0555 41.8201 36.6175 42.0279 36.1821C42.9208 35.7872 43.8274 35.4176 44.7492 35.0959C45.2785 34.9111 45.7472 34.7585 46.1254 34.3208C46.4883 33.9007 46.6326 33.3615 46.6956 32.8227C46.8129 31.82 46.5095 30.7706 45.5552 30.3192C45.0232 30.0676 44.3984 29.9573 43.7986 29.9342C43.7695 28.9303 43.7032 27.9252 43.6532 26.9305C43.6203 26.2815 43.6227 25.6236 43.3635 25.0149C43.0541 24.2882 42.4763 23.7884 41.7468 23.51C41.1893 23.2973 40.519 23.2718 39.9362 23.2035C38.91 23.083 37.8796 23 36.8495 22.9163C37.6435 21.8173 38.4941 20.7614 39.3913 19.7447C39.5957 19.5132 39.8031 19.2844 40.0144 19.0592C40.1346 19.0126 40.2542 18.9646 40.3738 18.9167C42.0146 18.2591 43.6406 17.5631 45.2599 16.8543C46.6665 16.2385 48.2093 15.6774 49.4946 14.8235C50.2987 14.2894 50.708 13.3766 50.7046 12.4283C50.7021 11.7088 50.4122 10.8846 49.7056 10.5931ZM32.1837 36.1601C32.7533 36.0999 33.3312 35.9722 33.8426 35.718C34.3594 36.2214 34.9537 36.6482 35.6338 36.8748C35.6535 37.2256 35.7153 37.5802 35.8214 37.9208C34.2521 40.0795 31.6687 42.1285 28.9113 42.6683C30.4154 40.8114 31.401 38.4148 32.1837 36.1601ZM45.0681 30.9236C45.9749 31.2304 46.0716 32.2628 45.9017 33.0917C45.6649 34.2468 44.4829 34.3831 43.5432 34.7484C43.1953 34.8836 42.849 35.0238 42.5044 35.1682C42.7884 34.56 43.0741 33.9524 43.3614 33.3455C43.5593 32.9275 43.7555 32.59 43.7818 32.124C43.8085 31.6462 43.8158 31.1662 43.8127 30.6853C44.2393 30.7091 44.6642 30.787 45.0681 30.9236Z" fill="#555C7A"/>
<path d="M0.84908 20.8867C3.98811 11.8122 11.1759 4.62728 20.2539 1.48937V0.641602C10.7325 3.8404 3.20103 11.369 0.000976562 20.8867H0.84908Z" fill="#555C7A"/>
<path d="M40.7734 1.48927C49.8514 4.62717 57.0393 11.8121 60.1783 20.8866H61.0265C57.8264 11.369 50.2949 3.8404 40.7734 0.641602V1.48927Z" fill="#555C7A"/>
<path d="M60.1784 41.3961C57.0393 50.4707 49.8514 57.6556 40.7734 60.7934V61.6415C50.2949 58.4425 57.8262 50.914 61.0265 41.396H60.1784V41.3961Z" fill="#555C7A"/>
<path d="M20.2531 60.7934C11.1751 57.6556 3.98724 50.4707 0.848211 41.3961H0C3.19995 50.9141 10.7317 58.4423 20.2531 61.6416V60.7934Z" fill="#555C7A"/>
<path d="M4.7989 43.6345C0.973781 35.769 0.973888 26.5137 4.7989 18.6483L4.25281 18.1023C0.181355 26.2925 0.181355 35.9905 4.25281 44.1807L4.7989 43.6345Z" fill="#555C7A"/>
<path d="M18.0151 5.4388C25.8837 1.61517 35.1425 1.61517 43.0111 5.4388L43.5572 4.89281C35.3637 0.823056 25.6623 0.82295 17.4688 4.89281L18.0151 5.4388Z" fill="#555C7A"/>
<path d="M56.2266 18.6483C60.0517 26.5139 60.0517 35.7691 56.2266 43.6344L56.7728 44.1804C60.8441 35.9901 60.8441 26.2923 56.7728 18.1021L56.2266 18.6483Z" fill="#555C7A"/>
<path d="M43.0109 56.844C35.1421 60.6676 25.8833 60.6678 18.015 56.844L17.4688 57.39C25.6623 61.4598 35.3637 61.4598 43.5572 57.3902L43.0109 56.844Z" fill="#555C7A"/>
</svg>
