<svg width="62" height="61" viewBox="0 0 62 61" fill="none" xmlns="http://www.w3.org/2000/svg">
<path d="M49.7056 9.95149C49.2544 9.7654 48.791 10.1501 48.3946 10.3229C47.8199 10.5735 47.2252 10.7821 46.6358 10.9951C44.9021 11.6215 43.1535 12.2064 41.4091 12.8018C39.9623 13.2958 38.5028 13.7705 37.0832 14.3392C36.2537 14.6713 35.639 15.2497 34.9484 15.8093C33.5034 16.9802 32.0652 18.1604 30.6477 19.365C29.7317 20.1436 28.673 20.9161 27.9484 21.8877C27.8472 22.0235 27.6442 22.2778 27.4651 22.5029C27.1464 22.9031 26.8256 23.3016 26.5044 23.6999C25.5641 24.8665 24.6195 26.0299 23.6745 27.1927C20.4498 31.1608 17.1532 35.0772 13.9786 39.0856C12.4746 40.9845 10.9707 42.8836 9.4667 44.7827C9.17057 45.1563 9.69626 45.6892 9.9957 45.3113C12.5986 42.0244 15.2105 38.7507 17.8618 35.5032C20.0855 32.7796 22.308 30.0549 24.5248 27.3257C25.8955 25.6383 27.3377 23.9829 28.6221 22.2274C28.8181 21.9595 29.3191 21.5218 29.6438 21.2286C30.288 20.6465 30.9499 20.0839 31.6133 19.524C32.9981 18.355 34.4014 17.2078 35.8105 16.0684C36.0231 15.8965 36.236 15.7248 36.4494 15.5534C36.5221 15.495 36.5948 15.4367 36.6676 15.3784C36.7109 15.3436 36.7659 15.3032 36.7773 15.294C37.0863 15.0884 37.4867 14.9773 37.8289 14.8487C39.4017 14.2572 40.9994 13.7302 42.5896 13.1882C44.2595 12.6189 45.9333 12.0576 47.5864 11.4404C48.0874 11.2535 48.5933 11.0656 49.0739 10.8303C49.2121 10.7627 49.3478 10.6273 49.507 10.6727C49.7995 10.7562 49.9132 11.3355 49.9432 11.5762C50.1724 13.4112 48.2645 14.0319 46.932 14.6486C45.1432 15.4765 43.328 16.2505 41.5084 17.008C41.0452 17.2008 40.5813 17.3918 40.1158 17.5785C39.8386 17.6896 39.5998 17.7661 39.3941 17.9872C38.172 19.3011 37.0438 20.709 36.0062 22.1722C35.9984 22.1833 35.9938 22.1943 35.9872 22.2053C35.0923 22.1344 34.1591 22.1012 33.2879 21.8819C32.3794 21.6531 31.5019 21.4095 30.5678 21.2853C30.0907 21.2219 30.0969 21.9705 30.5678 22.0331C30.4061 22.0116 30.7773 22.0644 30.8279 22.0722C31.0618 22.1081 31.2952 22.1493 31.528 22.1928C32.0454 22.2894 32.5385 22.4313 33.0391 22.589C33.7882 22.8249 34.6511 22.834 35.4271 22.9038C37.2887 23.0713 39.4489 23.145 41.1554 23.4783C41.8354 23.6111 42.3726 24.0213 42.6731 24.6463C42.9374 25.1957 42.887 25.9151 42.9168 26.5187C43.0011 28.223 43.1553 29.975 43.0209 31.6793C43.0207 31.6815 43.0208 31.6825 43.0206 31.6845C43.0025 31.7225 42.9843 31.7607 42.9663 31.7987C42.8707 31.9995 42.7757 32.2005 42.6805 32.4014C42.3714 33.0541 42.064 33.7078 41.7587 34.3623C41.6629 34.5682 41.5676 34.774 41.4721 34.9801C41.3548 35.0541 41.3163 35.1672 41.3338 35.2791C41.2049 35.5599 41.0772 35.8411 40.9519 36.1234C40.8842 36.2764 40.8178 36.4301 40.7552 36.5853C40.5808 36.6845 40.3709 36.757 40.1886 36.6805C40.9422 35.3023 41.6514 33.892 42.268 32.4469C43.0108 30.706 43.7424 28.3488 41.6613 27.2472C40.9607 26.8764 40.1277 26.7181 39.3668 26.5227C38.2893 26.2459 37.2077 25.9846 36.1294 25.71C35.1846 25.4695 34.2353 25.2293 33.3109 24.9176C32.167 24.532 31.0293 24.3682 29.8215 24.3887C29.5423 24.3934 29.2613 24.407 28.9836 24.4378C28.5095 24.4906 28.5045 25.239 28.9836 25.1856C29.7789 25.0971 30.5933 25.119 31.387 25.2061C32.4283 25.3206 33.4161 25.7533 34.4211 26.0325C36.3952 26.5812 38.403 27.0036 40.3728 27.5664C41.1655 27.7928 41.9844 28.1088 42.2451 28.9694C42.5453 29.9606 42.0085 31.1366 41.6332 32.0422C41.2311 33.0126 40.7733 33.9646 40.2893 34.9014C40.2979 34.8187 40.3072 34.736 40.315 34.6532C40.4105 33.6476 40.1135 32.5967 39.4769 31.8124C39.369 31.6794 39.2431 31.585 39.1072 31.5076C39.4923 31.3386 39.8521 31.1076 40.1174 30.8024C40.4321 30.4403 39.9055 29.9091 39.5885 30.2736C39.221 30.6965 38.6437 30.9258 38.1069 31.0496C38.0936 31.0526 38.0827 31.058 38.0705 31.0619C36.4187 30.3765 34.7703 29.672 33.1687 28.8769C32.8081 28.698 32.4506 28.5116 32.1055 28.3042C31.7895 28.1145 31.5281 27.8531 31.1797 27.7183C30.3162 27.384 29.2714 27.4836 28.3979 27.7477C27.9374 27.8871 28.1339 28.6089 28.5968 28.4688C29.2383 28.2748 29.957 28.1898 30.6166 28.3231C31.198 28.4406 31.7559 28.9806 32.2827 29.2618C33.7434 30.0413 35.2814 30.6861 36.8037 31.3333C37.3592 31.5696 37.9163 31.8024 38.4746 32.0325C38.5879 32.0791 38.7012 32.1254 38.8144 32.1722C38.6945 32.1227 38.852 32.2341 38.9018 32.2877C39.0171 32.4115 39.1041 32.559 39.1878 32.705C39.8085 33.7858 39.51 35.0136 39.3673 36.1746C39.2774 36.9052 39.2055 37.6412 39.17 38.377C38.6983 38.9393 38.187 39.4369 37.6244 39.911C37.2658 40.213 36.9036 40.5121 36.5264 40.7909C36.2779 40.9746 36.1979 41.0765 35.9783 41.0163C35.0983 40.7757 35.1579 39.8478 35.4968 39.1854C35.6823 38.8228 35.9643 38.5017 36.2429 38.1883C36.556 38.6694 36.9912 39.0617 37.5586 39.278C38.0102 39.4502 38.2035 38.7272 37.7575 38.5569C37.8564 38.5948 37.6854 38.5191 37.6276 38.4871C37.4462 38.3864 37.2888 38.2578 37.14 38.114C36.6673 37.6576 36.4538 37.0322 36.3929 36.3937C36.8308 36.4336 37.3455 36.3935 37.6938 36.15C38.0858 35.8757 37.7126 35.227 37.3164 35.5043C37.1089 35.6493 36.656 35.6712 36.3298 35.6389C35.2901 35.5362 34.4277 34.6758 33.7958 33.9253C33.4849 33.5558 32.9585 34.0877 33.2669 34.454C33.2798 34.4692 33.2931 34.4841 33.306 34.4995C32.8663 34.6785 32.375 34.7611 31.91 34.795C31.7341 34.8077 31.6067 34.9016 31.5494 35.0693C30.801 37.2546 29.8528 39.5046 28.4791 41.3722C28.1003 41.8873 27.6154 42.3409 27.0823 42.732C26.9843 42.7444 26.89 42.797 26.8241 42.9066C26.8217 42.9104 26.8193 42.9145 26.8168 42.9184C26.3763 43.2165 25.9108 43.4745 25.4488 43.6905C23.7574 44.4805 21.8235 44.1898 20.0901 43.713C19.6243 43.5849 19.4267 44.3064 19.8913 44.4341C21.7017 44.9321 23.6374 45.1917 25.4334 44.503C25.625 44.4295 25.8176 44.3458 26.0095 44.2549C24.7461 46.3464 23.4825 48.4376 22.2191 50.529C21.9691 50.943 22.6162 51.3186 22.8652 50.9065C24.3642 48.4249 25.8636 45.943 27.3627 43.4615C27.6166 43.2813 27.8605 43.0887 28.0899 42.8851C28.1063 42.8855 28.122 42.8872 28.1397 42.8855C30.4878 42.6769 32.7128 41.4771 34.4962 39.8555C34.4305 40.3376 34.5513 40.8206 34.9901 41.274C35.3664 41.6626 36.0235 41.9458 36.5348 41.6815C37.3224 41.2747 38.0177 40.56 38.6856 39.9864C39.1513 39.5864 39.8839 38.9849 39.9195 38.3331C39.9369 38.0138 39.9642 37.6958 39.9968 37.3786C40.5407 37.5439 41.2367 37.4145 41.4438 36.8629C41.6124 36.4139 41.8201 35.9759 42.0279 35.5405C42.9208 35.1456 43.8274 34.776 44.7492 34.4543C45.2785 34.2695 45.7472 34.1169 46.1254 33.6792C46.4883 33.2591 46.6326 32.7199 46.6956 32.1811C46.8129 31.1784 46.5095 30.129 45.5552 29.6776C45.0232 29.426 44.3984 29.3157 43.7986 29.2926C43.7695 28.2887 43.7032 27.2836 43.6532 26.2889C43.6203 25.6399 43.6227 24.982 43.3635 24.3733C43.0541 23.6466 42.4763 23.1468 41.7468 22.8684C41.1893 22.6557 40.519 22.6302 39.9362 22.5619C38.91 22.4414 37.8796 22.3584 36.8495 22.2747C37.6435 21.1757 38.4941 20.1198 39.3913 19.1031C39.5957 18.8716 39.8031 18.6428 40.0144 18.4176C40.1346 18.371 40.2542 18.323 40.3738 18.2751C42.0146 17.6175 43.6406 16.9215 45.2599 16.2127C46.6665 15.5969 48.2093 15.0358 49.4946 14.1819C50.2987 13.6478 50.708 12.735 50.7046 11.7867C50.7021 11.0672 50.4122 10.243 49.7056 9.95149ZM32.1837 35.5185C32.7533 35.4583 33.3312 35.3306 33.8426 35.0764C34.3594 35.5798 34.9537 36.0066 35.6338 36.2332C35.6535 36.584 35.7153 36.9386 35.8214 37.2792C34.2521 39.4379 31.6687 41.4869 28.9113 42.0266C30.4154 40.1698 31.401 37.7732 32.1837 35.5185ZM45.0681 30.282C45.9749 30.5888 46.0716 31.6212 45.9017 32.4501C45.6649 33.6052 44.4829 33.7415 43.5432 34.1068C43.1953 34.242 42.849 34.3822 42.5044 34.5266C42.7884 33.9184 43.0741 33.3108 43.3614 32.7039C43.5593 32.2859 43.7555 31.9484 43.7818 31.4824C43.8085 31.0046 43.8158 30.5246 43.8127 30.0437C44.2393 30.0675 44.6642 30.1454 45.0681 30.282Z" fill="white"/>
<path d="M0.84908 20.2451C3.98811 11.1706 11.1759 3.98568 20.2539 0.847771V0C10.7325 3.1988 3.20103 10.7274 0.000976562 20.2451H0.84908Z" fill="white"/>
<path d="M40.7734 0.847664C49.8514 3.98557 57.0393 11.1705 60.1783 20.245H61.0265C57.8264 10.7274 50.2949 3.1988 40.7734 0V0.847664Z" fill="white"/>
<path d="M60.1784 40.7545C57.0393 49.8291 49.8514 57.014 40.7734 60.1518V60.9999C50.2949 57.8009 57.8262 50.2724 61.0265 40.7544H60.1784V40.7545Z" fill="white"/>
<path d="M20.2531 60.1518C11.1751 57.014 3.98724 49.8291 0.848211 40.7545H0C3.19995 50.2725 10.7317 57.8007 20.2531 61V60.1518Z" fill="white"/>
<path d="M4.7989 42.9929C0.973781 35.1274 0.973888 25.8721 4.7989 18.0067L4.25281 17.4607C0.181355 25.6509 0.181355 35.3489 4.25281 43.5391L4.7989 42.9929Z" fill="white"/>
<path d="M18.0151 4.79719C25.8837 0.97357 35.1425 0.97357 43.0111 4.79719L43.5572 4.25121C35.3637 0.181455 25.6623 0.181348 17.4688 4.25121L18.0151 4.79719Z" fill="white"/>
<path d="M56.2266 18.0066C60.0517 25.8723 60.0517 35.1275 56.2266 42.9928L56.7728 43.5388C60.8441 35.3485 60.8441 25.6507 56.7728 17.4604L56.2266 18.0066Z" fill="white"/>
<path d="M43.0109 56.2024C35.1421 60.026 25.8833 60.0262 18.015 56.2024L17.4688 56.7484C25.6623 60.8182 35.3637 60.8182 43.5572 56.7486L43.0109 56.2024Z" fill="white"/>
</svg>
