<svg width="31" height="31" viewBox="0 0 31 31" fill="none" xmlns="http://www.w3.org/2000/svg">
<path fill-rule="evenodd" clip-rule="evenodd" d="M30.5353 7.99536C30.5283 6.80008 30.3816 5.61961 29.862 4.4999C29.4797 3.67658 28.9655 2.97478 28.3081 2.37121C27.5295 1.65607 26.5973 1.22208 25.5848 0.95872C24.699 0.728385 23.7916 0.672071 22.8845 0.670166C18.0019 0.662121 13.1194 0.655982 8.23704 0.676306C6.79406 0.68181 5.36526 0.816666 4.04909 1.51127C2.60781 2.27214 1.61872 3.41958 1.05051 4.93136C0.625406 6.0644 0.555967 7.25778 0.552156 8.44714C0.541571 12.9814 0.550462 17.514 0.548768 22.0466C0.546863 22.8805 0.562741 23.713 0.644882 24.5416C0.805778 26.1897 1.40046 27.6382 2.6112 28.7973C2.91647 29.09 3.23636 29.3725 3.62039 29.5617C3.80606 29.6989 4.00421 29.8082 4.21147 29.9062C5.44211 30.4953 6.75807 30.6437 8.09414 30.6493C11.1319 30.6617 14.1675 30.6509 17.2055 30.6509C18.4969 30.6548 19.7879 30.6634 21.0793 30.6617C22.2187 30.6601 23.3595 30.6833 24.4989 30.5671C25.9383 30.4244 27.2189 29.9064 28.3047 28.9599C29.1852 28.1937 29.7871 27.2294 30.1478 26.1183C30.4978 25.0454 30.5389 23.9289 30.5425 22.8183C30.555 17.8782 30.5583 12.9368 30.5353 7.99536ZM26.4902 20.1246C26.4456 21.0161 26.3437 21.9001 26.0204 22.741C25.2079 24.8519 23.6417 26.0432 21.4485 26.4575C20.8862 26.5646 20.3199 26.6146 19.7447 26.6201C19.2232 26.6254 18.7018 26.6432 18.1804 26.7073C17.9625 26.7346 17.7373 26.6756 17.5142 26.6756C15.7318 26.6717 13.948 26.6916 12.1654 26.6665C11.1581 26.654 10.1494 26.6271 9.16346 26.3775C8.42588 26.1897 7.72217 25.9164 7.10971 25.4665C6.51673 25.0323 6.00779 24.5039 5.61486 23.8753C5.01108 22.9091 4.71829 21.8411 4.64695 20.718C4.46827 17.9211 4.54681 15.119 4.5629 12.3205C4.56692 11.5971 4.59339 10.8722 4.68823 10.1507C4.79345 9.37377 4.96324 8.60063 5.33457 7.91661C6.12571 6.46685 7.32057 5.48031 8.93334 5.03192C9.62773 4.84011 10.3369 4.74718 11.0529 4.71944C13.6264 4.61592 16.2001 4.64894 18.7753 4.67753C19.8558 4.68917 20.9431 4.70357 21.9989 4.99275C24.4634 5.67127 25.8744 7.30393 26.3456 9.78808C26.5135 10.6758 26.5171 11.5776 26.5351 12.4776C26.5565 13.542 26.5404 14.6099 26.5404 15.6762C26.5455 17.1588 26.5654 18.6426 26.4902 20.1246Z" fill="white"/>
<path fill-rule="evenodd" clip-rule="evenodd" d="M24.5348 12.2422C24.5259 11.551 24.5026 10.86 24.3917 10.174C24.1186 8.49183 23.0635 7.27368 21.3933 6.89473C20.7523 6.74992 20.0968 6.73045 19.4503 6.70271C17.386 6.61168 15.3178 6.65889 13.2516 6.66164C12.2104 6.66334 11.1656 6.65889 10.1353 6.81598C8.44588 7.07172 7.29399 7.97379 6.81893 9.6524C6.57081 10.5274 6.5742 11.4328 6.55832 12.3277C6.51725 14.528 6.51873 16.7282 6.55451 18.9282C6.56869 19.8085 6.57081 20.6926 6.79013 21.5568C7.17417 23.0785 8.1279 24.0303 9.65132 24.4144C10.4816 24.6216 11.3354 24.6322 12.1835 24.6468C14.409 24.6807 16.6323 24.6858 18.8573 24.6593C19.5824 24.6502 20.3092 24.6394 21.0254 24.513C22.6684 24.2219 23.8023 23.3357 24.274 21.6946C24.415 21.2034 24.4668 20.6981 24.4973 20.1892C24.5795 18.682 24.549 17.1745 24.5384 15.6674C24.5386 14.5246 24.549 13.3833 24.5348 12.2422ZM21.188 15.9316C21.0506 18.9769 18.5127 21.3842 15.4196 21.3144C12.1266 21.2375 9.81751 18.4642 9.89246 15.5355C9.9746 12.4334 12.4803 9.94561 15.6894 10.0136C18.6968 10.0758 21.3381 12.6029 21.188 15.9316ZM21.3683 11.1153C20.638 11.0956 20.0738 10.4795 20.0951 9.72416C20.0721 9.1062 20.7093 8.43658 21.4668 8.46516C22.19 8.49374 22.7614 9.10091 22.7455 9.83129C22.7294 10.5634 22.1148 11.1348 21.3683 11.1153Z" fill="white"/>
<path fill-rule="evenodd" clip-rule="evenodd" d="M15.5696 12.0063C13.5283 11.9991 11.8908 13.6244 11.8855 15.6565C11.8838 17.6942 13.5127 19.3175 15.5484 19.3283C17.5575 19.3374 19.2236 17.655 19.2077 15.6764C19.2094 13.6474 17.5897 12.0135 15.5696 12.0063Z" fill="white"/>
</svg>
