<svg width="228" height="175" viewBox="0 0 228 175" fill="none" xmlns="http://www.w3.org/2000/svg">
<path d="M115.567 131.001L128.281 137.669L129.14 134.96C129.59 132.732 129.027 130.378 128.179 128.348C127.74 127.284 127.218 126.308 126.738 125.497C126.738 125.497 126.724 125.497 126.724 125.482C126.089 124.773 125.328 124.034 124.592 123.383L118.75 128.221L118.327 128.575L115.567 131.001Z" fill="#F4D398"/>
<path d="M8.63252 164.347C8.44911 164.554 4.04989 169.643 8.63812 173.455C13.2066 177.244 22.0755 168.854 22.5312 168.42C21.6861 168.901 20.927 169.399 20.2738 169.902C20.2738 169.902 18.1687 171.222 15.5628 168.38C12.2049 164.706 15.0084 160.588 14.9703 160.288C14.887 160.334 14.8023 160.381 14.7191 160.434C14.7134 160.441 14.7135 160.441 14.7064 160.441C12.2712 162.539 10.2593 163.722 8.63252 164.347Z" fill="#384087"/>
<path d="M8.63366 164.346C10.2604 163.725 12.2723 162.543 14.7131 160.435C14.3392 160.529 5.73006 162.756 9.68055 153.321C13.0399 145.311 20.9253 143.25 25.5234 142.296C21.0171 142.275 17.9243 141.478 6.15186 149.936C-5.6206 158.395 3.1241 164.149 3.1241 164.149C3.1241 164.149 4.77488 165.822 8.63366 164.346Z" fill="#4E57A6"/>
<path d="M9.674 153.321C5.72349 162.75 14.3384 160.529 14.7067 160.435C14.7137 160.435 14.7137 160.435 14.7193 160.428C14.8872 160.282 14.9635 160.236 14.9705 160.282C28.7775 152.32 36.457 153.321 36.457 153.321C33.6987 150.936 34.5509 143.626 34.96 140.981C34.8457 140.981 31.32 140.987 27.8407 141.82C27.2481 141.963 26.4481 142.111 25.5127 142.301C20.9188 143.255 13.0333 145.311 9.674 153.321Z" fill="#F4D398"/>
<path d="M14.972 160.288C15.0101 160.586 12.2066 164.706 15.5645 168.38C18.169 171.222 20.2755 169.902 20.2755 169.902C20.9287 169.4 21.6878 168.901 22.533 168.42C22.5471 168.404 22.5527 168.399 22.5527 168.399C28.2075 165.117 37.1582 162.339 37.1582 162.339C37.1582 162.339 35.9491 158.158 36.7195 153.468C36.6122 153.428 36.5233 153.377 36.4612 153.32C36.4556 153.322 28.779 152.32 14.972 160.288Z" fill="#E8C895"/>
<path d="M34.9628 140.982C34.5536 143.626 33.6986 150.943 36.4597 153.322C36.5218 153.376 36.6065 153.427 36.718 153.469C42.5464 156.161 114.426 153.739 118.579 153.322C130.92 151.747 130.223 149.264 130.223 149.264C132.898 144.954 132.282 140.718 130.223 136.955V136.948C127.062 131.78 78.3152 135.738 51.8836 138.283C41.9297 139.247 35.142 140.008 35.142 140.008C35.142 140.008 35.0559 140.372 34.9628 140.982Z" fill="#4E57A6"/>
<path d="M36.7133 153.472C35.9387 158.165 37.1535 162.343 37.1535 162.343C44.1134 161.443 100.189 163.474 111.846 162.343C123.516 161.219 118.576 153.327 118.576 153.327C114.422 153.741 42.5431 156.163 36.7133 153.472Z" fill="#384087"/>
<path d="M73.9403 104.38C46.6903 108.178 51.1741 134.823 51.8739 138.283C78.3028 135.738 127.052 131.78 130.211 136.948C128.26 133.384 125.008 130.252 122.052 127.882C113.129 125.148 101.131 121.326 99.0556 119.937C95.6906 117.677 94.3447 115.202 94.3447 115.202L92.3313 107.684C86.2673 104.943 79.7814 103.263 73.9403 104.38Z" fill="#384087"/>
<path d="M73.9404 104.38C79.7814 103.263 86.2673 104.942 92.3369 107.69L87.5456 89.8208C82.8473 100.131 73.9404 104.38 73.9404 104.38Z" fill="#3ECE89"/>
<path d="M95.6341 49.7002C75.8901 49.591 79.32 73.4782 79.32 73.4782L83.2507 73.803H83.2945L99.0541 74.1549L105.005 109.903L117.754 120.532L131.135 99.8679C133.852 98.6223 135.723 95.9338 137 92.6721C140.366 84.1058 139.661 71.6721 139.661 71.6721C142.86 70.6024 144.989 68.9226 146.287 67.5847C147.458 66.3859 147.958 65.4524 147.958 65.4524C143.899 55.1141 138.582 51.2835 134.613 49.9357C131.551 48.9015 129.292 49.3285 129.014 49.391C129.007 49.391 129.007 49.391 129 49.391C128.749 49.5853 128.497 49.7669 128.231 49.9428C128.346 50.4621 134.623 79.5815 124.182 80.9208C113.739 82.2558 99.3321 50.4706 99.0584 49.9428C99.0513 49.9357 99.0513 49.9357 99.0513 49.9357C97.8394 49.7811 96.7036 49.7059 95.6341 49.7002Z" fill="#3ECE89"/>
<path d="M83.256 73.7974L87.5451 89.8319L92.3407 107.694L94.3442 115.213C94.3442 115.213 95.6986 117.696 99.0565 119.952C100.709 121.058 110.373 125.201 118.753 128.223C120.911 129.003 122.971 129.712 124.805 130.28C125.609 131.046 127.586 130.706 128.179 128.35C127.74 127.286 127.218 126.31 126.738 125.499C126.738 125.499 126.724 125.499 126.724 125.485C126.089 124.775 125.327 124.036 124.592 123.385C123.167 122.122 121.868 121.159 121.868 121.159L105.009 109.907L99.0537 74.1549L83.2941 73.8172L83.256 73.7974Z" fill="#F4D398"/>
<path d="M95.6405 49.2536L95.6349 49.7005C96.7043 49.7061 97.8401 49.7813 99.0619 49.9359C99.0619 49.9359 99.0619 49.936 99.069 49.943C99.3653 50.0182 105.29 54.1921 105.29 54.1921L110.277 53.1863L109.603 31.1066C102.816 14.6224 114.764 5.1353 114.764 5.1353C119.336 1.18272 123.6 -0.11542 127.408 0.0534092C125.41 -0.153726 109.047 -0.94113 100.689 24.7578C100.689 24.7578 97.9967 44.8214 95.6405 49.2536Z" fill="#F3B454"/>
<path d="M106.461 49.9362C106.461 49.9362 99.3642 50.0185 99.0679 49.9433C99.3345 50.471 113.741 82.2562 124.189 80.9212C134.631 79.5819 128.354 50.4639 128.239 49.9433C126.98 50.8144 125.634 51.6088 124.189 52.2785V52.2856L122.83 55.831C122.83 55.831 110.732 58.3861 106.461 53.1907L106.555 49.9419L106.461 49.9362Z" fill="#F4D398"/>
<path d="M127.59 0.0661454C127.558 0.0661454 127.497 0.06051 127.408 0.0534163C123.6 -0.115413 119.337 1.18273 114.764 5.13531C114.764 5.13531 100.316 14.6224 107.096 31.1066C107.478 32.0458 107.948 33.0247 108.477 34.0079C108.477 34.0079 108.254 31.3024 108.477 29.2722C108.477 29.2722 105.338 23.1815 106.454 20.9215C107.578 18.6671 111.835 16.8611 112.961 20.9215C112.961 20.9215 112.063 23.1816 112.961 23.8526C112.961 23.8526 114.084 25.2075 116.326 21.8238C116.326 21.8238 122.16 10.0895 128.66 16.1787C128.66 16.1787 137.259 29.4353 142.138 31.4669C143.141 31.8855 143.991 31.8344 144.572 31.0952C144.752 30.8569 144.913 30.5462 145.042 30.1617C147.505 22.7176 147.731 12.7908 142.793 8.28489C139.656 5.41764 134.339 0.450621 127.59 0.0661454Z" fill="#F3B454"/>
<path d="M129.005 49.3954C129.012 49.3954 129.012 49.3954 129.019 49.3954C138.273 42.5401 142.128 31.5208 142.128 31.5208L142.147 31.474C137.269 29.4367 128.669 16.1858 128.669 16.1858C122.172 10.0966 116.335 21.8309 116.335 21.8309C114.093 25.216 112.97 23.8625 112.97 23.8625C112.073 23.1829 112.97 20.9286 112.97 20.9286C111.846 16.8682 107.589 18.6742 106.463 20.9286C105.347 23.1886 108.486 29.2792 108.486 29.2792C108.265 31.3122 108.486 34.0149 108.486 34.0149C111.403 45.9692 116.335 50.4779 116.335 50.4779C119.48 54.3141 122.614 52.9621 122.614 52.9621C123.151 52.7521 123.676 52.5237 124.185 52.2868V52.2797C125.632 51.61 126.978 50.8226 128.236 49.9444C128.501 49.7671 128.754 49.5855 129.005 49.3954Z" fill="#F4D398"/>
<path d="M106.462 53.1846C110.726 58.3772 122.831 55.8249 122.831 55.8249L124.19 52.2795C123.681 52.5164 123.156 52.7391 122.618 52.9548C122.618 52.9548 119.48 54.3068 116.34 50.4706C116.34 50.4706 111.407 45.9533 108.491 34.0076C107.959 33.0244 108.873 34.9482 108.491 34.0076L106.462 53.1846Z" fill="#E8C895"/>
<path d="M129.017 49.3955C129.291 49.3302 131.554 48.8975 134.616 49.9374C142.428 44.5519 144.501 31.5819 144.58 31.108C144 31.8472 143.149 31.9011 142.146 31.4798L142.126 31.5266C142.126 31.5252 138.269 42.5402 129.017 49.3955Z" fill="#C7892C"/>
<path d="M139.668 71.6682C142.86 70.5985 144.997 68.9187 146.295 67.5808L148.676 104.454C148.676 104.454 162.168 127.922 164.02 131.644C164.02 131.644 172.022 132.786 173.7 134.423C173.7 134.423 175.046 134.796 173.7 135.81C173.7 135.81 174.902 135.969 174.301 136.952L173.364 137.594C173.364 137.594 174.732 138.021 174.469 138.61C174.469 138.61 175.136 139.198 172.939 139.037C172.939 139.037 173.791 139.457 173.532 139.876C173.278 140.302 172.523 140.133 171.262 139.876C169.999 139.625 163.441 138.441 163.441 138.441C163.441 138.441 164.616 140.728 166.469 141.23C166.469 141.23 167.897 142.332 166.051 142.582C166.051 142.582 158.809 139.151 157.381 136.952L143.81 114.332L141.898 111.151L139.292 106.807C139.292 106.807 138.282 105.702 137.948 104.008C137.612 102.321 137.004 92.6711 137.004 92.6711C140.37 84.1005 139.665 71.6724 139.668 71.6682Z" fill="#E8C895"/>
<path d="M125.481 51.6328C125.481 51.6328 127.604 63.604 121.255 64.4907C114.906 65.3774 105.735 59.3677 104.148 49.9587L102.736 49.9687C102.736 49.9687 104.412 65.9989 121.432 66.1762C121.432 66.1762 130.125 63.9289 126.751 50.9093L125.481 51.6328Z" fill="#FFE014"/>
<path d="M117.65 67.0434C117.383 64.6593 118.501 62.576 120.147 62.3902C121.792 62.2043 123.342 63.9864 123.608 66.3705C123.874 68.7546 122.756 70.8379 121.111 71.0237C119.466 71.2095 117.916 69.4275 117.65 67.0434Z" fill="#FFE014"/>
<path d="M118.093 67.0205C117.878 65.0948 118.78 63.4122 120.108 63.2622C121.436 63.1123 122.687 64.5518 122.902 66.4775C123.117 68.4032 122.215 70.0858 120.887 70.2358C119.559 70.3857 118.308 68.9462 118.093 67.0205Z" fill="#3ECE89"/>
<path d="M200.264 161.31L200.661 162.602L200.809 163.099L189.061 163.253L146.917 163.799C146.917 163.799 144.633 162.93 144.746 161.31H200.264Z" fill="#939495"/>
<path d="M218.512 128.178L224.479 115.178V114.178L217.02 115.178L204.589 117.178L200.612 118.178L196.634 126.678L191.164 137.678L186.689 147.178L195.142 154.678L200.114 158.678L201.606 157.178L210.556 141.678L218.512 128.178Z" fill="white" stroke="white"/>
<path d="M184.759 148.09L199.837 117.647C199.837 117.647 200.868 116.058 201.812 115.844L225.573 111.843C225.573 111.843 225.823 111.888 226.068 112.122C226.403 112.447 226.731 113.127 226.339 114.55C225.672 116.991 199.706 161.676 199.706 161.676L184.657 148.309L184.759 148.09ZM199.61 157.909C199.61 157.909 222.006 119.497 222.569 117.421C223.136 115.349 221.92 115.119 221.92 115.119L201.85 118.271C201.05 118.461 200.167 119.802 200.167 119.802L186.859 146.69L199.61 157.909Z" fill="#BCBCBC"/>
<path d="M226.062 112.119L226.267 112.021C226.57 112.186 228.108 113.112 227.825 115.022C227.535 117.021 203.15 158.985 200.812 163.098C200.655 163.066 200.599 162.829 200.435 162.809L199.7 161.674C199.7 161.674 225.666 116.987 226.333 114.548C226.728 113.125 226.397 112.445 226.062 112.119Z" fill="#939495"/>
<path d="M144.748 161.31L146.595 152.257L146.599 152.26L147.389 148.433C147.858 147.488 149.271 147.555 149.271 147.555L181.215 147.661L185.273 147.555L185.435 147.703L185.273 147.886L199.708 161.677L144.748 161.31Z" fill="#BCBCBC"/>
</svg>
