<svg width="31" height="31" viewBox="0 0 31 31" fill="none" xmlns="http://www.w3.org/2000/svg">
<path fill-rule="evenodd" clip-rule="evenodd" d="M0.547562 15.594C0.547562 11.2854 0.546719 6.97684 0.547982 2.66807C0.548403 1.21982 1.10392 0.663762 2.55342 0.66355C11.1682 0.66228 19.7829 0.66228 28.3976 0.66355C29.8032 0.663762 30.378 1.22723 30.3787 2.63039C30.3824 11.3385 30.3824 20.0462 30.3784 28.7544C30.3778 30.0587 29.7756 30.6592 28.4696 30.6596C19.7871 30.6634 11.1046 30.6638 2.42228 30.6594C1.12939 30.6586 0.549668 30.0521 0.548615 28.7237C0.545458 24.3474 0.547562 19.9705 0.547562 15.594ZM16.8652 27.5478C16.8786 27.2924 16.8976 27.0936 16.898 26.895C16.8995 24.4911 16.8902 22.0869 16.9041 19.683C16.9075 19.1189 16.9342 18.5446 17.0443 17.9939C17.2266 17.0831 17.588 16.2647 18.5304 15.87C20.5317 15.0318 22.2274 16.0681 22.2925 18.2623C22.3756 21.0722 22.3611 23.8847 22.3881 26.6963C22.3908 26.9613 22.3885 27.2263 22.3885 27.5265C24.0594 27.5265 25.6472 27.5265 27.2209 27.5265C27.2559 27.4517 27.2904 27.4126 27.29 27.3734C27.2496 23.68 27.3232 19.9802 27.1281 16.2948C26.958 13.085 24.9122 11.3184 21.7121 11.2577C19.6995 11.2194 18.033 11.9365 16.7258 13.8117C16.7258 12.9635 16.7258 12.3277 16.7258 11.6929C15.1106 11.6929 13.5877 11.6929 12.0641 11.6929C12.0641 17.0003 12.0641 22.2671 12.0641 27.5483C13.6737 27.5478 15.2272 27.5478 16.8652 27.5478ZM4.04314 27.5059C5.6541 27.5059 7.2558 27.5059 8.8676 27.5059C8.8676 22.2186 8.8676 16.9561 8.8676 11.7041C7.22969 11.7041 5.6442 11.7041 4.04314 11.7041C4.04314 16.9874 4.04314 22.2182 4.04314 27.5059ZM9.31007 6.63965C9.30733 5.06969 8.05065 3.78294 6.50157 3.76431C4.93418 3.74526 3.61729 5.06524 3.62256 6.65023C3.62782 8.23183 4.87209 9.48598 6.44579 9.49593C8.0757 9.50609 9.31281 8.27247 9.31007 6.63965Z" fill="white"/>
</svg>
