<svg width="230" height="41" viewBox="0 0 230 41" fill="none" xmlns="http://www.w3.org/2000/svg">
<path d="M19.7793 30.8526C19.7766 30.8596 19.7738 30.8624 19.7738 30.8624L9.23256 0.971542H0L7.92661 21.9228V21.9242L14.7029 39.8345H24.8461L39.4912 0.971542C31.2918 3.42794 20.0287 30.2568 19.7793 30.8526Z" fill="#555C7A"/>
<path d="M46.3909 0C43.953 0 41.8701 1.91064 41.8701 4.34199C41.8701 6.77473 43.9516 8.74416 46.3909 8.74416C48.8878 8.74416 50.9103 6.77613 50.9103 4.34199C50.9088 1.91064 48.8878 0 46.3909 0Z" fill="#FF824C"/>
<path d="M49.9583 11.6587H42.8213V39.8344H49.9583V11.6587Z" fill="#555C7A"/>
<path d="M75.4409 11.6587L68.2483 31.2586L61.053 11.6587H53.2876L64.3642 39.8344H72.1862L83.2628 11.6587H75.4409Z" fill="#555C7A"/>
<path d="M98.2855 11.173C93.9269 11.173 89.5682 12.5759 86.1842 15.6162L88.9374 20.585C91.2887 18.3641 94.0419 17.2536 97.0239 17.2536C100.694 17.2536 103.104 19.1227 103.104 21.9879V25.7868C101.269 23.5659 97.9986 22.3382 94.3289 22.3382C89.912 22.3382 84.6938 24.8516 84.6938 31.4549C84.6938 37.7686 89.9134 40.8061 94.3289 40.8061C97.9403 40.8061 101.211 39.4625 103.104 37.1837V40.1039H110.387V21.8692C110.387 13.7457 104.593 11.173 98.2855 11.173ZM103.104 33.324C101.9 34.96 99.6053 35.7794 97.2541 35.7794C94.3857 35.7794 92.0331 34.2578 92.0331 31.6286C92.0331 28.8822 94.3844 27.3621 97.2541 27.3621C99.6039 27.3621 101.9 28.1801 103.104 29.8175V33.324Z" fill="#555C7A"/>
<path d="M39.4886 0.971542L24.9186 39.8345H14.8275L8.08594 21.9242V21.9228C8.08594 21.9228 15.3003 26.7595 19.8737 30.8624C19.8737 30.8624 19.8765 30.8596 19.8792 30.8526C20.1259 30.2568 31.3312 3.42794 39.4886 0.971542Z" fill="#45B649"/>
<path d="M115.534 34.8176L119.336 29.3729C121.655 31.8433 125.259 33.9101 129.802 33.9101C133.653 33.9101 135.528 32.0952 135.528 30.18C135.528 24.2314 116.573 28.3159 116.573 15.6609C116.573 10.0646 121.31 5.42494 129.062 5.42494C134.292 5.42494 138.637 7.03909 141.896 10.1138L137.997 15.3597C135.331 12.8381 131.775 11.6787 128.42 11.6787C125.409 11.6787 123.731 13.0389 123.731 15.0545C123.731 20.3988 142.638 16.8182 142.638 29.3729C142.638 35.5243 138.342 40.1619 129.459 40.1619C123.137 40.1599 118.596 37.9947 115.534 34.8176Z" fill="#555C7A"/>
<path d="M162.67 39.5576L156.352 30.1799L153.49 33.3058V39.5576H147.22V5.93085H153.49V26.0462L162.523 15.2061H170.223L160.796 26.247L170.522 39.5576H162.67Z" fill="#555C7A"/>
<path d="M172.99 13.1308C172.99 11.0127 174.717 9.34941 176.742 9.34941C178.814 9.34941 180.493 11.0127 180.493 13.1308C180.493 15.2468 178.814 16.9613 176.742 16.9613C174.717 16.9634 172.99 15.2488 172.99 13.1308ZM173.632 39.5572V18.7819H179.901V39.5572H173.632Z" fill="#555C7A"/>
<path d="M186.114 39.5576V5.93085H192.383V39.5576H186.114Z" fill="#555C7A"/>
<path d="M198.601 39.5576V5.93085H204.87V39.5576H198.601Z" fill="#555C7A"/>
<path d="M209.019 36.3802L211.734 31.8942C213.463 33.5595 217.017 35.2228 219.977 35.2228C222.693 35.2228 223.977 34.1126 223.977 32.6009C223.977 28.5675 209.811 31.845 209.811 22.2646C209.811 18.1821 213.315 14.6015 219.584 14.6015C223.632 14.6015 226.841 16.0128 229.209 17.9301L226.692 22.3178C225.26 20.7529 222.547 19.4931 219.632 19.4931C217.362 19.4931 215.882 20.5521 215.882 21.9143C215.882 25.5441 230 22.5186 230 32.351C230 36.7878 226.295 40.1636 219.681 40.1636C215.535 40.1595 211.536 38.7502 209.019 36.3802Z" fill="#555C7A"/>
</svg>
