<svg width="116" height="72" viewBox="0 0 116 72" fill="none" xmlns="http://www.w3.org/2000/svg">
<path d="M24.3057 67.4151L27.0333 63.5958C28.6964 65.3287 31.2816 66.7786 34.5401 66.7786C37.3023 66.7786 38.6474 65.5054 38.6474 64.1619C38.6474 59.9891 25.0509 62.8543 25.0509 53.977C25.0509 50.0513 28.4489 46.7966 34.0093 46.7966C37.7612 46.7966 40.8773 47.9289 43.2151 50.0858L40.4184 53.7657C38.5065 51.9969 35.9558 51.1836 33.5489 51.1836C31.3895 51.1836 30.1854 52.1377 30.1854 53.5516C30.1854 57.3006 43.7474 54.7888 43.7474 63.5958C43.7474 67.9109 40.6659 71.1641 34.2941 71.1641C29.7595 71.1626 26.5025 69.6438 24.3057 67.4151Z" fill="#EDEBEA"/>
<path d="M58.118 70.7405L53.5863 64.1622L51.5333 66.3549V70.7405H47.0361V47.1516H51.5333V61.2624L58.013 53.6581H63.536L56.7743 61.4032L63.7503 70.7405H58.118Z" fill="#EDEBEA"/>
<path d="M65.5176 49.1304C65.5176 47.6446 66.7563 46.4778 68.2093 46.4778C69.6954 46.4778 70.8995 47.6446 70.8995 49.1304C70.8995 50.6147 69.6954 51.8174 68.2093 51.8174C66.7563 51.8189 65.5176 50.6162 65.5176 49.1304ZM65.9779 70.7405V53.6582H70.4751V70.7405H65.9779Z" fill="#EDEBEA"/>
<path d="M74.9346 70.7405V47.1516H79.4318V70.7405H74.9346Z" fill="#EDEBEA"/>
<path d="M83.8901 70.7405V47.1516H88.3874V70.7405H83.8901Z" fill="#EDEBEA"/>
<path d="M91.3613 68.5118L93.3093 65.3649C94.5494 66.5331 97.0987 67.6999 99.2221 67.6999C101.17 67.6999 102.091 66.9211 102.091 65.8606C102.091 63.0313 91.9296 65.3304 91.9296 58.6099C91.9296 55.7461 94.4429 53.2344 98.9401 53.2344C101.843 53.2344 104.145 54.2244 105.844 55.5694L104.039 58.6473C103.011 57.5495 101.065 56.6658 98.9746 56.6658C97.3461 56.6658 96.2844 57.4086 96.2844 58.3642C96.2844 60.9104 106.411 58.7881 106.411 65.6853C106.411 68.7977 103.754 71.1658 99.0092 71.1658C96.0355 71.1629 93.1668 70.1743 91.3613 68.5118Z" fill="#EDEBEA"/>
<path d="M21.3011 31.6125C21.2982 31.6197 21.2954 31.6226 21.2954 31.6226L10.2868 1.12793H0.64502L8.92299 22.5024V22.5038L15.9997 40.7759H26.5925L41.8867 1.12793C33.3239 3.63395 21.5615 31.0047 21.3011 31.6125Z" fill="#EDEBEA"/>
<path d="M49.1496 0C46.7096 0 44.625 1.96142 44.625 4.45739C44.625 6.95479 46.7082 8.97656 49.1496 8.97656C51.6485 8.97656 53.6727 6.95622 53.6727 4.45739C53.6712 1.96142 51.6485 0 49.1496 0Z" fill="#FF824C"/>
<path d="M52.9561 12.0674H45.3989V40.7761H52.9561V12.0674Z" fill="#EDEBEA"/>
<path d="M79.4394 12.0674L71.9426 32.0381L64.4429 12.0674H56.3491L67.8943 40.7761H76.0471L87.5922 12.0674H79.4394V12.0674Z" fill="#EDEBEA"/>
<path d="M103.245 11.3518C98.722 11.3518 94.1989 12.7787 90.6872 15.871L93.5443 20.9247C95.9843 18.6658 98.8414 17.5364 101.936 17.5364C105.744 17.5364 108.246 19.4375 108.246 22.3516V26.2156C106.341 23.9567 102.947 22.708 99.1392 22.708C94.5557 22.708 89.1406 25.2643 89.1406 31.9806C89.1406 38.4023 94.5571 41.4917 99.1392 41.4917C102.887 41.4917 106.281 40.1252 108.246 37.8074V40.7775H115.803V22.2309C115.803 13.9685 109.791 11.3518 103.245 11.3518ZM108.246 33.8816C106.996 35.5456 104.615 36.379 102.175 36.379C99.1982 36.379 96.7568 34.8315 96.7568 32.1573C96.7568 29.3639 99.1968 27.8177 102.175 27.8177C104.613 27.8177 106.996 28.6497 108.246 30.3151V33.8816Z" fill="#EDEBEA"/>
<path d="M41.8867 1.12793L26.5924 40.7759H15.9996L8.92285 22.5038V22.5024C8.92285 22.5024 16.4959 27.4368 21.2967 31.6226C21.2967 31.6226 21.2996 31.6197 21.3025 31.6125C21.5614 31.0047 33.3238 3.63395 41.8867 1.12793Z" fill="#45B649"/>
</svg>
