<svg width="173" height="291" viewBox="0 0 173 291" fill="none" xmlns="http://www.w3.org/2000/svg">
<path d="M64.2689 84.2631C66.2237 79.1516 64.569 71.9365 64.569 66.5242C64.569 60.3605 65.471 54.1975 67.8763 48.4836C69.9815 43.3721 73.1381 40.2154 78.7009 38.7127C80.5045 38.2614 84.7142 37.8109 86.2177 38.8623L86.3673 39.012C88.7733 37.9597 92.6822 38.7119 95.3868 39.3128C101.401 40.5163 103.356 44.8756 104.858 50.1375C105.76 54.0463 106.362 58.1048 105.76 62.0128C104.858 66.9746 103.204 71.1843 103.204 76.295C103.204 78.5506 104.657 87.2685 104.507 89.5242L60.2089 95.9381C61.1115 95.0371 63.8177 85.4665 64.2689 84.2631Z" fill="#262324"/>
<path d="M55.3925 165.328C55.3925 165.328 57.8983 170.539 61.6068 170.338C65.3145 170.138 65.415 161.319 65.415 161.319L58.1985 161.92L55.3925 165.328Z" fill="#D5752C"/>
<path d="M93.6925 262.709C93.6925 262.709 95.9591 261.251 98.0644 259.147C103.17 254.041 106.322 258.661 106.646 262.061C106.97 265.461 104.811 271.345 105.297 273.449C105.783 275.553 105.35 283.326 104.865 285.755C104.379 288.183 103.255 289.835 100.332 290.396C96.3917 291.151 95.7986 287.536 95.1509 285.107C94.5024 282.678 93.6934 274.528 93.0457 271.613C92.398 268.699 93.6925 262.709 93.6925 262.709Z" fill="#3C4069"/>
<path d="M76.4385 242.598C76.8898 242.748 85.03 244.434 91.6224 254.324C91.9233 254.775 96.2827 260.338 98.2359 261.389C98.2359 261.389 103.649 274.167 92.674 273.566C92.674 273.566 83.8041 266.8 80.7978 265.147C77.7916 263.494 62.9092 260.637 61.104 257.029C59.3004 253.421 65.1632 243.95 65.4641 243.5C65.7657 243.049 76.4385 242.598 76.4385 242.598Z" fill="#52558B"/>
<path d="M154.462 235.081C154.462 235.081 156.968 236.466 160.025 237.938C163.08 239.408 169.258 241.214 170.247 239.591C171.236 237.967 176.26 233.127 166.788 226.513C160.115 221.852 154.583 222.281 151.595 220.517C148.605 218.752 146.601 218.756 144.924 220.685C143.248 222.615 141.676 226.11 145.308 229.102C148.942 232.093 154.462 235.081 154.462 235.081Z" fill="#3C4069"/>
<path d="M155.514 230.27C155.839 229.924 153.108 219.296 143.336 225.309C143.336 225.309 135.82 229.969 131.01 231.774C126.2 233.578 125.597 245.304 125.597 245.304L130.108 257.03L134.968 257.531C134.968 257.531 153.108 232.826 155.514 230.27Z" fill="#52558B"/>
<path d="M106.305 163.723C106.305 163.723 121.539 193.188 123.944 201.206C126.306 209.081 137.048 254.62 134.969 257.531C131.963 261.741 126.15 263.945 121.139 261.339C116.127 258.734 115.726 254.725 113.923 251.117C112.119 247.509 92.675 198.4 91.0725 196.997C89.4684 195.594 89.2696 196.998 88.8674 198C88.466 199.001 76.6397 250.113 73.2328 254.724C69.8252 259.334 64.8135 259.735 61.8073 258.332C61.8073 258.332 58.3997 256.328 57.999 247.108C57.5976 237.888 54.9919 202.609 61.6069 182.565C61.6069 182.565 59.2016 168.534 60.4035 164.725C61.6062 160.917 106.305 163.723 106.305 163.723Z" fill="#6E73B6"/>
<path d="M92.1738 81.842C92.1738 81.842 91.4724 87.3541 92.1738 88.2559C92.8745 89.1577 96.9853 92.2653 97.8863 92.7657C98.7889 93.2668 100.893 92.1647 100.192 96.6753C99.4904 101.184 93.6775 109.804 80.9494 108.4C68.2214 106.997 67.1193 97.376 65.8161 95.171C65.8161 95.171 65.1146 95.3721 68.8223 94.2692C72.5308 93.1671 77.0406 86.9527 76.6392 81.4414C76.2386 75.9293 92.1738 81.842 92.1738 81.842Z" fill="#E3AB71"/>
<path d="M100.482 70.8147C100.482 70.8147 102.048 69.8747 102.596 71.1272C103.145 72.3813 101.657 75.0447 99.8544 76.6121C98.0523 78.1787 97.8177 78.1787 97.1911 77.8654C97.1911 77.8654 95.3883 81.9387 90.7663 84.6807C86.1443 87.4235 85.2035 87.5014 83.7155 87.3456C82.226 87.1881 81.3648 87.1094 80.5815 86.7961C79.7981 86.4835 75.4108 83.3486 73.4528 79.51C71.4949 75.6713 71.8083 74.3393 71.4942 73.8685C71.4942 73.8685 70.6329 73.556 70.1622 72.2247C69.6914 70.8927 67.8114 65.4079 70.7888 66.5045C70.7888 66.5045 71.2588 56.7898 72.3562 54.0485C73.4529 51.3057 77.1357 42.923 88.2596 44.8037C99.3852 46.6845 101.892 51.6985 102.127 56.6339C102.362 61.57 100.482 70.8147 100.482 70.8147Z" fill="#F6C57D"/>
<path d="M103.799 159.765C103.799 159.765 85.1585 173.144 72.6807 171.04C60.2029 168.935 62.4586 167.882 61.5568 166.379C61.5568 166.379 60.2038 155.706 62.3082 146.084C62.3082 146.084 100.944 142.476 103.349 140.823C103.349 140.823 98.5382 152.248 103.799 159.765Z" fill="#E3AB71"/>
<path d="M115.225 84.2981C115.225 84.2981 120.788 98.73 118.983 103.541C117.179 108.351 117.179 104.743 114.774 110.154C112.368 115.566 102.897 145.884 105.904 154.503C108.982 163.326 109.963 167.431 109.512 168.634C109.061 169.836 92.0743 159.614 55.3922 165.327C55.3922 165.327 54.4912 154.503 55.9932 149.09C57.4967 143.679 59.1506 122.782 55.0914 118.573C51.0329 114.364 46.6727 110.907 45.3196 110.005C43.9673 109.103 46.5224 92.1158 51.0329 91.3629C51.0329 91.3629 54.7906 90.161 66.0657 93.1672C66.0657 93.1672 70.1249 92.4151 71.1771 91.9646C71.1771 91.9646 76.5888 104.442 84.1063 104.442C91.6231 104.442 96.5833 94.9716 96.1328 90.9123C96.1328 90.9123 106.957 84.1477 115.225 84.2981Z" fill="#47B649"/>
<path d="M153.209 35.2395C152.931 35.089 137.775 34.9386 136.873 37.5442C135.97 40.1499 138.477 40.5505 138.677 40.8513C138.876 41.1522 140.581 44.6596 140.881 46.3634C141.182 48.0673 144.79 63.9021 146.594 66.5085C148.398 69.1141 146.092 67.0096 146.193 67.7111C146.293 68.4118 146.393 69.415 145.791 69.715C145.189 70.0151 108.709 84.3464 105.403 86.2513C102.095 88.1555 97.2845 89.2576 96.1317 90.9115C96.1317 90.9115 95.48 96.4742 93.6764 98.4781C93.6764 98.4781 114.122 107.297 116.026 107.598C117.931 107.899 156.816 84.6472 161.527 79.5358C166.237 74.4243 164.333 71.418 163.231 67.6098C162.128 63.8007 155.113 44.5591 153.91 41.0517C153.91 41.0517 152.808 39.5474 152.908 38.5458C153.008 37.5442 154.511 35.9417 153.209 35.2395Z" fill="#F5814F"/>
<path d="M149.601 29.5262L151.806 35.7406C151.806 35.7406 147.697 40.5512 139.178 37.7445L137.675 31.4304C137.675 31.4311 145.391 27.9237 149.601 29.5262Z" fill="#D5752C"/>
<path d="M8.89008 51.6754C8.89008 51.6754 17.2073 52.4774 17.6088 53.5795C18.0109 54.6824 16.909 55.1828 16.8076 55.5842C16.7071 55.9848 16.4061 61.3972 16.5066 62.4993C16.6071 63.6014 14.8029 80.2382 14.3025 82.444C13.8013 84.6474 14.1014 83.6458 14.6026 84.3465C15.1045 85.048 16.2073 84.4471 15.9057 85.5492C15.6048 86.6529 42.6649 90.762 50.1817 90.9615C57.6993 91.1618 70.3275 91.663 71.1779 91.9639C71.1779 91.9639 73.2324 96.1728 74.4351 97.6763C74.4351 97.6763 50.1817 109.101 45.3204 110.004C45.3204 110.004 10.6938 100.582 4.88163 98.1767C-0.931328 95.7714 0.571335 93.2655 0.0701599 90.8602C-0.431007 88.4557 1.87379 65.9046 2.87769 62.2974C3.87847 58.6886 2.97658 56.5842 2.77627 54.9801C2.77627 54.9833 -1.53318 49.3698 8.89008 51.6754Z" fill="#F5814F"/>
<path d="M15.7879 47.9264L16.2461 54.5039C16.2461 54.5039 10.9983 58.0363 3.5439 53.0495L3.78785 46.5632C3.78785 46.5632 12.162 45.2537 15.7879 47.9264Z" fill="#D5752C"/>
<path d="M147.697 29.7267C147.77 29.4359 148.298 23.2138 145.993 18.001C145.993 18.001 145.491 15.6962 145.392 15.0945C145.292 14.4936 146.293 11.7866 145.492 11.2855C144.691 10.7843 143.788 10.8848 143.588 11.1857C143.388 11.4866 142.887 14.0922 142.887 14.0922C142.887 14.0922 141.885 13.9909 141.584 13.7906C141.283 13.591 141.083 9.6822 141.083 9.28079C141.083 8.87939 141.183 7.87784 141.183 7.87784C141.183 7.87784 142.186 7.87781 141.985 6.67516C141.784 5.47251 139.88 5.37196 139.378 6.07423C138.877 6.77415 138.678 8.27844 138.678 8.27844V13.69H137.475C137.475 13.69 135.269 10.1826 134.569 7.87784C133.867 5.5723 133.366 3.0672 132.964 1.76401C132.563 0.460806 131.16 -0.741847 130.458 0.561353C129.757 1.86455 130.458 2.06487 130.76 3.76713C131.06 5.47252 132.463 10.4827 132.463 10.4827L134.168 14.2909L133.666 13.7898C133.666 13.7898 131.862 9.58086 130.66 6.97525C129.457 4.36885 129.658 2.26441 128.053 1.5637C126.45 0.862219 125.95 1.9651 126.35 3.26674C126.751 4.57072 128.053 7.27688 128.455 8.47953C128.855 9.68218 129.456 11.2855 129.456 11.2855C129.456 11.2855 128.354 11.0852 127.852 11.5863C127.35 12.0883 128.254 13.1904 128.654 14.393C129.055 15.5957 130.158 18.3026 130.258 19.2036C130.359 20.1062 131.461 23.5131 132.261 24.5154C133.063 25.517 137.374 29.4266 137.774 30.1281C138.175 30.8288 139.177 31.8311 139.177 31.8311C139.177 31.8311 146.395 34.9395 147.697 29.7267Z" fill="#F6C57D"/>
<path d="M15.0034 47.7673C15.0034 47.7673 15.104 46.4649 16.0058 45.1617C16.9084 43.8585 20.3151 41.3534 20.6152 39.0479C20.9161 36.7431 21.3167 32.0323 21.2161 31.0307C21.1171 30.0284 19.913 26.8218 19.6129 25.6192C19.3121 24.4158 17.7087 25.719 18.0088 28.5257C18.3097 31.3316 18.4103 33.9364 17.9083 34.5389C17.4072 35.1399 16.3043 33.9372 15.6036 33.0354C14.9021 32.1336 14.7025 29.9286 14.5014 28.726C14.3011 27.5233 13.4991 20.9091 13.4991 20.9091C13.4991 20.9091 14.0012 17.7018 13.0986 17.0003C12.196 16.2988 11.394 15.7976 10.793 17.8023C10.1921 19.8062 10.3915 22.5124 10.3915 22.5124C10.3915 22.5124 8.98781 22.4118 8.58796 23.2139C8.18734 24.0151 8.08598 26.1204 8.08598 26.1204C8.08598 26.1204 7.38535 26.0198 6.78364 26.9216C6.18192 27.8234 6.1827 27.8234 6.1827 27.8234C6.1827 27.8234 6.38378 26.6207 4.77894 27.8234C3.17566 29.0261 1.57237 32.1328 1.57237 32.1328C1.57237 32.1328 1.87321 36.3417 2.17407 37.6441C2.47415 38.9481 4.17794 43.2568 4.57856 44.2591C4.97997 45.2615 4.98008 45.963 4.98008 46.4641C4.98008 46.9653 9.89269 51.9762 15.0034 47.7673Z" fill="#F6C57D"/>
<path d="M65.0708 89.8515L67.1744 95.4642C68.9967 90.8157 68.3778 85.242 68.3778 85.242C69.9811 76.9224 70.6328 69.507 74.5416 62.892C75.233 61.7073 76.1112 60.5077 77.0582 59.2864C77.0216 61.2084 77.3201 63.1087 77.999 64.8975C78.2788 65.5498 78.5588 66.7221 79.0818 67.1251C78.3421 64.3916 78.1674 60.0027 79.109 56.6831C81.8845 53.1445 84.5509 49.3861 84.4668 45.2287C84.5993 48.097 86.3974 50.5771 88.0716 52.6699C90.6266 56.4275 93.1831 60.3371 94.9867 64.546C97.993 71.7619 98.8962 77.4743 96.0396 84.8407L95.1738 90.9646L97.0413 97.5686L101.397 90.0659L105.159 92.2569C104.919 88.8983 102.955 78.3129 102.955 76.4221C102.955 71.3106 104.608 67.1017 105.51 62.1414C106.111 58.2326 105.51 54.1734 104.608 50.2646C103.105 45.0034 100.65 39.8421 94.6358 38.6394C91.9297 38.0385 88.5228 38.0884 86.1175 39.1406L85.9672 38.991C84.4637 37.9379 80.2033 37.7883 78.4005 38.2388C72.8378 39.7423 69.7318 43.5007 67.6265 48.6122C65.2212 54.3246 64.3203 60.4883 64.3203 66.6527C64.3203 72.0643 63.5174 87.8492 61.5633 92.9607C61.1113 94.161 65.9725 88.9497 65.0708 89.8515Z" fill="#38302D"/>
</svg>
