<svg width="20" height="20" viewBox="0 0 20 20" fill="none" xmlns="http://www.w3.org/2000/svg">
<path d="M14.6501 11.0751C14.6495 10.4487 14.7953 9.83085 15.076 9.27089C15.3568 8.71092 15.7645 8.22436 16.2668 7.85009C16.3111 7.81531 16.348 7.7719 16.375 7.72248C16.4021 7.67306 16.4189 7.61866 16.4244 7.56257C16.4298 7.50649 16.4238 7.44988 16.4068 7.39617C16.3897 7.34246 16.3619 7.29276 16.3251 7.25009C15.9448 6.82802 15.4846 6.48551 14.9711 6.24235C14.4576 5.99919 13.901 5.86021 13.3335 5.83343C11.9251 5.70009 10.5835 6.66676 9.86681 6.66676C9.15014 6.66676 7.98347 5.83343 6.81681 5.83343C6.0446 5.85756 5.29197 6.08233 4.63299 6.48561C3.97401 6.88889 3.43137 7.45679 3.05847 8.13343C1.45847 10.9168 2.65014 15.0001 4.16681 17.2834C4.92514 18.3834 5.83347 19.6251 7.03347 19.5834C8.23347 19.5418 8.61681 18.8418 10.0085 18.8418C11.4001 18.8418 11.7918 19.5834 13.0085 19.5584C14.2251 19.5334 15.0668 18.4334 15.8335 17.3334C16.3039 16.6414 16.6874 15.8941 16.9751 15.1084C17.0093 15.0148 17.0087 14.912 16.9735 14.8187C16.9384 14.7255 16.8709 14.6479 16.7835 14.6001C16.1391 14.2643 15.5994 13.7579 15.2232 13.1363C14.847 12.5147 14.6488 11.8017 14.6501 11.0751Z" fill="white"/>
<path d="M12.5 3.4748C13.1092 2.74945 13.466 1.84568 13.5166 0.899796C13.5192 0.836613 13.5073 0.773677 13.482 0.715758C13.4566 0.657838 13.4183 0.606455 13.3702 0.565501C13.322 0.524546 13.2651 0.495096 13.2039 0.479381C13.1426 0.463666 13.0786 0.462098 13.0166 0.474796C12.11 0.683031 11.2912 1.16964 10.675 1.86646C10.0628 2.56292 9.69679 3.4414 9.63331 4.36646C9.63183 4.42557 9.64294 4.48431 9.66591 4.53878C9.68888 4.59326 9.72318 4.64223 9.76654 4.68243C9.80989 4.72263 9.8613 4.75314 9.91735 4.77194C9.97341 4.79074 10.0328 4.79739 10.0916 4.79146C11.0325 4.6743 11.8935 4.20357 12.5 3.4748Z" fill="white"/>
</svg>
