<svg width="16" height="16" viewBox="0 0 16 16" fill="none" xmlns="http://www.w3.org/2000/svg">
<path d="M0.733521 6.01001H8.23485C8.26778 6.01007 8.29999 6.00037 8.32741 5.98215C8.35483 5.96392 8.37624 5.93798 8.38894 5.9076C8.40163 5.87722 8.40504 5.84376 8.39874 5.81144C8.39244 5.77912 8.3767 5.74939 8.35352 5.72601L6.12885 3.47934C6.01073 3.35305 5.9463 3.18581 5.94916 3.01291C5.95202 2.84001 6.02195 2.67499 6.14419 2.55268L7.98152 0.716675C8.10654 0.591695 8.27608 0.521484 8.45285 0.521484C8.62963 0.521484 8.79917 0.591695 8.92419 0.716675L15.7335 7.52801C15.8585 7.65303 15.9287 7.82257 15.9287 7.99934C15.9287 8.17612 15.8585 8.34566 15.7335 8.47068L8.92419 15.2833C8.79917 15.4083 8.62963 15.4785 8.45285 15.4785C8.27608 15.4785 8.10654 15.4083 7.98152 15.2833L6.14352 13.4453C6.01993 13.3221 5.94959 13.1554 5.9476 12.9809C5.9456 12.8063 6.01212 12.638 6.13285 12.512L8.32819 10.2807C8.35026 10.2571 8.36503 10.2277 8.3707 10.196C8.37637 10.1642 8.3727 10.1315 8.36014 10.1017C8.34758 10.072 8.32666 10.0466 8.29992 10.0285C8.27318 10.0105 8.24178 10.0006 8.20952 10H0.733521C0.556709 10 0.387139 9.92977 0.262115 9.80475C0.137091 9.67972 0.0668535 9.51015 0.0668535 9.33334V6.67668C0.0668535 6.49987 0.137091 6.3303 0.262115 6.20527C0.387139 6.08025 0.556709 6.01001 0.733521 6.01001Z" fill="#1F2024"/>
</svg>
