<svg width="17" height="14" viewBox="0 0 17 14" fill="none" xmlns="http://www.w3.org/2000/svg">
<path d="M16.6592 6.96191C16.6592 6.5752 16.501 6.1709 16.2461 5.9248L10.876 0.563477C10.5859 0.264648 10.2344 0.115234 9.90039 0.115234C9.05664 0.115234 8.50293 0.695312 8.50293 1.45117C8.50293 1.88184 8.69629 2.20703 8.95996 2.46191L10.8672 4.36035L12.2471 5.63477L10.5156 5.54688H1.60352C0.71582 5.54688 0.118164 6.10938 0.118164 6.96191C0.118164 7.80566 0.71582 8.37695 1.60352 8.37695H10.5156L12.2471 8.28906L10.8672 9.56348L8.95996 11.4531C8.69629 11.708 8.50293 12.0332 8.50293 12.4639C8.50293 13.2197 9.05664 13.7998 9.90039 13.7998C10.2344 13.7998 10.5859 13.6504 10.876 13.3604L16.2461 7.99902C16.501 7.74414 16.6592 7.33984 16.6592 6.96191Z" fill="white"/>
</svg>
