<svg width="16" height="16" viewBox="0 0 16 16" fill="none" xmlns="http://www.w3.org/2000/svg">
<g clip-path="url(#clip0)">
<path d="M8 0C6.41775 0 4.87104 0.469192 3.55544 1.34824C2.23985 2.22729 1.21447 3.47672 0.608967 4.93853C0.00346629 6.40034 -0.15496 8.00887 0.153721 9.56072C0.462403 11.1126 1.22433 12.538 2.34315 13.6569C3.46197 14.7757 4.88743 15.5376 6.43928 15.8463C7.99113 16.155 9.59966 15.9965 11.0615 15.391C12.5233 14.7855 13.7727 13.7602 14.6518 12.4446C15.5308 11.129 16 9.58225 16 8C15.9975 5.87903 15.1539 3.84563 13.6541 2.34587C12.1544 0.846118 10.121 0.00247015 8 0V0ZM8 13.3333C6.94517 13.3333 5.91402 13.0205 5.03696 12.4345C4.1599 11.8485 3.47631 11.0155 3.07265 10.041C2.66898 9.06644 2.56336 7.99408 2.76915 6.95952C2.97494 5.92495 3.48289 4.97464 4.22877 4.22876C4.97465 3.48288 5.92496 2.97493 6.95952 2.76915C7.99409 2.56336 9.06644 2.66898 10.041 3.07264C11.0155 3.47631 11.8485 4.1599 12.4345 5.03696C13.0205 5.91402 13.3333 6.94517 13.3333 8C13.3317 9.414 12.7693 10.7696 11.7695 11.7695C10.7696 12.7693 9.414 13.3317 8 13.3333Z" fill="#44E7FD"/>
<path d="M10.9108 6.33332H9.35145C9.32017 6.33317 9.28956 6.32429 9.26306 6.30768C9.23656 6.29107 9.21522 6.2674 9.20145 6.23932L8.39278 4.57266C8.35566 4.5006 8.29941 4.44015 8.2302 4.39796C8.161 4.35576 8.08151 4.33344 8.00045 4.33344C7.91939 4.33344 7.8399 4.35576 7.77069 4.39796C7.70148 4.44015 7.64524 4.5006 7.60811 4.57266L6.80011 6.23932C6.78646 6.2675 6.76515 6.29126 6.73863 6.30788C6.7121 6.32451 6.68142 6.33332 6.65011 6.33332H5.08811C5.00399 6.32981 4.92083 6.35241 4.85006 6.39802C4.77928 6.44364 4.72435 6.51003 4.69281 6.5881C4.66126 6.66617 4.65464 6.75208 4.67385 6.83406C4.69306 6.91604 4.73717 6.99007 4.80011 7.04599L6.16745 8.47532C6.19019 8.49894 6.20544 8.52877 6.21125 8.56104C6.21706 8.59331 6.21319 8.62658 6.20011 8.65666L5.44611 10.396C5.41098 10.4802 5.40314 10.5733 5.42369 10.6622C5.44425 10.751 5.49217 10.8312 5.5607 10.8914C5.62923 10.9517 5.71493 10.9889 5.80572 10.9978C5.8965 11.0068 5.98781 10.987 6.06678 10.9413L7.91878 9.89865C7.9437 9.88458 7.97183 9.87718 8.00045 9.87718C8.02907 9.87718 8.0572 9.88458 8.08211 9.89865L9.93345 10.9413C10.0124 10.987 10.1037 11.0068 10.1945 10.9978C10.2853 10.9889 10.371 10.9517 10.4395 10.8914C10.5081 10.8312 10.556 10.751 10.5765 10.6622C10.5971 10.5733 10.5892 10.4802 10.5541 10.396L9.80011 8.65666C9.78704 8.62663 9.78311 8.59342 9.7888 8.56117C9.79449 8.52892 9.80956 8.49906 9.83211 8.47532L11.2001 7.04599C11.2632 6.99 11.3073 6.91584 11.3265 6.83372C11.3457 6.75161 11.339 6.66556 11.3072 6.58743C11.2755 6.50929 11.2204 6.44291 11.1494 6.3974C11.0784 6.3519 10.995 6.32951 10.9108 6.33332Z" fill="#44E7FD"/>
</g>
<defs>
<clipPath id="clip0">
<rect width="16" height="16" fill="white"/>
</clipPath>
</defs>
</svg>
