<svg width="20" height="18" viewBox="0 0 20 18" fill="none" xmlns="http://www.w3.org/2000/svg">
<path d="M9.99997 0.145996C4.73497 0.145996 0.450806 3.67516 0.450806 8.0135C0.466574 9.05589 0.710421 10.0822 1.16521 11.0203C1.62 11.9584 2.2747 12.7855 3.08331 13.4435L1.17997 17.2502C1.14132 17.3275 1.12766 17.4149 1.1409 17.5003C1.15414 17.5857 1.19362 17.6649 1.25386 17.7269C1.31411 17.7889 1.39214 17.8306 1.47714 17.8463C1.56215 17.8619 1.64992 17.8508 1.72831 17.8143L6.83331 15.4377C7.86273 15.7338 8.92881 15.883 9.99997 15.881C15.2658 15.881 19.5491 12.3518 19.5491 8.0135C19.5491 3.67516 15.2658 0.145996 9.99997 0.145996ZM14.1666 10.3543H6.24997C6.08421 10.3543 5.92524 10.2885 5.80803 10.1713C5.69082 10.0541 5.62497 9.89509 5.62497 9.72933C5.62497 9.56357 5.69082 9.4046 5.80803 9.28739C5.92524 9.17018 6.08421 9.10433 6.24997 9.10433H14.1666C14.3324 9.10433 14.4914 9.17018 14.6086 9.28739C14.7258 9.4046 14.7916 9.56357 14.7916 9.72933C14.7916 9.89509 14.7258 10.0541 14.6086 10.1713C14.4914 10.2885 14.3324 10.3543 14.1666 10.3543ZM5.62497 5.97933C5.62497 5.81357 5.69082 5.6546 5.80803 5.53739C5.92524 5.42018 6.08421 5.35433 6.24997 5.35433H11.6666C11.8324 5.35433 11.9914 5.42018 12.1086 5.53739C12.2258 5.6546 12.2916 5.81357 12.2916 5.97933C12.2916 6.14509 12.2258 6.30406 12.1086 6.42127C11.9914 6.53848 11.8324 6.60433 11.6666 6.60433H6.24997C6.08421 6.60433 5.92524 6.53848 5.80803 6.42127C5.69082 6.30406 5.62497 6.14509 5.62497 5.97933Z" fill="white"/>
</svg>
