<svg width="20" height="20" viewBox="0 0 20 20" fill="none" xmlns="http://www.w3.org/2000/svg">
<g opacity="0.5">
<path d="M10.0001 1.14584C4.73509 1.14584 0.450928 4.67501 0.450928 9.01334C0.466696 10.0557 0.710543 11.082 1.16533 12.0201C1.62012 12.9582 2.27482 13.7853 3.08343 14.4433L1.18009 18.25C1.14144 18.3273 1.12779 18.4147 1.14102 18.5002C1.15426 18.5856 1.19374 18.6648 1.25398 18.7268C1.31423 18.7887 1.39226 18.8304 1.47727 18.8461C1.56227 18.8618 1.65005 18.8506 1.72843 18.8142L6.83343 16.4375C7.86286 16.7336 8.92893 16.8828 10.0001 16.8808C15.2659 16.8808 19.5493 13.3517 19.5493 9.01334C19.5493 4.67501 15.2659 1.14584 10.0001 1.14584ZM14.1668 11.3542H6.25009C6.08433 11.3542 5.92536 11.2883 5.80815 11.1711C5.69094 11.0539 5.62509 10.8949 5.62509 10.7292C5.62509 10.5634 5.69094 10.4044 5.80815 10.2872C5.92536 10.17 6.08433 10.1042 6.25009 10.1042H14.1668C14.3325 10.1042 14.4915 10.17 14.6087 10.2872C14.7259 10.4044 14.7918 10.5634 14.7918 10.7292C14.7918 10.8949 14.7259 11.0539 14.6087 11.1711C14.4915 11.2883 14.3325 11.3542 14.1668 11.3542ZM5.62509 6.97918C5.62509 6.81342 5.69094 6.65445 5.80815 6.53724C5.92536 6.42002 6.08433 6.35418 6.25009 6.35418H11.6668C11.8325 6.35418 11.9915 6.42002 12.1087 6.53724C12.2259 6.65445 12.2918 6.81342 12.2918 6.97918C12.2918 7.14494 12.2259 7.30391 12.1087 7.42112C11.9915 7.53833 11.8325 7.60418 11.6668 7.60418H6.25009C6.08433 7.60418 5.92536 7.53833 5.80815 7.42112C5.69094 7.30391 5.62509 7.14494 5.62509 6.97918Z" fill="white"/>
</g>
</svg>
