<svg width="10" height="16" viewBox="0 0 10 16" fill="none" xmlns="http://www.w3.org/2000/svg">
<path opacity="0.5" d="M9.26074 7.99707C9.25195 7.59277 9.11133 7.26758 8.77734 6.94238L2.47559 0.78125C2.22949 0.535156 1.93945 0.412109 1.5791 0.412109C0.858398 0.412109 0.27832 0.992188 0.27832 1.7041C0.27832 2.05566 0.418945 2.38965 0.691406 2.65332L6.20215 7.98828L0.691406 13.3408C0.427734 13.6045 0.27832 13.9297 0.27832 14.29C0.27832 15.002 0.858398 15.582 1.5791 15.582C1.93066 15.582 2.22949 15.4678 2.47559 15.2129L8.77734 9.05176C9.11133 8.72656 9.26074 8.39258 9.26074 7.99707Z" fill="white"/>
</svg>
