<svg width="16" height="16" viewBox="0 0 16 16" fill="none" xmlns="http://www.w3.org/2000/svg">
<path d="M15.8247 2.10734C15.806 1.99631 15.7596 1.89177 15.69 1.80334C15.6203 1.7149 15.5295 1.64541 15.4259 1.60126C15.3223 1.5571 15.2093 1.53971 15.0973 1.55068C14.9852 1.56164 14.8777 1.60062 14.7847 1.66401C13.251 2.59954 11.4715 3.05226 9.67732 2.96334C5.55799 2.96334 3.83865 4.64268 3.80599 4.68134C2.84247 5.39155 2.14382 6.40329 1.82098 7.55591C1.49813 8.70853 1.56958 9.93597 2.02399 11.0433C2.04837 11.1028 2.05505 11.168 2.04322 11.2312C2.03139 11.2943 2.00156 11.3527 1.95732 11.3993L0.178653 13.3253C0.0638881 13.4496 0.000279476 13.6127 0.000550177 13.7818C0.000820878 13.951 0.0649509 14.1138 0.180113 14.2378C0.295274 14.3617 0.452976 14.4376 0.621675 14.4502C0.790373 14.4629 0.957628 14.4114 1.08999 14.306C2.23399 13.2667 4.09999 10.1333 9.34599 7.94068C9.50991 7.87378 9.69361 7.87435 9.85712 7.94226C10.0206 8.01016 10.1507 8.1399 10.219 8.30324C10.2873 8.46657 10.2883 8.65028 10.2218 8.81436C10.1553 8.97845 10.0267 9.10963 9.86399 9.17934C7.7696 10.0364 5.86093 11.2908 4.24332 12.8733L4.23732 12.88L4.08265 13.0473C4.04861 13.0833 4.02301 13.1264 4.0077 13.1734C3.99239 13.2205 3.98775 13.2704 3.99414 13.3195C4.00052 13.3686 4.01776 13.4157 4.0446 13.4573C4.07145 13.4989 4.10722 13.534 4.14932 13.56C5.00084 14.0937 5.98569 14.3763 6.99065 14.3753C8.34315 14.3516 9.6684 13.9911 10.8467 13.3267C16.6927 10.1107 16.1333 3.92601 15.8247 2.10734Z" fill="#08A357"/>
</svg>
