<svg width="40" height="38" viewBox="0 0 40 38" fill="none" xmlns="http://www.w3.org/2000/svg">
<g clip-path="url(#clip0)" filter="url(#filter0_d)">
<path d="M31.3048 12.075C30.8343 11.1594 30.1555 10.3669 29.3231 9.76117C28.4907 9.15544 27.5279 8.75338 26.5119 8.58727C25.4959 8.42117 24.4552 8.49566 23.4732 8.80475C22.4912 9.11385 21.5955 9.64893 20.8578 10.367L19.9998 11.148L19.1718 10.394C18.4359 9.66227 17.536 9.11661 16.547 8.80234C15.5579 8.48807 14.5081 8.41426 13.4848 8.58702C12.4674 8.74608 11.5025 9.14549 10.6703 9.7521C9.83812 10.3587 9.16261 11.1551 8.69981 12.075C8.08138 13.2869 7.86528 14.6644 8.08286 16.0075C8.30044 17.3506 8.94039 18.5893 9.90981 19.544L19.2828 29.2C19.376 29.2959 19.4875 29.3721 19.6106 29.4241C19.7338 29.4761 19.8661 29.503 19.9998 29.503C20.1335 29.503 20.2658 29.4761 20.389 29.4241C20.5121 29.3721 20.6236 29.2959 20.7168 29.2L30.0758 19.562C31.0501 18.6069 31.6946 17.366 31.9156 16.0197C32.1366 14.6733 31.9226 13.2915 31.3048 12.075ZM28.6568 18.151L20.3568 26.696C20.3102 26.744 20.2545 26.7821 20.1929 26.8081C20.1313 26.8341 20.0652 26.8475 19.9983 26.8475C19.9315 26.8475 19.8653 26.8341 19.8037 26.8081C19.7421 26.7821 19.6864 26.744 19.6398 26.696L11.3268 18.136C10.6558 17.4783 10.2119 16.6238 10.0596 15.6966C9.90731 14.7694 10.0545 13.8179 10.4798 12.98C10.8018 12.3414 11.2715 11.7889 11.85 11.3683C12.4285 10.9477 13.099 10.6713 13.8058 10.562C14.5256 10.4409 15.264 10.4942 15.959 10.7174C16.6539 10.9407 17.2852 11.3274 17.7998 11.845L19.3298 13.245C19.514 13.4128 19.7542 13.5058 20.0033 13.5058C20.2525 13.5058 20.4926 13.4128 20.6768 13.245L22.2378 11.822C22.7504 11.312 23.3773 10.9317 24.0663 10.7126C24.7554 10.4934 25.4868 10.4418 26.1998 10.562C26.9058 10.6719 27.5753 10.9486 28.1529 11.3691C28.7305 11.7897 29.1994 12.3419 29.5208 12.98C29.9463 13.8216 30.092 14.777 29.9366 15.7072C29.7812 16.6373 29.3328 17.4935 28.6568 18.151Z" fill="white"/>
</g>
<defs>
<filter id="filter0_d" x="0" y="-1" width="40" height="40" filterUnits="userSpaceOnUse" color-interpolation-filters="sRGB">
<feFlood flood-opacity="0" result="BackgroundImageFix"/>
<feColorMatrix in="SourceAlpha" type="matrix" values="0 0 0 0 0 0 0 0 0 0 0 0 0 0 0 0 0 0 127 0"/>
<feOffset/>
<feGaussianBlur stdDeviation="4"/>
<feColorMatrix type="matrix" values="0 0 0 0 0 0 0 0 0 0 0 0 0 0 0 0 0 0 0.35 0"/>
<feBlend mode="normal" in2="BackgroundImageFix" result="effect1_dropShadow"/>
<feBlend mode="normal" in="SourceGraphic" in2="effect1_dropShadow" result="shape"/>
</filter>
<clipPath id="clip0">
<rect width="24" height="24" fill="white" transform="translate(8 7)"/>
</clipPath>
</defs>
</svg>
