<svg width="16" height="17" viewBox="0 0 16 17" fill="none" xmlns="http://www.w3.org/2000/svg">
<g clip-path="url(#clip0)">
<path d="M8 0.5C6.41775 0.5 4.87104 0.969192 3.55544 1.84824C2.23985 2.72729 1.21447 3.97672 0.608967 5.43853C0.00346629 6.90034 -0.15496 8.50887 0.153721 10.0607C0.462403 11.6126 1.22433 13.038 2.34315 14.1569C3.46197 15.2757 4.88743 16.0376 6.43928 16.3463C7.99113 16.655 9.59966 16.4965 11.0615 15.891C12.5233 15.2855 13.7727 14.2602 14.6518 12.9446C15.5308 11.629 16 10.0822 16 8.5C15.9975 6.37903 15.1539 4.34563 13.6541 2.84587C12.1544 1.34612 10.121 0.50247 8 0.5V0.5ZM8 13.8333C6.94517 13.8333 5.91402 13.5205 5.03696 12.9345C4.1599 12.3485 3.47631 11.5155 3.07265 10.541C2.66898 9.56644 2.56336 8.49408 2.76915 7.45952C2.97494 6.42495 3.48289 5.47464 4.22877 4.72876C4.97465 3.98288 5.92496 3.47493 6.95952 3.26915C7.99409 3.06336 9.06644 3.16898 10.041 3.57264C11.0155 3.97631 11.8485 4.6599 12.4345 5.53696C13.0205 6.41402 13.3333 7.44517 13.3333 8.5C13.3317 9.914 12.7693 11.2696 11.7695 12.2695C10.7696 13.2693 9.414 13.8317 8 13.8333Z" fill="#E97827"/>
<path d="M10.9108 6.83333H9.35145C9.32017 6.83318 9.28956 6.8243 9.26306 6.80769C9.23656 6.79108 9.21522 6.76741 9.20145 6.73933L8.39278 5.07266C8.35566 5.00061 8.29941 4.94016 8.2302 4.89796C8.161 4.85577 8.08151 4.83344 8.00045 4.83344C7.91939 4.83344 7.8399 4.85577 7.77069 4.89796C7.70148 4.94016 7.64524 5.00061 7.60811 5.07266L6.80011 6.73933C6.78646 6.76751 6.76515 6.79127 6.73863 6.80789C6.7121 6.82451 6.68142 6.83333 6.65011 6.83333H5.08811C5.00399 6.82982 4.92083 6.85242 4.85006 6.89803C4.77928 6.94364 4.72435 7.01004 4.69281 7.08811C4.66126 7.16617 4.65464 7.25209 4.67385 7.33407C4.69306 7.41605 4.73717 7.49008 4.80011 7.546L6.16745 8.97533C6.19019 8.99895 6.20544 9.02878 6.21125 9.06105C6.21706 9.09332 6.21319 9.12659 6.20011 9.15666L5.44611 10.896C5.41098 10.9802 5.40314 11.0733 5.42369 11.1622C5.44425 11.251 5.49217 11.3312 5.5607 11.3915C5.62923 11.4517 5.71493 11.4889 5.80572 11.4978C5.8965 11.5068 5.98781 11.487 6.06678 11.4413L7.91878 10.3987C7.9437 10.3846 7.97183 10.3772 8.00045 10.3772C8.02907 10.3772 8.0572 10.3846 8.08211 10.3987L9.93345 11.4413C10.0124 11.487 10.1037 11.5068 10.1945 11.4978C10.2853 11.4889 10.371 11.4517 10.4395 11.3915C10.5081 11.3312 10.556 11.251 10.5765 11.1622C10.5971 11.0733 10.5892 10.9802 10.5541 10.896L9.80011 9.15666C9.78704 9.12664 9.78311 9.09343 9.7888 9.06118C9.79449 9.02893 9.80956 8.99907 9.83211 8.97533L11.2001 7.546C11.2632 7.49 11.3073 7.41585 11.3265 7.33373C11.3457 7.25162 11.339 7.16557 11.3072 7.08744C11.2755 7.0093 11.2204 6.94292 11.1494 6.89741C11.0784 6.85191 10.995 6.82952 10.9108 6.83333Z" fill="#E97827"/>
</g>
<defs>
<clipPath id="clip0">
<rect width="16" height="16" fill="white" transform="translate(0 0.5)"/>
</clipPath>
</defs>
</svg>
