<svg width="56" height="56" viewBox="0 0 56 56" fill="none" xmlns="http://www.w3.org/2000/svg">
<g opacity="0.75" clip-path="url(#clip0)">
<path d="M28 0C22.4621 0 17.0486 1.64217 12.444 4.71885C7.83947 7.79553 4.25064 12.1685 2.13139 17.2849C0.012132 22.4012 -0.542361 28.0311 0.538025 33.4625C1.61841 38.894 4.28515 43.8831 8.20102 47.799C12.1169 51.7149 17.106 54.3816 22.5375 55.462C27.969 56.5424 33.5988 55.9879 38.7152 53.8686C43.8315 51.7494 48.2045 48.1605 51.2812 43.556C54.3578 38.9514 56 33.5379 56 28C55.992 20.5764 53.0394 13.4592 47.7901 8.20988C42.5409 2.9606 35.4236 0.00802919 28 0V0ZM28 50.1667C23.6159 50.1667 19.3302 48.8666 15.6849 46.4309C12.0396 43.9952 9.19843 40.5332 7.52068 36.4828C5.84294 32.4324 5.40397 27.9754 6.25927 23.6755C7.11458 19.3756 9.22575 15.4259 12.3258 12.3258C15.4259 9.22573 19.3756 7.11457 23.6755 6.25926C27.9754 5.40395 32.4324 5.84293 36.4828 7.52067C40.5333 9.19841 43.9952 12.0396 46.4309 15.6849C48.8666 19.3301 50.1667 23.6158 50.1667 28C50.1599 33.8769 47.8223 39.5111 43.6667 43.6667C39.5111 47.8223 33.8769 50.1599 28 50.1667Z" fill="white"/>
<path d="M28.0001 30.3334C33.1547 30.3334 37.3334 26.1547 37.3334 21.0001C37.3334 15.8454 33.1547 11.6667 28.0001 11.6667C22.8454 11.6667 18.6667 15.8454 18.6667 21.0001C18.6667 26.1547 22.8454 30.3334 28.0001 30.3334Z" fill="white"/>
<path d="M28.0001 32.1252C25.0929 32.1361 22.2477 32.9666 19.7912 34.5214C17.3346 36.0761 15.3663 38.2921 14.1121 40.9149C14.0274 41.0929 13.9891 41.2894 14.0009 41.4861C14.0126 41.6828 14.074 41.8734 14.1793 42.04C14.2846 42.2066 14.4304 42.3438 14.6031 42.4388C14.7758 42.5338 14.9697 42.5835 15.1668 42.5833H40.8335C41.0306 42.5835 41.2245 42.5338 41.3972 42.4388C41.5699 42.3438 41.7157 42.2066 41.821 42.04C41.9263 41.8734 41.9877 41.6828 41.9994 41.4861C42.0112 41.2894 41.9729 41.0929 41.8881 40.9149C40.634 38.2921 38.6657 36.0761 36.2091 34.5214C33.7525 32.9666 30.9073 32.1361 28.0001 32.1252Z" fill="white"/>
</g>
<defs>
<clipPath id="clip0">
<rect width="56" height="56" fill="white"/>
</clipPath>
</defs>
</svg>
