<svg width="22" height="22" viewBox="0 0 22 22" fill="none" xmlns="http://www.w3.org/2000/svg">
<g clip-path="url(#clip0)">
<path d="M11 0C8.82441 0 6.69767 0.645139 4.88873 1.85383C3.07979 3.06253 1.66989 4.78049 0.83733 6.79048C0.00476615 8.80047 -0.213071 11.0122 0.211367 13.146C0.635804 15.2798 1.68345 17.2398 3.22183 18.7782C4.76021 20.3166 6.72022 21.3642 8.85401 21.7886C10.9878 22.2131 13.1995 21.9952 15.2095 21.1627C17.2195 20.3301 18.9375 18.9202 20.1462 17.1113C21.3549 15.3023 22 13.1756 22 11C21.9969 8.08359 20.8369 5.28753 18.7747 3.22531C16.7125 1.16309 13.9164 0.00315432 11 0V0ZM11 19.7083C9.27766 19.7083 7.59399 19.1976 6.16191 18.2407C4.72984 17.2838 3.61367 15.9238 2.95455 14.3325C2.29544 12.7413 2.12299 10.9903 2.459 9.30109C2.79501 7.61184 3.6244 6.06016 4.84228 4.84228C6.06017 3.6244 7.61184 2.79501 9.30109 2.45899C10.9903 2.12298 12.7413 2.29544 14.3325 2.95455C15.9238 3.61366 17.2838 4.72983 18.2407 6.16191C19.1976 7.59399 19.7083 9.27765 19.7083 11C19.7057 13.3088 18.7873 15.5222 17.1548 17.1548C15.5222 18.7873 13.3088 19.7057 11 19.7083Z" fill="#0A84FF"/>
<path d="M11.0002 11.9166C13.0252 11.9166 14.6668 10.275 14.6668 8.24998C14.6668 6.22494 13.0252 4.58331 11.0002 4.58331C8.97512 4.58331 7.3335 6.22494 7.3335 8.24998C7.3335 10.275 8.97512 11.9166 11.0002 11.9166Z" fill="#0A84FF"/>
<path d="M11 12.6207C9.85793 12.625 8.74018 12.9512 7.7751 13.562C6.81002 14.1728 6.03675 15.0434 5.54405 16.0738C5.51075 16.1437 5.49571 16.2209 5.50033 16.2981C5.50494 16.3754 5.52906 16.4503 5.57043 16.5157C5.61181 16.5812 5.66909 16.6351 5.73693 16.6724C5.80477 16.7097 5.88095 16.7293 5.95838 16.7292H16.0417C16.1191 16.7293 16.1953 16.7097 16.2632 16.6724C16.331 16.6351 16.3883 16.5812 16.4297 16.5157C16.471 16.4503 16.4952 16.3754 16.4998 16.2981C16.5044 16.2209 16.4893 16.1437 16.456 16.0738C15.9633 15.0434 15.1901 14.1728 14.225 13.562C13.2599 12.9512 12.1422 12.625 11 12.6207Z" fill="#0A84FF"/>
</g>
<defs>
<clipPath id="clip0">
<rect width="22" height="22" fill="white"/>
</clipPath>
</defs>
</svg>
