<svg width="20" height="20" viewBox="0 0 20 20" fill="none" xmlns="http://www.w3.org/2000/svg">
<g clip-path="url(#clip0)">
<path d="M20 9.58332C19.9977 9.05715 19.8295 8.54511 19.5193 8.12013C19.209 7.69514 18.7726 7.37887 18.2722 7.21636C17.7717 7.05385 17.2327 7.05339 16.732 7.21504C16.2313 7.37669 15.7943 7.6922 15.4834 8.11666C14.0113 7.23997 12.345 6.74178 10.6334 6.66666C10.6834 5.78332 10.9417 4.24999 11.7834 3.76666C12.3084 3.46666 13.075 3.60832 14.0417 4.14999C14.0916 4.64044 14.3146 5.09709 14.6706 5.43813C15.0266 5.77917 15.4924 5.98232 15.9845 6.01119C16.4767 6.04005 16.963 5.89275 17.3564 5.59567C17.7499 5.29858 18.0246 4.87113 18.1316 4.38988C18.2385 3.90862 18.1706 3.40502 17.9401 2.96927C17.7095 2.53352 17.3313 2.1941 16.8733 2.01181C16.4152 1.82952 15.9072 1.81627 15.4403 1.97444C14.9734 2.1326 14.578 2.45185 14.325 2.87499C13.8572 2.57589 13.3208 2.40128 12.7666 2.36773C12.2124 2.33419 11.6588 2.44282 11.1584 2.68332C9.68335 3.51666 9.41669 5.72499 9.37502 6.66666C7.66058 6.74076 5.99129 7.23897 4.51669 8.11666C4.20572 7.6922 3.76876 7.37669 3.26803 7.21504C2.7673 7.05339 2.22833 7.05385 1.72788 7.21636C1.22742 7.37887 0.791004 7.69514 0.480768 8.12013C0.170531 8.54511 0.00229547 9.05715 1.85863e-05 9.58332C-0.00198075 10.102 0.157367 10.6084 0.455986 11.0324C0.754605 11.4564 1.17771 11.7771 1.66669 11.95C1.65457 12.1331 1.65457 12.3169 1.66669 12.5C1.66669 15.7167 5.40835 18.3333 10 18.3333C14.5917 18.3333 18.3334 15.7167 18.3334 12.5C18.3455 12.3169 18.3455 12.1331 18.3334 11.95C18.8223 11.7771 19.2454 11.4564 19.5441 11.0324C19.8427 10.6084 20.002 10.102 20 9.58332ZM5.41669 11.25C5.41669 11.0028 5.49 10.7611 5.62735 10.5555C5.7647 10.35 5.95992 10.1897 6.18833 10.0951C6.41674 10.0005 6.66807 9.97578 6.91055 10.024C7.15302 10.0722 7.37575 10.1913 7.55057 10.3661C7.72538 10.5409 7.84443 10.7636 7.89267 11.0061C7.9409 11.2486 7.91614 11.4999 7.82153 11.7283C7.72692 11.9568 7.56671 12.152 7.36115 12.2893C7.15559 12.4267 6.91391 12.5 6.66668 12.5C6.33516 12.5 6.01722 12.3683 5.7828 12.1339C5.54838 11.8995 5.41669 11.5815 5.41669 11.25ZM13.2584 15.4167C12.2613 15.9683 11.1395 16.2552 10 16.25C8.85462 16.2604 7.72615 15.9732 6.72502 15.4167C6.58136 15.3338 6.47651 15.1972 6.43353 15.037C6.39055 14.8768 6.41297 14.7061 6.49585 14.5625C6.57873 14.4188 6.71529 14.314 6.87547 14.271C7.03566 14.228 7.20636 14.2504 7.35002 14.3333C8.16854 14.7491 9.07363 14.9658 9.99168 14.9658C10.9097 14.9658 11.8148 14.7491 12.6334 14.3333C12.777 14.2504 12.9477 14.228 13.1079 14.271C13.2681 14.314 13.4046 14.4188 13.4875 14.5625C13.5704 14.7061 13.5928 14.8768 13.5498 15.037C13.5069 15.1972 13.402 15.3338 13.2584 15.4167ZM13.3334 12.5C13.0861 12.5 12.8444 12.4267 12.6389 12.2893C12.4333 12.152 12.2731 11.9568 12.1785 11.7283C12.0839 11.4999 12.0591 11.2486 12.1074 11.0061C12.1556 10.7636 12.2747 10.5409 12.4495 10.3661C12.6243 10.1913 12.847 10.0722 13.0895 10.024C13.332 9.97578 13.5833 10.0005 13.8117 10.0951C14.0401 10.1897 14.2353 10.35 14.3727 10.5555C14.51 10.7611 14.5834 11.0028 14.5834 11.25C14.5834 11.5815 14.4517 11.8995 14.2172 12.1339C13.9828 12.3683 13.6649 12.5 13.3334 12.5Z" fill="#FE4600"/>
</g>
<defs>
<clipPath id="clip0">
<rect width="20" height="20" fill="white"/>
</clipPath>
</defs>
</svg>
