<svg width="40" height="38" viewBox="0 0 40 38" fill="none" xmlns="http://www.w3.org/2000/svg">
<g filter="url(#filter0_d)">
<path d="M31.3023 11.7489C30.832 10.7898 30.1534 9.95961 29.3211 9.32502C28.4888 8.69043 27.5259 8.26912 26.5098 8.09495C25.4938 7.92078 24.4529 7.9986 23.4708 8.32216C22.4887 8.64572 21.5927 9.206 20.855 9.95798L20.0009 10.7759L19.1737 9.9873C18.4377 9.22076 17.5375 8.64925 16.5481 8.32028C15.5587 7.99131 14.5086 7.91438 13.485 8.09589C12.4674 8.26203 11.5024 8.68004 10.67 9.31519C9.83771 9.95035 9.16212 10.7843 8.69941 11.7478C8.08091 13.017 7.86477 14.4597 8.08238 15.8663C8.29999 17.2729 8.94002 18.5702 9.90956 19.5701L19.2838 29.6827C19.377 29.7831 19.4884 29.8629 19.6116 29.9174C19.7348 29.9719 19.8671 30 20.0009 30C20.1346 30 20.2669 29.9719 20.3901 29.9174C20.5133 29.8629 20.6247 29.7831 20.7179 29.6827L30.0791 19.5889C31.0526 18.5881 31.6961 17.2884 31.9161 15.8785C32.136 14.4686 31.921 13.022 31.3023 11.7489Z" fill="#E0393B"/>
<path d="M21.2008 10.3191L21.2064 10.3137L21.2119 10.3081C21.8948 9.61204 22.7224 9.09516 23.6273 8.79706C24.532 8.49899 25.4901 8.42745 26.4254 8.58777C27.3607 8.74809 28.2487 9.13617 29.0179 9.72263C29.7871 10.3091 30.4162 11.0778 30.8531 11.9684C31.4265 13.1489 31.6264 14.4918 31.422 15.8014C31.2177 17.1113 30.6203 18.3155 29.7207 19.2403L29.7206 19.2402L29.7125 19.2489L20.3515 29.3426C20.3037 29.3941 20.2478 29.4336 20.1878 29.4602C20.1279 29.4867 20.0644 29.5 20.0009 29.5C19.9373 29.5 19.8738 29.4867 19.8139 29.4602C19.7539 29.4336 19.698 29.3941 19.6502 29.3426L10.2763 19.2301L10.2763 19.2301L10.2685 19.222C9.37275 18.2982 8.77865 17.0965 8.57651 15.7898C8.37435 14.4831 8.57542 13.1436 9.14888 11.9668L9.14889 11.9668L9.15013 11.9643C9.57942 11.0704 10.2051 10.2989 10.9734 9.71268C11.7415 9.12651 12.6303 8.74206 13.5656 8.58935L13.5656 8.5894L13.5723 8.58821C14.5137 8.42127 15.4796 8.49193 16.3903 8.79474C17.3012 9.09759 18.1321 9.62445 18.8131 10.3336L18.8207 10.3416L18.8287 10.3492L19.6558 11.1378L20.0016 11.4675L20.3467 11.137L21.2008 10.3191Z" stroke="white" stroke-opacity="0.5"/>
</g>
<defs>
<filter id="filter0_d" x="0" y="-1" width="40" height="40" filterUnits="userSpaceOnUse" color-interpolation-filters="sRGB">
<feFlood flood-opacity="0" result="BackgroundImageFix"/>
<feColorMatrix in="SourceAlpha" type="matrix" values="0 0 0 0 0 0 0 0 0 0 0 0 0 0 0 0 0 0 127 0"/>
<feOffset/>
<feGaussianBlur stdDeviation="4"/>
<feColorMatrix type="matrix" values="0 0 0 0 0 0 0 0 0 0 0 0 0 0 0 0 0 0 0.35 0"/>
<feBlend mode="normal" in2="BackgroundImageFix" result="effect1_dropShadow"/>
<feBlend mode="normal" in="SourceGraphic" in2="effect1_dropShadow" result="shape"/>
</filter>
</defs>
</svg>
