<svg width="16" height="16" viewBox="0 0 16 16" fill="none" xmlns="http://www.w3.org/2000/svg">
<g clip-path="url(#clip0)">
<path d="M8 0C6.41775 0 4.87104 0.469192 3.55544 1.34824C2.23985 2.22729 1.21447 3.47672 0.608967 4.93853C0.00346629 6.40034 -0.15496 8.00887 0.153721 9.56072C0.462403 11.1126 1.22433 12.538 2.34315 13.6569C3.46197 14.7757 4.88743 15.5376 6.43928 15.8463C7.99113 16.155 9.59966 15.9965 11.0615 15.391C12.5233 14.7855 13.7727 13.7602 14.6518 12.4446C15.5308 11.129 16 9.58225 16 8C15.9975 5.87903 15.1539 3.84563 13.6541 2.34587C12.1544 0.846118 10.121 0.00247015 8 0V0ZM8 13.3333C6.94517 13.3333 5.91402 13.0205 5.03696 12.4345C4.1599 11.8485 3.47631 11.0155 3.07265 10.041C2.66898 9.06644 2.56336 7.99408 2.76915 6.95952C2.97494 5.92495 3.48289 4.97464 4.22877 4.22876C4.97465 3.48288 5.92496 2.97493 6.95952 2.76915C7.99409 2.56336 9.06644 2.66898 10.041 3.07264C11.0155 3.47631 11.8485 4.1599 12.4345 5.03696C13.0205 5.91402 13.3333 6.94517 13.3333 8C13.3317 9.414 12.7693 10.7696 11.7695 11.7695C10.7696 12.7693 9.414 13.3317 8 13.3333Z" fill="#C77B30"/>
<path d="M10.9107 6.33332H9.35133C9.32005 6.33317 9.28944 6.32429 9.26294 6.30768C9.23644 6.29107 9.2151 6.2674 9.20133 6.23932L8.39266 4.57266C8.35554 4.5006 8.29929 4.44015 8.23008 4.39796C8.16088 4.35576 8.08138 4.33344 8.00033 4.33344C7.91927 4.33344 7.83978 4.35576 7.77057 4.39796C7.70136 4.44015 7.64511 4.5006 7.60799 4.57266L6.79999 6.23932C6.78634 6.2675 6.76503 6.29126 6.7385 6.30788C6.71198 6.32451 6.6813 6.33332 6.64999 6.33332H5.08799C5.00387 6.32981 4.92071 6.35241 4.84994 6.39802C4.77916 6.44364 4.72423 6.51003 4.69268 6.5881C4.66114 6.66617 4.65451 6.75208 4.67373 6.83406C4.69294 6.91604 4.73704 6.99007 4.79999 7.04599L6.16733 8.47532C6.19007 8.49894 6.20531 8.52877 6.21113 8.56104C6.21694 8.59331 6.21307 8.62658 6.19999 8.65666L5.44599 10.396C5.41086 10.4802 5.40302 10.5733 5.42357 10.6622C5.44413 10.751 5.49205 10.8312 5.56058 10.8914C5.62911 10.9517 5.71481 10.9889 5.80559 10.9978C5.89638 11.0068 5.98769 10.987 6.06666 10.9413L7.91866 9.89865C7.94357 9.88458 7.97171 9.87718 8.00033 9.87718C8.02894 9.87718 8.05708 9.88458 8.08199 9.89865L9.93333 10.9413C10.0123 10.987 10.1036 11.0068 10.1944 10.9978C10.2852 10.9889 10.3709 10.9517 10.4394 10.8914C10.5079 10.8312 10.5559 10.751 10.5764 10.6622C10.597 10.5733 10.5891 10.4802 10.554 10.396L9.79999 8.65666C9.78692 8.62663 9.78299 8.59342 9.78868 8.56117C9.79437 8.52892 9.80943 8.49906 9.83199 8.47532L11.2 7.04599C11.263 6.99 11.3072 6.91584 11.3264 6.83372C11.3456 6.75161 11.3388 6.66556 11.3071 6.58743C11.2754 6.50929 11.2202 6.44291 11.1493 6.3974C11.0783 6.3519 10.9949 6.32951 10.9107 6.33332Z" fill="#C77B30"/>
</g>
<defs>
<clipPath id="clip0">
<rect width="16" height="16" fill="white"/>
</clipPath>
</defs>
</svg>
