<svg width="48" height="48" viewBox="0 0 48 48" fill="none" xmlns="http://www.w3.org/2000/svg">
<path d="M47.082 22.6278L43.456 18.7878L44.676 13.6498C44.7937 13.1527 44.7168 12.6293 44.4609 12.1871C44.205 11.7449 43.7896 11.4174 43.3 11.2718L38.24 9.76378L36.732 4.69978C36.5859 4.21004 36.2579 3.79479 35.8153 3.53927C35.3727 3.28376 34.8491 3.20736 34.352 3.32578L29.214 4.54378L25.376 0.917779C25.0046 0.566706 24.513 0.371094 24.002 0.371094C23.4909 0.371094 22.9993 0.566706 22.628 0.917779L18.786 4.54378L13.648 3.32178C13.1508 3.20402 12.6275 3.28097 12.1853 3.53684C11.7431 3.79271 11.4156 4.2081 11.27 4.69778L9.76196 9.75778L4.69996 11.2658C4.21022 11.4118 3.79497 11.7398 3.53945 12.1824C3.28394 12.625 3.20755 13.1486 3.32596 13.6458L4.54596 18.7858L0.921961 22.6258C0.57147 22.997 0.376221 23.4882 0.376221 23.9988C0.376221 24.5093 0.57147 25.0005 0.921961 25.3718L4.54796 29.2118L3.32596 34.3518C3.20821 34.8489 3.28516 35.3722 3.54102 35.8144C3.79689 36.2566 4.21228 36.5841 4.70196 36.7298L9.76196 38.2378L11.27 43.2998C11.4164 43.7887 11.7443 44.2032 12.1864 44.4582C12.6285 44.7133 13.1514 44.7897 13.648 44.6718L18.788 43.4538L22.628 47.0798C22.9993 47.4309 23.4909 47.6265 24.002 47.6265C24.513 47.6265 25.0046 47.4309 25.376 47.0798L29.216 43.4518L34.354 44.6738C34.8508 44.7916 35.3739 44.715 35.8161 44.4595C36.2582 44.204 36.5859 43.7891 36.732 43.2998L38.24 38.2378L43.302 36.7298C43.7917 36.5837 44.207 36.2557 44.4625 35.8131C44.718 35.3705 44.7944 34.8469 44.676 34.3498L43.458 29.2098L47.084 25.3698C47.433 24.9985 47.6272 24.508 47.6268 23.9984C47.6264 23.4888 47.4316 22.9985 47.082 22.6278ZM32.324 32.8278C32.3945 32.9899 32.4122 33.1701 32.3748 33.3429C32.3374 33.5157 32.2466 33.6724 32.1154 33.7909C31.9841 33.9093 31.8189 33.9836 31.6432 34.0031C31.4675 34.0227 31.29 33.9865 31.136 33.8998L24.49 30.1558C24.3403 30.0717 24.1716 30.0275 24 30.0275C23.8283 30.0275 23.6596 30.0717 23.51 30.1558L16.866 33.9078C16.7116 33.9943 16.5339 34.0302 16.3581 34.0105C16.1822 33.9908 16.0169 33.9164 15.8856 33.7978C15.7542 33.6792 15.6633 33.5224 15.6257 33.3495C15.5881 33.1766 15.6057 32.9962 15.676 32.8338C16.572 30.7778 17.824 27.8958 18.382 26.6118C18.4661 26.4186 18.487 26.2037 18.4417 25.9979C18.3965 25.7921 18.2873 25.6059 18.13 25.4658L13.508 21.3458C13.3804 21.232 13.2903 21.0823 13.2498 20.9162C13.2092 20.7502 13.2199 20.5758 13.2806 20.416C13.3413 20.2563 13.4491 20.1187 13.5897 20.0215C13.7303 19.9243 13.8971 19.8721 14.068 19.8718H19.554C19.7488 19.8721 19.9395 19.8154 20.1025 19.7088C20.2656 19.6023 20.394 19.4503 20.472 19.2718L23.226 12.8858C23.2912 12.7344 23.3994 12.6055 23.5371 12.5149C23.6749 12.4243 23.8361 12.376 24.001 12.376C24.1658 12.376 24.327 12.4243 24.4648 12.5149C24.6025 12.6055 24.7107 12.7344 24.776 12.8858L27.53 19.2718C27.6079 19.4503 27.7363 19.6023 27.8994 19.7088C28.0625 19.8154 28.2531 19.8721 28.448 19.8718H33.932C34.103 19.8717 34.2701 19.9236 34.411 20.0207C34.5519 20.1177 34.66 20.2552 34.7209 20.4151C34.7819 20.575 34.7928 20.7496 34.7523 20.9158C34.7118 21.082 34.6217 21.2319 34.494 21.3458L29.872 25.4658C29.7146 25.6059 29.6055 25.7921 29.5602 25.9979C29.515 26.2037 29.5359 26.4186 29.62 26.6118L32.324 32.8278Z" fill="#1D1B19"/>
</svg>
