<svg width="40" height="40" viewBox="0 0 40 40" fill="none" xmlns="http://www.w3.org/2000/svg">
<path d="M39.2349 18.8568L36.2133 15.6568L37.2299 11.3751C37.3281 10.9609 37.2639 10.5248 37.0507 10.1563C36.8375 9.78777 36.4913 9.51484 36.0833 9.39348L31.8666 8.13681L30.6099 3.91681C30.4882 3.50869 30.2149 3.16265 29.8461 2.94972C29.4772 2.73679 29.0409 2.67313 28.6266 2.77181L24.3449 3.78681L21.1466 0.765141C20.8371 0.472581 20.4275 0.30957 20.0016 0.30957C19.5757 0.30957 19.166 0.472581 18.8566 0.765141L15.6549 3.78681L11.3733 2.76847C10.959 2.67035 10.5229 2.73447 10.1544 2.94769C9.78589 3.16092 9.51296 3.50707 9.39159 3.91514L8.13493 8.13181L3.91659 9.38848C3.50848 9.51019 3.16243 9.78351 2.9495 10.1523C2.73657 10.5212 2.67291 10.9575 2.77159 11.3718L3.78826 15.6551L0.76826 18.8551C0.476185 19.1645 0.313477 19.5739 0.313477 19.9993C0.313477 20.4248 0.476185 20.8341 0.76826 21.1435L3.78993 24.3435L2.77159 28.6268C2.67346 29.0411 2.73759 29.4772 2.95081 29.8457C3.16404 30.2142 3.51019 30.4871 3.91826 30.6085L8.13493 31.8651L9.39159 36.0835C9.51364 36.4909 9.78685 36.8363 10.1553 37.0489C10.5237 37.2614 10.9594 37.3251 11.3733 37.2268L15.6566 36.2118L18.8566 39.2335C19.166 39.526 19.5757 39.689 20.0016 39.689C20.4275 39.689 20.8371 39.526 21.1466 39.2335L24.3466 36.2101L28.6283 37.2285C29.0423 37.3267 29.4782 37.2628 29.8467 37.0499C30.2152 36.837 30.4882 36.4912 30.6099 36.0835L31.8666 31.8651L36.0849 30.6085C36.493 30.4868 36.8391 30.2134 37.052 29.8446C37.2649 29.4758 37.3286 29.0394 37.2299 28.6251L36.2149 24.3418L39.2366 21.1418C39.5275 20.8324 39.6893 20.4236 39.689 19.999C39.6887 19.5743 39.5263 19.1658 39.2349 18.8568ZM26.9366 27.3568C26.9953 27.4919 27.0102 27.6421 26.979 27.7861C26.9478 27.9301 26.8722 28.0607 26.7628 28.1594C26.6534 28.2581 26.5157 28.32 26.3693 28.3363C26.2229 28.3525 26.075 28.3224 25.9466 28.2501L20.4083 25.1301C20.2836 25.0601 20.143 25.0232 19.9999 25.0232C19.8569 25.0232 19.7163 25.0601 19.5916 25.1301L14.0549 28.2568C13.9263 28.3289 13.7782 28.3588 13.6317 28.3424C13.4851 28.326 13.3474 28.264 13.2379 28.1652C13.1284 28.0664 13.0527 27.9357 13.0214 27.7916C12.99 27.6475 13.0047 27.4972 13.0633 27.3618C13.8099 25.6485 14.8533 23.2468 15.3183 22.1768C15.3883 22.0158 15.4058 21.8368 15.3681 21.6653C15.3303 21.4938 15.2394 21.3386 15.1083 21.2218L11.2566 17.7885C11.1503 17.6937 11.0752 17.5689 11.0414 17.4305C11.0076 17.2922 11.0166 17.1468 11.0671 17.0137C11.1177 16.8805 11.2075 16.7659 11.3247 16.6849C11.4419 16.6039 11.5808 16.5604 11.7233 16.5601H16.2949C16.4573 16.5604 16.6162 16.5132 16.7521 16.4244C16.888 16.3355 16.995 16.2089 17.0599 16.0601L19.3549 10.7385C19.4093 10.6123 19.4995 10.5049 19.6143 10.4294C19.729 10.3539 19.8634 10.3137 20.0008 10.3137C20.1381 10.3137 20.2725 10.3539 20.3873 10.4294C20.502 10.5049 20.5922 10.6123 20.6466 10.7385L22.9416 16.0601C23.0065 16.2089 23.1135 16.3355 23.2494 16.4244C23.3853 16.5132 23.5442 16.5604 23.7066 16.5601H28.2766C28.4192 16.5601 28.5584 16.6033 28.6758 16.6842C28.7932 16.7651 28.8833 16.8797 28.9341 17.0129C28.9849 17.1461 28.994 17.2916 28.9602 17.4301C28.9264 17.5686 28.8513 17.6936 28.7449 17.7885L24.8933 21.2218C24.7621 21.3386 24.6712 21.4938 24.6335 21.6653C24.5958 21.8368 24.6132 22.0158 24.6833 22.1768L26.9366 27.3568Z" fill="white"/>
</svg>
