<svg width="20" height="20" viewBox="0 0 20 20" fill="none" xmlns="http://www.w3.org/2000/svg">
<path d="M19.6175 9.4284L18.1066 7.8284L18.615 5.68757C18.664 5.48043 18.632 5.26238 18.5254 5.07813C18.4187 4.89388 18.2457 4.75742 18.0416 4.69674L15.9333 4.0684L15.305 1.9584C15.2441 1.75434 15.1074 1.58132 14.923 1.47486C14.7386 1.36839 14.5204 1.33656 14.3133 1.3859L12.1725 1.8934L10.5733 0.382571C10.4186 0.23629 10.2137 0.154785 10.0008 0.154785C9.78787 0.154785 9.58302 0.23629 9.4283 0.382571L7.82746 1.8934L5.68663 1.38424C5.47949 1.33517 5.26143 1.36723 5.07719 1.47385C4.89294 1.58046 4.75648 1.75354 4.6958 1.95757L4.06746 4.0659L1.9583 4.69424C1.75424 4.75509 1.58122 4.89176 1.47475 5.07617C1.36829 5.26058 1.33646 5.47876 1.3858 5.6859L1.89413 7.82757L0.38413 9.42757C0.238092 9.58225 0.156738 9.78693 0.156738 9.99965C0.156738 10.2124 0.238092 10.4171 0.38413 10.5717L1.89496 12.1717L1.3858 14.3134C1.33673 14.5205 1.36879 14.7386 1.47541 14.9228C1.58202 15.1071 1.7551 15.2436 1.95913 15.3042L4.06746 15.9326L4.6958 18.0417C4.75682 18.2455 4.89342 18.4181 5.07763 18.5244C5.26184 18.6307 5.47971 18.6625 5.68663 18.6134L7.8283 18.1059L9.4283 19.6167C9.58302 19.763 9.78787 19.8445 10.0008 19.8445C10.2137 19.8445 10.4186 19.763 10.5733 19.6167L12.1733 18.1051L14.3141 18.6142C14.5212 18.6633 14.7391 18.6314 14.9233 18.5249C15.1076 18.4185 15.2441 18.2456 15.305 18.0417L15.9333 15.9326L18.0425 15.3042C18.2465 15.2434 18.4195 15.1067 18.526 14.9223C18.6325 14.7379 18.6643 14.5197 18.615 14.3126L18.1075 12.1709L19.6183 10.5709C19.7637 10.4162 19.8446 10.2118 19.8445 9.99949C19.8443 9.78716 19.7631 9.58289 19.6175 9.4284ZM13.4683 13.6784C13.4977 13.746 13.5051 13.821 13.4895 13.8931C13.4739 13.9651 13.4361 14.0303 13.3814 14.0797C13.3267 14.1291 13.2579 14.16 13.1846 14.1681C13.1114 14.1763 13.0375 14.1612 12.9733 14.1251L10.2041 12.5651C10.1418 12.53 10.0715 12.5116 9.99996 12.5116C9.92845 12.5116 9.85814 12.53 9.7958 12.5651L7.02746 14.1284C6.96314 14.1645 6.88912 14.1794 6.81584 14.1712C6.74256 14.163 6.67371 14.132 6.61896 14.0826C6.56422 14.0332 6.52635 13.9678 6.51069 13.8958C6.49502 13.8237 6.50234 13.7486 6.53163 13.6809C6.90496 12.8242 7.42663 11.6234 7.65913 11.0884C7.69417 11.0079 7.70288 10.9184 7.68403 10.8326C7.66517 10.7469 7.61971 10.6693 7.55413 10.6109L5.6283 8.89424C5.57514 8.84685 5.53762 8.78444 5.52071 8.71527C5.50379 8.64609 5.50828 8.57341 5.53357 8.50684C5.55886 8.44027 5.60377 8.38295 5.66235 8.34246C5.72093 8.30196 5.79042 8.28021 5.86163 8.28007H8.14746C8.22864 8.28019 8.30809 8.25659 8.37604 8.21218C8.44399 8.16777 8.49749 8.10447 8.52996 8.03007L9.67746 5.36924C9.70466 5.30617 9.74974 5.25244 9.80713 5.21469C9.86451 5.17695 9.93169 5.15683 10.0004 5.15683C10.0691 5.15683 10.1363 5.17695 10.1936 5.21469C10.251 5.25244 10.2961 5.30617 10.3233 5.36924L11.4708 8.03007C11.5033 8.10447 11.5568 8.16777 11.6247 8.21218C11.6927 8.25659 11.7721 8.28019 11.8533 8.28007H14.1383C14.2096 8.28004 14.2792 8.30167 14.3379 8.3421C14.3966 8.38253 14.4416 8.43985 14.467 8.50645C14.4924 8.57306 14.497 8.64581 14.4801 8.71506C14.4632 8.78432 14.4257 8.8468 14.3725 8.89424L12.4466 10.6109C12.3811 10.6693 12.3356 10.7469 12.3167 10.8326C12.2979 10.9184 12.3066 11.0079 12.3416 11.0884L13.4683 13.6784Z" fill="#FA9268"/>
</svg>
