<svg width="48" height="48" viewBox="0 0 48 48" fill="none" xmlns="http://www.w3.org/2000/svg">
<path d="M47.0817 22.628L43.4557 18.788L44.6757 13.65C44.7935 13.1529 44.7165 12.6296 44.4607 12.1874C44.2048 11.7452 43.7894 11.4177 43.2997 11.272L38.2397 9.76402L36.7317 4.70002C36.5857 4.21028 36.2577 3.79503 35.8151 3.53951C35.3725 3.284 34.8489 3.20761 34.3517 3.32602L29.2137 4.54402L25.3757 0.918023C25.0044 0.56695 24.5127 0.371338 24.0017 0.371338C23.4907 0.371338 22.9991 0.56695 22.6277 0.918023L18.7857 4.54402L13.6477 3.32202C13.1506 3.20427 12.6272 3.28122 12.1851 3.53709C11.7429 3.79295 11.4154 4.20834 11.2697 4.69802L9.76172 9.75802L4.69972 11.266C4.20997 11.4121 3.79472 11.7401 3.53921 12.1827C3.28369 12.6253 3.2073 13.1489 3.32572 13.646L4.54572 18.786L0.921717 22.626C0.571226 22.9973 0.375977 23.4885 0.375977 23.999C0.375977 24.5096 0.571226 25.0008 0.921717 25.372L4.54772 29.212L3.32572 34.352C3.20796 34.8492 3.28491 35.3725 3.54078 35.8147C3.79665 36.2569 4.21203 36.5844 4.70172 36.73L9.76172 38.238L11.2697 43.3C11.4162 43.789 11.744 44.2034 12.1861 44.4585C12.6282 44.7136 13.1511 44.79 13.6477 44.672L18.7877 43.454L22.6277 47.08C22.9991 47.4311 23.4907 47.6267 24.0017 47.6267C24.5127 47.6267 25.0044 47.4311 25.3757 47.08L29.2157 43.452L34.3537 44.674C34.8506 44.7919 35.3737 44.7152 35.8158 44.4597C36.258 44.2043 36.5857 43.7893 36.7317 43.3L38.2397 38.238L43.3017 36.73C43.7915 36.584 44.2067 36.256 44.4622 35.8134C44.7177 35.3708 44.7941 34.8472 44.6757 34.35L43.4577 29.21L47.0837 25.37C47.4328 24.9987 47.6269 24.5082 47.6266 23.9986C47.6262 23.489 47.4313 22.9988 47.0817 22.628ZM32.3237 32.828C32.3942 32.9902 32.412 33.1704 32.3746 33.3432C32.3371 33.516 32.2464 33.6727 32.1151 33.7911C31.9839 33.9096 31.8187 33.9838 31.643 34.0034C31.4672 34.0229 31.2898 33.9868 31.1357 33.9L24.4897 30.156C24.3401 30.0719 24.1714 30.0277 23.9997 30.0277C23.8281 30.0277 23.6593 30.0719 23.5097 30.156L16.8657 33.908C16.7113 33.9945 16.5337 34.0305 16.3578 34.0107C16.182 33.991 16.0167 33.9166 15.8853 33.798C15.7539 33.6795 15.6631 33.5227 15.6255 33.3498C15.5879 33.1768 15.6054 32.9964 15.6757 32.834C16.5717 30.778 17.8237 27.896 18.3817 26.612C18.4658 26.4188 18.4867 26.204 18.4415 25.9982C18.3962 25.7924 18.2871 25.6061 18.1297 25.466L13.5077 21.346C13.3801 21.2323 13.2901 21.0825 13.2495 20.9165C13.2089 20.7505 13.2197 20.576 13.2804 20.4163C13.3411 20.2565 13.4488 20.1189 13.5894 20.0217C13.73 19.9246 13.8968 19.8724 14.0677 19.872H19.5537C19.7485 19.8723 19.9392 19.8157 20.1023 19.7091C20.2654 19.6025 20.3938 19.4506 20.4717 19.272L23.2257 12.886C23.291 12.7347 23.3992 12.6057 23.5369 12.5151C23.6746 12.4245 23.8359 12.3763 24.0007 12.3763C24.1656 12.3763 24.3268 12.4245 24.4645 12.5151C24.6023 12.6057 24.7104 12.7347 24.7757 12.886L27.5297 19.272C27.6077 19.4506 27.736 19.6025 27.8991 19.7091C28.0622 19.8157 28.2529 19.8723 28.4477 19.872H33.9317C34.1028 19.8719 34.2699 19.9239 34.4108 20.0209C34.5517 20.1179 34.6598 20.2555 34.7207 20.4153C34.7817 20.5752 34.7926 20.7498 34.752 20.916C34.7115 21.0822 34.6214 21.2322 34.4937 21.346L29.8717 25.466C29.7143 25.6061 29.6052 25.7924 29.56 25.9982C29.5147 26.204 29.5356 26.4188 29.6197 26.612L32.3237 32.828Z" fill="#0A84FF"/>
</svg>
