<svg width="24" height="24" viewBox="0 0 24 24" fill="none" xmlns="http://www.w3.org/2000/svg">
<path d="M23.541 11.314L21.728 9.39401L22.338 6.82501C22.3969 6.57645 22.3584 6.31478 22.2304 6.09368C22.1025 5.87259 21.8948 5.70883 21.65 5.63601L19.12 4.88201L18.366 2.35001C18.293 2.10514 18.129 1.89751 17.9077 1.76976C17.6864 1.642 17.4246 1.6038 17.176 1.66301L14.607 2.27201L12.688 0.459012C12.5023 0.283475 12.2565 0.185669 12.001 0.185669C11.7455 0.185669 11.4997 0.283475 11.314 0.459012L9.39298 2.27201L6.82398 1.66101C6.57542 1.60213 6.31375 1.64061 6.09265 1.76854C5.87156 1.89648 5.7078 2.10417 5.63498 2.34901L4.88098 4.87901L2.34998 5.63301C2.10511 5.70604 1.89748 5.87003 1.76973 6.09133C1.64197 6.31263 1.60377 6.57444 1.66298 6.82301L2.27298 9.39301L0.460981 11.313C0.285735 11.4986 0.18811 11.7442 0.18811 11.9995C0.18811 12.2548 0.285735 12.5004 0.460981 12.686L2.27398 14.606L1.66298 17.176C1.6041 17.4246 1.64258 17.6862 1.77051 17.9073C1.89845 18.1284 2.10614 18.2922 2.35098 18.365L4.88098 19.119L5.63498 21.65C5.70821 21.8945 5.87213 22.1017 6.09318 22.2292C6.31424 22.3568 6.57568 22.395 6.82398 22.336L9.39398 21.727L11.314 23.54C11.4997 23.7155 11.7455 23.8134 12.001 23.8134C12.2565 23.8134 12.5023 23.7155 12.688 23.54L14.608 21.726L17.177 22.337C17.4254 22.3959 17.687 22.3576 17.908 22.2299C18.1291 22.1021 18.293 21.8947 18.366 21.65L19.12 19.119L21.651 18.365C21.8959 18.292 22.1035 18.128 22.2312 17.9067C22.359 17.6854 22.3972 17.4236 22.338 17.175L21.729 14.605L23.542 12.685C23.7165 12.4994 23.8136 12.2541 23.8134 11.9993C23.8132 11.7445 23.7158 11.4994 23.541 11.314ZM16.162 16.414C16.1972 16.4951 16.2061 16.5852 16.1874 16.6716C16.1687 16.758 16.1233 16.8363 16.0577 16.8956C15.992 16.9548 15.9095 16.9919 15.8216 17.0017C15.7337 17.0114 15.645 16.9934 15.568 16.95L12.245 15.078C12.1702 15.036 12.0858 15.0139 12 15.0139C11.9142 15.0139 11.8298 15.036 11.755 15.078L8.43298 16.954C8.35579 16.9973 8.26697 17.0152 8.17904 17.0054C8.0911 16.9955 8.00847 16.9583 7.94278 16.899C7.87709 16.8397 7.83165 16.7613 7.81285 16.6749C7.79405 16.5884 7.80284 16.4982 7.83798 16.417C8.28598 15.389 8.91198 13.948 9.19098 13.306C9.23303 13.2094 9.24348 13.102 9.22086 12.9991C9.19823 12.8962 9.14367 12.8031 9.06498 12.733L6.75398 10.673C6.69019 10.6161 6.64517 10.5413 6.62488 10.4582C6.60458 10.3752 6.60996 10.288 6.64031 10.2081C6.67066 10.1283 6.72454 10.0595 6.79484 10.0109C6.86514 9.96228 6.94853 9.93618 7.03398 9.93601H9.77698C9.8744 9.93616 9.96973 9.90784 10.0513 9.85454C10.1328 9.80125 10.197 9.72529 10.236 9.63601L11.613 6.44301C11.6456 6.36733 11.6997 6.30286 11.7686 6.25756C11.8374 6.21227 11.9181 6.18813 12.0005 6.18813C12.0829 6.18813 12.1635 6.21227 12.2324 6.25756C12.3013 6.30286 12.3553 6.36733 12.388 6.44301L13.765 9.63601C13.8039 9.72529 13.8681 9.80125 13.9497 9.85454C14.0312 9.90784 14.1266 9.93616 14.224 9.93601H16.966C17.0515 9.93597 17.1351 9.96193 17.2055 10.0104C17.276 10.059 17.33 10.1277 17.3605 10.2077C17.3909 10.2876 17.3964 10.3749 17.3761 10.458C17.3559 10.5411 17.3108 10.6161 17.247 10.673L14.936 12.733C14.8573 12.8031 14.8027 12.8962 14.7801 12.9991C14.7575 13.102 14.7679 13.2094 14.81 13.306L16.162 16.414Z" fill="#BC8A2B"/>
</svg>
