<svg width="16" height="16" viewBox="0 0 16 16" fill="none" xmlns="http://www.w3.org/2000/svg">
<path d="M15.7034 5.81936C15.6321 5.62803 15.5043 5.46298 15.3368 5.34624C15.1693 5.2295 14.9702 5.16663 14.766 5.16603H10.708C10.639 5.16608 10.5716 5.14468 10.5152 5.10479C10.4589 5.06491 10.4163 5.0085 10.3934 4.94336L8.93669 0.814695C8.86534 0.623869 8.73741 0.459389 8.57001 0.343266C8.40262 0.227142 8.20375 0.164917 8.00002 0.164917C7.7963 0.164917 7.59743 0.227142 7.43003 0.343266C7.26264 0.459389 7.13471 0.623869 7.06336 0.814695L7.06002 0.825361L5.60669 4.94336C5.5838 5.00839 5.54132 5.06472 5.48508 5.1046C5.42885 5.14448 5.36163 5.16594 5.29269 5.16603H1.23336C1.0279 5.16587 0.827386 5.22901 0.659079 5.34684C0.490773 5.46467 0.362846 5.63149 0.292698 5.8246C0.222549 6.01771 0.213584 6.22774 0.267021 6.42612C0.320458 6.6245 0.433704 6.80161 0.591357 6.93336L4.04736 9.80003C4.09905 9.84293 4.13658 9.90045 4.15502 9.96504C4.17346 10.0296 4.17195 10.0983 4.15069 10.162L2.69869 14.516C2.63159 14.7173 2.63026 14.9348 2.69491 15.1369C2.75955 15.339 2.88681 15.5153 3.05829 15.6403C3.22976 15.7653 3.43655 15.8325 3.64876 15.8323C3.86096 15.832 4.06756 15.7642 4.23869 15.6387L7.80269 13.0254C7.85984 12.9835 7.92884 12.9609 7.99969 12.9609C8.07054 12.9609 8.13954 12.9835 8.19669 13.0254L11.7594 15.638C11.9304 15.7639 12.1371 15.8321 12.3495 15.8327C12.5619 15.8332 12.769 15.7661 12.9407 15.6411C13.1124 15.5161 13.2398 15.3397 13.3046 15.1374C13.3693 14.9351 13.3679 14.7175 13.3007 14.516L11.8487 10.1594C11.8274 10.0956 11.8259 10.027 11.8444 9.96238C11.8628 9.89778 11.9003 9.84026 11.952 9.79736L15.4147 6.92669C15.5703 6.79383 15.6815 6.61642 15.7331 6.4184C15.7847 6.22038 15.7743 6.0113 15.7034 5.81936Z" fill="#E9E1D1"/>
</svg>
